<svg preserveAspectRatio="none" width="100%" height="100%" overflow="visible" style="display: block;" viewBox="0 0 48 48" fill="none" xmlns="http://www.w3.org/2000/svg">
<g id="Thumb-Up-Like-Sparkle Streamline Ultimate">
<path id="Vector" fill-rule="evenodd" clip-rule="evenodd" d="M17.3182 6.0264C16.9798 6.09195 16.6894 6.3264 16.5279 6.6645C16.4406 6.8472 16.4347 6.903 16.4344 7.5486L16.434 8.23785L15.7223 8.2506C15.0962 8.262 14.9893 8.2734 14.835 8.34585C14.4511 8.5257 14.172 8.95905 14.172 9.375C14.172 9.79095 14.4511 10.2243 14.835 10.4042C14.9893 10.4766 15.0962 10.488 15.7223 10.4994L16.434 10.5122L16.4344 11.2014C16.4347 11.847 16.4406 11.9028 16.5279 12.0855C16.6938 12.4329 16.9783 12.6573 17.3352 12.7223C17.8159 12.8099 18.2409 12.6291 18.4957 12.2288C18.6475 11.9903 18.696 11.7039 18.696 11.0448V10.506H19.338C20.0888 10.506 20.2971 10.4524 20.5683 10.1892C21.0386 9.7329 21.0386 9.01725 20.5683 8.5608C20.2971 8.29755 20.0888 8.244 19.338 8.244H18.696V7.7052C18.696 7.4088 18.6771 7.06215 18.6538 6.93495C18.5376 6.29565 17.9592 5.9022 17.3182 6.0264ZM27.9482 6.43035C27.0149 6.59955 26.2212 7.04145 25.7045 7.67985C25.3352 8.13585 24.4513 9.80475 22.9114 12.9536C21.0144 16.8329 20.0629 18.5211 18.8509 20.1585C17.9722 21.3455 16.8795 22.5115 15.9163 23.2897L15.6408 23.5125L11.2501 23.532C6.86025 23.5515 6.8595 23.5515 6.67815 23.6353C6.47595 23.7288 6.2133 23.9726 6.11955 24.1539C5.96895 24.4454 5.97315 24.9534 6.12855 25.2054C6.237 25.3812 6.46395 25.6026 6.6255 25.6901L6.7815 25.7745H11.5395H16.2975L16.4589 25.6898C16.6459 25.5914 17.1909 25.1806 17.5845 24.8413C19.0641 23.566 20.268 22.17 21.4833 20.32C22.5085 18.7593 22.9412 17.9623 24.9369 13.9575C26.6892 10.4413 27.2709 9.33 27.4985 9.06435C27.732 8.7915 28.1657 8.63565 28.6952 8.6346C29.0435 8.63385 29.2395 8.7288 29.58 9.063C30.0195 9.4944 30.0595 9.70125 29.9491 10.974C29.8134 12.5404 29.5385 13.8908 29.0754 15.264C28.6874 16.415 28.3881 17.088 27.6324 18.5104C27.3236 19.0915 27.2721 19.2795 27.3248 19.632C27.3773 19.9826 27.6672 20.3331 28.0419 20.4991C28.1292 20.5378 29.2047 20.5527 32.9895 20.568L37.8255 20.5875L38.0531 20.6941C38.3634 20.8395 38.5529 20.9975 38.7212 21.2511C38.9217 21.5532 38.986 21.7998 38.9697 22.2033C38.9586 22.478 38.9347 22.5827 38.836 22.7912C38.6512 23.1819 38.3158 23.481 37.9045 23.6219C37.8396 23.6441 37.4004 23.6725 36.9285 23.6848C35.9704 23.7102 35.8826 23.7324 35.5757 24.0283C35.1386 24.45 35.1377 25.1785 35.5739 25.6164C35.8847 25.9284 35.8803 25.9275 37.2795 25.9521C38.4441 25.9724 38.5417 25.9796 38.742 26.0594C38.9851 26.1563 39.2394 26.3461 39.4048 26.5543C40.0195 27.3277 39.7335 28.5293 38.8373 28.9397C38.5155 29.087 38.1625 29.1212 37.2304 29.0955C36.2851 29.0696 36.0399 29.0991 35.769 29.2717C35.0036 29.7591 35.0964 30.8952 35.9321 31.266C36.0714 31.3278 36.2311 31.3502 36.6759 31.3697C37.2006 31.3926 37.261 31.4033 37.4949 31.5141C38.6046 32.0402 38.7029 33.5729 37.6695 34.2363C37.3262 34.4567 37.2831 34.4639 36.129 34.4883C34.9412 34.5135 34.8687 34.5279 34.5588 34.8C34.1074 35.1963 34.0896 35.9949 34.5227 36.4127C34.757 36.6386 34.9626 36.7226 35.3641 36.7565C35.8287 36.7956 36.1117 36.9035 36.3583 37.1352C36.7107 37.4661 36.8478 37.9215 36.7552 38.453C36.6871 38.844 36.5787 39.0623 36.3396 39.2882C36.081 39.5328 35.7845 39.6684 35.3934 39.7208C35.0025 39.7731 24.3357 39.7425 24.0585 39.6884C23.9512 39.6674 21.9954 39.3314 19.7123 38.9418L15.561 38.2334L11.2103 38.244L6.8595 38.2545L6.63795 38.3633C6.23385 38.5619 6.0096 38.9196 6.0096 39.366C6.0096 39.8351 6.2955 40.263 6.7134 40.4195C6.9159 40.4952 7.02315 40.497 11.1517 40.497H15.3826L19.4085 41.1836C21.6228 41.5613 23.6013 41.8968 23.805 41.9294C24.1192 41.9795 25.0045 41.9912 29.6355 42.006C35.3281 42.0245 35.6643 42.017 36.2633 41.8602C37.2603 41.5991 38.189 40.8543 38.6442 39.951C38.8202 39.602 38.9228 39.2498 38.999 38.7327C39.1089 37.9874 39.0214 37.3115 38.7271 36.6308L38.5955 36.326L38.7759 36.2211C40.1584 35.4185 40.8951 33.7608 40.5726 32.1785C40.4928 31.7871 40.3108 31.2887 40.1449 31.0074C40.0972 30.9267 40.0648 30.8568 40.0729 30.852C40.5538 30.567 41.0856 30.0707 41.3683 29.643C42.3556 28.1499 42.1578 26.1094 40.903 24.8422C40.761 24.6988 40.6044 24.555 40.5552 24.5228L40.4658 24.4642L40.6026 24.2613C40.8979 23.8233 41.1234 23.2548 41.2023 22.7499C41.268 22.3293 41.2266 21.4824 41.1223 21.114C40.9168 20.3879 40.4085 19.6075 39.8538 19.1667C39.3882 18.7966 38.9904 18.5937 38.3715 18.41C38.1043 18.3306 38.0143 18.3287 34.2045 18.3162C31.1643 18.3063 30.3147 18.2931 30.3294 18.2561C30.3399 18.2298 30.4839 17.8926 30.6495 17.5065C31.1958 16.2335 31.6859 14.6011 31.9376 13.2165C32.1285 12.1656 32.268 10.7894 32.268 9.9552C32.268 9.04005 31.9053 8.193 31.2163 7.49925C30.6849 6.9639 30.0937 6.6039 29.5014 6.4548C29.1151 6.35775 28.4106 6.3465 27.9482 6.43035ZM38.2545 9.0699C38.0613 9.14205 37.8278 9.31995 37.7178 9.4788C37.5258 9.7563 37.494 9.91605 37.494 10.6041V11.2383L36.8018 11.2542C36.0114 11.2723 35.869 11.3119 35.589 11.592C35.305 11.8759 35.2026 12.2046 35.2753 12.5977C35.3212 12.8466 35.3789 12.9549 35.5802 13.1711C35.8526 13.4636 35.9397 13.4879 36.7627 13.5023L37.494 13.5151V14.1485C37.494 14.9684 37.5356 15.1218 37.8393 15.4257C38.0084 15.5948 38.1087 15.6603 38.2713 15.7085C38.7252 15.8426 39.0771 15.7542 39.4082 15.4232C39.7158 15.1154 39.756 14.9684 39.756 14.1485V13.5151L40.4873 13.5023C41.3103 13.4879 41.3974 13.4636 41.6698 13.1711C41.8711 12.9549 41.9288 12.8466 41.9747 12.5977C42.0474 12.2046 41.945 11.8759 41.661 11.592C41.381 11.3119 41.2386 11.2723 40.4482 11.2542L39.756 11.2383V10.6007C39.756 10.0521 39.7447 9.93285 39.6756 9.74805C39.5832 9.501 39.3429 9.23385 39.1125 9.12195C38.9291 9.033 38.4341 9.003 38.2545 9.0699ZM9.01215 12.822C8.7966 12.9022 8.57655 13.0656 8.46315 13.2294C8.2758 13.5002 8.244 13.6633 8.244 14.3524V14.991L7.72725 14.9913C6.8661 14.9918 6.5868 15.07 6.2844 15.3958C6.12765 15.5646 6.05955 15.706 6.02175 15.9405C5.9376 16.4634 6.1863 16.9353 6.6645 17.1604C6.84615 17.2459 6.9066 17.2522 7.5486 17.2525L8.23785 17.253L8.2506 17.9648C8.2653 18.7718 8.3001 18.9004 8.58 19.1775C8.8356 19.4307 8.99565 19.4946 9.375 19.4946C9.75435 19.4946 9.9144 19.4307 10.17 19.1775C10.4499 18.9004 10.4847 18.7718 10.4994 17.9648L10.5122 17.253L11.2014 17.2525C11.8434 17.2522 11.9039 17.2459 12.0855 17.1604C12.5685 16.933 12.8124 16.4641 12.7265 15.9289C12.6831 15.66 12.4854 15.3666 12.233 15.1974C11.9988 15.0403 11.714 14.9918 11.0259 14.9913L10.5123 14.991L10.4994 14.2987C10.488 13.6926 10.476 13.5843 10.4035 13.4276C10.3029 13.2095 10.092 12.9923 9.8712 12.8792C9.6624 12.7721 9.22425 12.7429 9.01215 12.822Z" fill="var(--fill-0, #9838D0)"/>
</g>
</svg>
