<svg preserveAspectRatio="none" width="100%" height="100%" overflow="visible" style="display: block;" viewBox="0 0 48 48" fill="none" xmlns="http://www.w3.org/2000/svg">
<g id="Transportation-Ticket-Car-Transfer-1 Streamline Ultimate">
<path id="Vector" fill-rule="evenodd" clip-rule="evenodd" d="M12.417 6.0798C11.4586 6.27705 10.5292 6.9672 10.1065 7.7955C10.0737 7.85985 9.6657 9.141 9.19995 10.6425C8.73405 12.144 8.3259 13.4251 8.29305 13.4895C8.0895 13.887 6.83625 15.9802 6.70515 16.1415C6.50415 16.3887 6.2475 16.8833 6.1431 17.2239C6.00465 17.6759 5.9718 18.2271 5.9928 19.7361C6.01365 21.2297 6.0261 21.3395 6.2385 21.8997C6.3714 22.2506 6.74115 22.8009 7.026 23.0723C7.29975 23.3328 7.7919 23.6579 8.0574 23.7533L8.244 23.8204V24.5729C8.244 25.2165 8.25465 25.3531 8.3178 25.5195C8.42835 25.8103 8.60445 26.0072 8.87565 26.1426C9.48435 26.4468 10.1866 26.1657 10.4322 25.5195C10.4937 25.3573 10.506 25.2186 10.506 24.6821V24.039H17.253H24V24.7181V25.3973L24.1273 25.6431C24.3405 26.055 24.6852 26.2625 25.155 26.2616C25.5679 26.261 25.9765 25.9914 26.1597 25.599C26.2329 25.4421 26.2431 25.3376 26.2552 24.6143C26.2627 24.1643 26.2846 23.805 26.3043 23.805C26.4076 23.805 26.9601 23.4904 27.226 23.2801C27.7854 22.8379 28.2078 22.1858 28.3933 21.4782C28.4892 21.1124 28.4949 21.0335 28.5136 19.788C28.534 18.4283 28.4983 17.7465 28.384 17.3115C28.2927 16.9642 28.057 16.4889 27.8238 16.1818C27.7102 16.0326 27.2925 15.3568 26.8951 14.6803L26.1729 13.4505L25.3021 10.6467C24.4639 7.9473 24.4242 7.83165 24.2332 7.54095C23.7978 6.87765 23.0878 6.36 22.2982 6.1302L21.9915 6.0408L17.331 6.0342C13.5709 6.0288 12.6214 6.03765 12.417 6.0798ZM12.7677 8.31945C12.5929 8.37255 12.4392 8.4678 12.2961 8.6115C12.1684 8.73945 12.126 8.8479 11.8318 9.795C11.6539 10.3683 11.373 11.2719 11.2077 11.8027L10.9072 12.768H17.2392C20.7216 12.768 23.5711 12.7548 23.5711 12.7387C23.5713 12.7227 23.2981 11.8233 22.9641 10.74L22.3567 8.7705L22.1664 8.5896C21.8208 8.26125 22.1683 8.28255 17.2363 8.2863C14.8323 8.28825 12.8215 8.3031 12.7677 8.31945ZM32.52 8.37525C31.8532 8.68575 31.668 9.5775 32.1553 10.1311C32.3956 10.4043 32.6264 10.4943 33.2073 10.5421C34.1223 10.6174 34.7287 10.8867 35.3434 11.4909C35.6584 11.8003 35.9001 12.1374 36.0678 12.5013C36.3217 13.0518 36.3337 13.1341 36.3519 14.4645L36.3684 15.6735L35.5564 14.8687C35.1099 14.4261 34.6833 14.0331 34.6083 13.9951C34.4096 13.8946 33.9993 13.8747 33.7606 13.9539C33.5212 14.0335 33.2763 14.2377 33.1384 14.4729C33.0571 14.6116 33.0307 14.7165 33.0169 14.953C32.9854 15.4987 32.9484 15.451 34.9903 17.4981C37.0476 19.5607 37.0197 19.539 37.5661 19.5074C37.8063 19.4934 37.911 19.4673 38.0445 19.3881C38.2563 19.2626 41.79 15.7215 41.878 15.5467C42.031 15.2433 42.0279 14.7414 41.8715 14.4876C41.7626 14.311 41.5357 14.0902 41.3745 14.0038C41.1438 13.8801 40.6243 13.8829 40.38 14.0091C40.2724 14.0646 39.8987 14.4043 39.4148 14.8863L38.625 15.6727L38.6242 14.5812C38.6233 13.177 38.5444 12.6172 38.2381 11.8398C37.4082 9.73425 35.3209 8.2824 33.126 8.2836C32.7784 8.28375 32.6868 8.29755 32.52 8.37525ZM9.381 16.1199C9.0306 16.7194 8.6595 17.3152 8.55615 17.4439C8.2593 17.8138 8.2635 17.7854 8.2635 19.437C8.2635 20.8418 8.2668 20.9066 8.3457 21.077C8.4657 21.3365 8.64885 21.5255 8.89995 21.6488L9.1215 21.7575H17.253C24.8205 21.7575 25.3947 21.7529 25.5307 21.6912C25.921 21.5144 26.1531 21.2163 26.223 20.8019C26.2533 20.622 26.2641 20.1065 26.2554 19.2534C26.2404 17.7987 26.2482 17.8392 25.8855 17.3626C25.7815 17.2263 25.4244 16.6459 25.092 16.0732L24.4875 15.0319L17.2529 15.0309L10.018 15.03L9.381 16.1199ZM11.3835 17.2942C11.0766 17.3652 10.7604 17.6127 10.6138 17.8965C10.5016 18.114 10.4776 18.5126 10.5618 18.7658C10.6446 19.0152 10.8703 19.2734 11.1153 19.3983L11.3055 19.4955L12.6853 19.5068C14.2309 19.5192 14.3 19.5102 14.5958 19.2569C14.856 19.0343 14.9625 18.8152 14.983 18.4609C14.9982 18.1984 14.9877 18.1306 14.9035 17.9494C14.7873 17.6988 14.5759 17.4812 14.3319 17.3609C14.1573 17.2749 14.1175 17.2723 12.846 17.2653C12.1273 17.2612 11.4693 17.2743 11.3835 17.2942ZM20.5095 17.271C20.488 17.2789 20.4072 17.2962 20.3298 17.3089C20.1202 17.3439 19.8538 17.5398 19.6875 17.7813C19.5519 17.9782 19.5385 18.0218 19.5229 18.3185C19.5013 18.7314 19.5936 18.9702 19.8715 19.2201C20.1913 19.5077 20.2389 19.515 21.7777 19.515H23.1295L23.3682 19.3958C23.7463 19.2068 23.9569 18.8963 23.9905 18.4782C24.028 18.0113 23.7598 17.5605 23.3284 17.3655C23.1261 17.2741 23.0997 17.2724 21.8355 17.2644C21.1276 17.2599 20.5309 17.2629 20.5095 17.271ZM30.2944 21.8705C29.8696 22.0683 29.6376 22.4279 29.6376 22.8885C29.6376 23.3492 29.8606 23.7087 30.2719 23.9108L30.4935 24.0195L32.8725 24.039C35.1174 24.0575 35.2591 24.0627 35.388 24.1328C35.5894 24.2424 35.7327 24.3552 35.7988 24.456C35.8311 24.5052 36.1033 25.3397 36.4041 26.3105C36.7048 27.2813 36.9842 28.1765 37.0248 28.2998L37.0989 28.524H30.7249H24.351V28.428C24.351 28.2394 24.187 27.89 24.0205 27.7235C23.8321 27.5351 23.4987 27.393 23.245 27.393C22.9246 27.393 22.6798 27.4979 22.4404 27.7377C22.2283 27.9503 22.2138 27.9783 22.0543 28.485C21.9633 28.7745 21.8685 29.0641 21.8436 29.1285C21.759 29.3484 20.3634 31.6959 20.1928 31.9053C19.9635 32.1869 19.6929 32.7565 19.585 33.1845C19.5003 33.5215 19.4967 33.6006 19.4967 35.1735C19.4967 36.7464 19.5003 36.8254 19.585 37.1625C19.8361 38.1594 20.5015 38.991 21.3886 39.4167L21.7299 39.5805L21.7437 40.38C21.7591 41.2801 21.7879 41.3913 22.0798 41.6844C22.3273 41.9328 22.4904 41.9976 22.869 41.9976C23.2449 41.9976 23.4255 41.9269 23.6671 41.6851C23.9529 41.3994 23.979 41.3037 23.9932 40.4873L24.0061 39.756H30.7468H37.4878L37.5006 40.4677C37.5151 41.2699 37.5496 41.3998 37.8222 41.677C38.0679 41.9268 38.2449 41.9976 38.625 41.9976C39.0051 41.9976 39.1821 41.9268 39.4278 41.677C39.7062 41.3938 39.7347 41.2795 39.751 40.38L39.7654 39.5805L40.1081 39.4146C41.1573 38.9062 41.8561 37.9059 41.9794 36.7356C42.0276 36.2782 42.0276 34.0687 41.9794 33.6114C41.9128 32.9794 41.7006 32.439 41.3151 31.919C41.1895 31.7496 40.7673 31.0651 40.3767 30.3978L39.6666 29.1846L38.7937 26.3745C37.953 23.6678 37.9137 23.5538 37.7281 23.2787C37.3446 22.7103 36.7683 22.2468 36.1437 22.0043C35.5666 21.7802 35.5209 21.777 32.8992 21.7775L30.4935 21.7778L30.2944 21.8705ZM10.1115 28.5779C10.0339 28.6055 9.91995 28.6649 9.858 28.7097C9.64335 28.8653 6.1854 32.3661 6.12195 32.4923C5.96895 32.7957 5.9721 33.2976 6.12855 33.5514C6.23745 33.7279 6.46425 33.9487 6.6255 34.0351C6.8562 34.1589 7.37565 34.156 7.62 34.0299C7.72755 33.9744 8.10135 33.6347 8.58525 33.1527L9.375 32.3662L9.37575 33.4578C9.37665 34.8619 9.45555 35.4217 9.76185 36.1992C10.5922 38.3055 12.6763 39.7549 14.8761 39.7558C15.2407 39.756 15.3108 39.7444 15.4899 39.6552C16.1671 39.3177 16.3325 38.4518 15.8271 37.8896C15.5889 37.6247 15.3891 37.5489 14.796 37.4983C13.8682 37.4193 13.2352 37.1352 12.643 36.5319C12.2692 36.1511 12.1582 35.9985 11.9671 35.6025C11.6769 35.001 11.6667 34.936 11.6481 33.5745L11.6316 32.3655L12.4435 33.1702C12.8901 33.6129 13.3167 34.0059 13.3917 34.0438C13.5905 34.1443 14.0007 34.1643 14.2393 34.0851C14.4787 34.0054 14.7237 33.8013 14.8615 33.5661C14.9428 33.4273 14.9692 33.3225 14.983 33.0859C15.0145 32.5402 15.0516 32.5879 13.0096 30.5412C11.0077 28.5343 10.9929 28.5225 10.5094 28.5257C10.3681 28.5267 10.189 28.5501 10.1115 28.5779ZM22.8729 31.8819C22.5211 32.484 22.1761 33.0451 22.1061 33.1288C21.8997 33.3759 21.8253 33.5217 21.7804 33.7669C21.7261 34.063 21.7251 36.2193 21.7789 36.558C21.8292 36.8739 21.9943 37.1325 22.266 37.3204C22.4323 37.4356 22.5129 37.4623 22.7925 37.4944C23.2296 37.5447 38.2549 37.5458 38.6914 37.4957C38.8675 37.4754 39.0658 37.4307 39.1323 37.3963C39.3153 37.3017 39.5589 37.0398 39.6526 36.8368C39.7338 36.6615 39.7365 36.607 39.7365 35.193C39.7365 33.5451 39.7399 33.5689 39.4494 33.207C39.3492 33.082 38.9785 32.4862 38.6257 31.8829L37.9845 30.786L30.7485 30.7866L23.5125 30.7872L22.8729 31.8819ZM24.8119 33.0624C24.3121 33.1996 23.9731 33.688 24.0097 34.218C24.0381 34.6264 24.261 34.9638 24.6348 35.1635C24.7972 35.2503 24.8194 35.2515 26.2425 35.2515H27.6855L27.8739 35.1553C28.1013 35.0391 28.3102 34.8163 28.416 34.5774C28.4796 34.4334 28.491 34.342 28.4769 34.0851C28.4664 33.892 28.4335 33.7195 28.3923 33.6406C28.2922 33.4495 28.0335 33.2074 27.8278 33.1123C27.6547 33.0322 27.5857 33.0282 26.3205 33.0204C25.3396 33.0144 24.9469 33.0253 24.8119 33.0624ZM33.8199 33.0625C33.3423 33.1941 33.009 33.6345 33.009 34.1338C33.009 34.5718 33.2161 34.9234 33.5992 35.1357L33.8085 35.2515H35.2515H36.6945L36.909 35.1306C37.1478 34.996 37.3816 34.7202 37.4499 34.4925C37.6128 33.9491 37.3454 33.352 36.831 33.1108C36.6645 33.0327 36.5878 33.028 35.3295 33.0202C34.3413 33.0141 33.9567 33.0247 33.8199 33.0625Z" fill="var(--fill-0, #9838D0)"/>
</g>
</svg>
