<svg preserveAspectRatio="none" width="100%" height="100%" overflow="visible" style="display: block;" viewBox="0 0 48 48" fill="none" xmlns="http://www.w3.org/2000/svg">
<g id="Wrench-1 Streamline Ultimate">
<path id="Vector" fill-rule="evenodd" clip-rule="evenodd" d="M33.516 6.0228C31.2614 6.18555 29.2531 7.2408 27.8418 9.0045C27.4713 9.46755 27.2814 9.7548 27.0244 10.2406C26.07 12.0462 25.8481 14.2726 26.431 16.1953L26.5606 16.623L21.5851 21.5944L16.6095 26.566L16.3409 26.4733C15.1427 26.0593 13.6131 25.9974 12.1926 26.305C9.9111 26.7994 7.87395 28.3995 6.825 30.5211C5.75655 32.682 5.71755 35.2403 6.7206 37.3575C6.96135 37.8654 7.236 38.0757 7.7025 38.1091C7.8852 38.1223 8.02185 38.1078 8.1705 38.0594C8.3637 37.9965 8.4774 37.895 9.5895 36.7931C10.2545 36.1343 10.8557 35.556 10.9254 35.5083C11.0993 35.3893 11.2625 35.3466 11.5479 35.3453C12.3776 35.3414 12.9279 36.2481 12.5501 36.9967C12.5148 37.0665 11.9451 37.6676 11.2839 38.3325C10.3008 39.3213 10.0638 39.5807 9.98235 39.756C9.7278 40.3044 9.97125 40.9499 10.5404 41.2347C11.1293 41.5298 11.9855 41.7973 12.7485 41.9253C13.2221 42.0046 14.3774 42.0147 14.8935 41.9441C17.0595 41.6475 18.8283 40.6578 20.1576 38.999C21.768 36.9894 22.3071 34.2391 21.5683 31.8024L21.4393 31.377L26.4149 26.4055L31.3905 21.4339L31.6592 21.5266C33.4356 22.1403 35.7195 21.9726 37.5135 21.0966C38.6066 20.5629 39.5013 19.8469 40.2704 18.8904C42.1377 16.5681 42.5378 13.2985 41.2794 10.6425C41.0387 10.1346 40.764 9.9243 40.2975 9.8907C40.1145 9.87765 39.9785 9.8922 39.8295 9.9408C39.636 10.0039 39.5211 10.107 38.3715 11.2476C37.6851 11.9286 37.0661 12.5148 36.9959 12.5504C36.9255 12.5859 36.7755 12.6321 36.6626 12.653C35.7543 12.821 35.0286 11.8332 35.4504 11.0032C35.4858 10.9335 36.0555 10.3324 36.7163 9.6675C37.6973 8.68035 37.936 8.4192 38.0175 8.244C38.2569 7.72935 38.0561 7.1136 37.5528 6.81855C36.9185 6.44685 35.685 6.1032 34.6887 6.02055C34.1926 5.97945 34.1142 5.9796 33.516 6.0228ZM33.555 8.2863C31.0362 8.51715 28.9811 10.3613 28.4816 12.839C28.2566 13.9547 28.3711 15.0725 28.8219 16.161C28.9864 16.5584 29.0077 16.643 29.0086 16.902C29.0094 17.1449 28.9919 17.2277 28.9059 17.3895C28.7633 17.658 17.63 28.7854 17.37 28.9192C17.2314 28.9906 17.1329 29.0094 16.902 29.0085C16.6479 29.0076 16.5558 28.9854 16.2 28.8391C15.4421 28.5276 14.9454 28.4145 14.1834 28.3798C12.1972 28.2895 10.3113 29.2526 9.19605 30.9264C8.53845 31.9134 8.18205 33.2517 8.2626 34.4324C8.2779 34.6577 8.30235 34.842 8.31675 34.842C8.33115 34.842 8.5182 34.6654 8.73225 34.4497C9.38295 33.7939 9.78585 33.5018 10.3349 33.2873C10.8468 33.0873 11.657 33.026 12.2282 33.144C14.2166 33.5547 15.3954 35.6149 14.7522 37.555C14.5647 38.1202 14.3207 38.4804 13.6913 39.1212C13.343 39.4756 13.166 39.6822 13.2009 39.6933C13.3524 39.7415 14.0241 39.7536 14.414 39.7151C15.8384 39.5745 16.9794 39.0452 17.9504 38.0744C19.6508 36.3738 20.1087 33.8251 19.1022 31.6635C18.9537 31.3446 18.9442 30.8937 19.0804 30.63C19.2148 30.3698 30.3425 19.2366 30.6105 19.0941C30.7725 19.008 30.855 18.9906 31.098 18.9915C31.3523 18.9924 31.4442 19.0146 31.8 19.1608C32.558 19.4724 33.0546 19.5855 33.8166 19.6201C35.8048 19.7104 37.6711 18.7572 38.8021 17.0736C39.3186 16.3049 39.6152 15.4409 39.7193 14.4012C39.7623 13.9715 39.7389 13.158 39.6834 13.158C39.669 13.158 39.4644 13.353 39.2289 13.5915C38.3617 14.469 37.74 14.8101 36.8169 14.9147C36.159 14.9892 35.4938 14.8596 34.8854 14.5386C33.2481 13.6746 32.6036 11.684 33.4233 10.0231C33.6186 9.62745 33.7873 9.41175 34.3462 8.84265C34.7505 8.43105 34.8357 8.32575 34.7778 8.30955C34.6266 8.2674 33.9104 8.25375 33.555 8.2863Z" fill="var(--fill-0, #9838D0)"/>
</g>
</svg>
