<svg preserveAspectRatio="none" width="100%" height="100%" overflow="visible" style="display: block;" viewBox="0 0 48 48" fill="none" xmlns="http://www.w3.org/2000/svg">
<g id="Shield-Check-1 Streamline Ultimate">
<path id="Vector" fill-rule="evenodd" clip-rule="evenodd" d="M22.3035 6.02295C18.7919 6.1578 15.2826 6.8628 11.9951 8.09385C10.5789 8.62425 10.017 8.88045 9.6054 9.18375C9.14895 9.5202 8.8068 9.942 8.55555 10.478C8.23935 11.1528 8.2635 10.5369 8.2635 17.9355C8.2635 25.1662 8.25585 24.8955 8.502 26.3985C9.05445 29.7727 10.5033 32.9034 12.7619 35.6025C13.1427 36.0578 14.4818 37.3962 14.9325 37.7724C15.7718 38.4728 16.6881 39.1269 17.552 39.6425C18.1542 40.0019 19.517 40.6739 20.1585 40.9278C21.4926 41.4558 22.3182 41.7546 22.6835 41.8418C23.5238 42.042 24.4763 42.042 25.3166 41.8418C25.6844 41.754 26.5629 41.4357 27.8415 40.9266C29.6546 40.205 31.454 39.1188 33.0675 37.7724C33.5183 37.3962 34.8573 36.0578 35.2382 35.6025C37.5164 32.8799 38.9796 29.6931 39.518 26.2815C39.7442 24.8482 39.7365 25.1364 39.7365 17.994C39.7365 11.0332 39.7419 11.253 39.5583 10.749C39.3195 10.0932 38.8533 9.4845 38.2994 9.1053C37.7651 8.7396 35.7806 7.9587 34.0752 7.443C30.3003 6.3015 26.6178 5.85735 22.3035 6.02295ZM22.262 8.2863C18.6537 8.4513 15.113 9.23685 11.754 10.6179C11.0477 10.9083 10.9805 10.9446 10.8093 11.1294C10.482 11.4825 10.506 10.9551 10.5062 17.8158C10.5063 21.5576 10.5216 24.1128 10.5461 24.4485C10.8029 27.9829 12.1367 31.3028 14.3952 34.0289C14.7992 34.5164 16.0145 35.7366 16.473 36.1149C18.1616 37.5084 19.5427 38.2803 22.0729 39.2444C23.25 39.6929 23.4107 39.7337 24 39.7337C24.5894 39.7337 24.75 39.6929 25.9271 39.2444C28.1423 38.4003 29.3901 37.7462 30.7885 36.6957C32.8425 35.153 34.5167 33.1565 35.6768 30.8661C36.7098 28.8264 37.2915 26.7141 37.4547 24.4095C37.5095 23.6352 37.5074 11.8022 37.4525 11.586C37.4012 11.3849 37.2464 11.1542 37.0637 11.007C36.8892 10.8665 35.5404 10.3151 34.503 9.96015C30.5744 8.6163 26.6825 8.08425 22.262 8.2863ZM23.3955 12.7687C19.5008 13.0143 16.1468 15.8487 15.2516 19.6515C15.0722 20.4133 15.0161 20.9137 15.0153 21.7575C15.014 23.2186 15.2838 24.3865 15.9252 25.6965C16.6605 27.1984 17.7327 28.4106 19.125 29.3142C21.7565 31.0221 25.1378 31.2196 27.9585 29.8305C30.4785 28.5895 32.2404 26.3262 32.8196 23.5861C32.9403 23.0143 32.9406 22.6326 32.8203 22.401C32.4597 21.7068 31.6202 21.5334 31.0595 22.0375C30.8141 22.2582 30.731 22.44 30.6285 22.9806C30.3615 24.3898 29.7073 25.6002 28.6744 26.5966C27.724 27.5133 26.6128 28.0944 25.2846 28.3692C24.7122 28.4877 23.7021 28.5167 23.1297 28.4309C21.7394 28.2224 20.5752 27.6978 19.5876 26.8342C16.85 24.441 16.4873 20.3813 18.7557 17.526C19.2992 16.842 20.2454 16.0833 21.0201 15.7102C21.9573 15.259 22.5596 15.1122 23.9415 14.9976C24.3972 14.9598 24.5739 14.8887 24.8069 14.6495C25.3487 14.0933 25.1626 13.1519 24.4504 12.8447C24.2394 12.7536 23.9582 12.7333 23.3955 12.7687ZM31.5657 14.7545C31.512 14.7708 31.4067 14.8151 31.3317 14.8527C31.2569 14.8904 29.5765 16.5379 27.5979 18.514L24.0005 22.1071L22.8594 20.9689C21.6491 19.7614 21.5604 19.6924 21.1595 19.645C20.7614 19.5978 20.3088 19.8278 20.084 20.1915C19.9863 20.3495 19.9661 20.428 19.9515 20.7063C19.9238 21.2368 19.9199 21.2316 21.473 22.7737C22.6536 23.946 22.8402 24.1159 23.064 24.2224C23.6543 24.5032 24.3427 24.5035 24.936 24.2233C25.1703 24.1126 25.4778 23.8158 28.9971 20.3034C31.7928 17.5131 32.8289 16.4552 32.8958 16.3224C33.0183 16.0794 33.0228 15.6377 32.9054 15.381C32.6837 14.8971 32.0585 14.6046 31.5657 14.7545Z" fill="var(--fill-0, #9838D0)"/>
</g>
</svg>
