<svg preserveAspectRatio="none" width="100%" height="100%" overflow="visible" style="display: block;" viewBox="0 0 48 48" fill="none" xmlns="http://www.w3.org/2000/svg">
<g id="Time-Twentfour-Hours-2 Streamline Ultimate">
<path id="Vector" fill-rule="evenodd" clip-rule="evenodd" d="M21.27 6.04635C18.2886 6.2445 15.897 7.0011 13.5348 8.49315C12.4909 9.15255 11.6198 9.864 10.6806 10.8237C8.3352 13.2206 6.8346 16.2765 6.35505 19.632C6.2388 20.4464 6.2058 21.1148 6.2283 22.206C6.25665 23.5815 6.3627 24.3894 6.684 25.677C7.9836 30.8855 11.8805 35.0926 16.98 36.7932C17.7372 37.0458 18.1979 37.1685 18.9429 37.3166C19.7697 37.4808 20.0534 37.443 20.4104 37.1204C20.645 36.9084 20.7336 36.7121 20.7548 36.3575C20.7702 36.0989 20.7597 36.0316 20.6753 35.8504C20.5622 35.6076 20.3817 35.4139 20.1662 35.304C20.0823 35.2611 19.7216 35.1669 19.3646 35.0943C17.3066 34.6766 15.49 33.8648 13.86 32.634C10.9765 30.4571 9.1329 27.3303 8.59035 23.6969C8.487 23.0045 8.44725 21.3878 8.5152 20.6387C8.67135 18.9174 9.12735 17.3177 9.90525 15.7617C10.603 14.3661 11.3074 13.3997 12.4717 12.2411C14.0509 10.6691 15.7163 9.6483 17.838 8.9514C19.1723 8.51325 20.4968 8.31015 22.0305 8.3085C24.0783 8.3064 25.9566 8.7297 27.8149 9.61215C33.1478 12.1445 36.2257 17.8914 35.3851 23.7465C35.3419 24.0468 35.2614 24.4856 35.206 24.7215C35.1505 24.9575 35.0969 25.2765 35.0865 25.4306C35.0705 25.6697 35.0817 25.7408 35.1631 25.9181C35.2156 26.0322 35.3059 26.1816 35.364 26.2503C35.5858 26.5124 36.1179 26.672 36.4611 26.5793C36.8415 26.4764 37.1668 26.1587 37.2814 25.7778C37.3789 25.4538 37.6017 24.2913 37.6706 23.7465C37.8081 22.6598 37.807 21.0659 37.6681 19.905C37.1779 15.8075 35.0065 11.9505 31.7662 9.42195C29.7256 7.82955 27.4002 6.7725 24.897 6.2994C23.7955 6.09135 22.233 5.9823 21.27 6.04635ZM21.6654 11.9135C21.3587 12.0072 21.0923 12.2501 20.9421 12.573C20.8613 12.747 20.8604 12.7839 20.8496 16.7167L20.8386 20.685L17.6126 20.6855L14.3865 20.6858L14.1915 20.7777C13.9528 20.8902 13.7335 21.1064 13.6201 21.3407C13.42 21.7541 13.5556 22.3593 13.9144 22.6533C14.274 22.9479 13.9529 22.9262 18.15 22.9389C20.7368 22.9469 21.9909 22.9371 22.1609 22.908C22.5447 22.842 22.8627 22.5972 23.0219 22.245C23.1003 22.0718 23.1013 22.0113 23.1021 17.433C23.1027 14.0978 23.0907 12.7553 23.0589 12.6495C22.9915 12.4244 22.7568 12.1458 22.5249 12.0158C22.2936 11.886 21.9062 11.84 21.6654 11.9135ZM27.8805 28.5293C26.9022 28.623 26.0916 28.9997 25.4219 29.6718C24.7985 30.297 24.4004 31.0254 23.9814 32.307C23.8241 32.7882 23.7993 32.9049 23.816 33.0894C23.8859 33.872 24.7182 34.3503 25.4159 34.0089C25.7781 33.8318 25.9014 33.6537 26.1389 32.9649C26.6081 31.6041 26.9975 31.0812 27.7058 30.8607C28.5089 30.6108 29.33 30.8067 29.9129 31.3872C30.5634 32.0354 30.7329 32.9372 30.3549 33.74C30.287 33.8843 29.5689 34.6266 27.1194 37.0845C23.6184 40.5975 23.8229 40.3602 23.8262 40.9065C23.8287 41.3555 24.0708 41.7155 24.5051 41.9163C24.6815 41.9981 24.7041 41.9985 28.3095 41.9985H31.9365L32.1425 41.9055C32.742 41.6345 32.9872 40.901 32.6685 40.3328C32.5392 40.1022 32.26 39.8673 32.0355 39.8001C31.9341 39.7697 31.2386 39.756 29.7968 39.756C28.6463 39.756 27.705 39.7428 27.705 39.7266C27.705 39.7104 28.6274 38.7759 29.7546 37.6498C30.8819 36.5238 31.8892 35.4885 31.9935 35.349C32.568 34.5798 32.845 33.6768 32.8012 32.7165C32.7745 32.1294 32.6983 31.776 32.4847 31.2459C32.0802 30.2423 31.3268 29.4354 30.3434 28.953C29.8481 28.71 29.403 28.5827 28.8573 28.5278C28.3907 28.4808 28.3851 28.4808 27.8805 28.5293ZM40.3545 28.5386C40.1682 28.5996 39.9289 28.7634 39.8116 28.9103C39.6469 29.1167 34.0327 38.1424 33.9897 38.2701C33.8154 38.7867 34.0954 39.4137 34.608 39.6542C34.7797 39.7347 34.8351 39.7368 37.1698 39.7476L39.5562 39.7589L39.5683 40.4691C39.5797 41.1348 39.5866 41.1914 39.6766 41.3679C39.7929 41.5953 40.0156 41.8043 40.2546 41.91C40.3986 41.9736 40.4899 41.985 40.7469 41.9709C40.9399 41.9604 41.1124 41.9276 41.1913 41.8863C41.3824 41.7863 41.6246 41.5275 41.7197 41.3218L41.8035 41.1405V35.232V29.3235L41.6997 29.1285C41.4972 28.7481 41.1627 28.5246 40.7591 28.5002C40.619 28.4918 40.4481 28.508 40.3545 28.5386ZM38.3263 35.5301L37.1112 37.4745L38.3224 37.4849C38.9887 37.4906 39.5401 37.4889 39.5478 37.4812C39.5554 37.4736 39.5572 36.5939 39.5515 35.5265L39.5415 33.5856L38.3263 35.5301Z" fill="var(--fill-0, #9838D0)"/>
</g>
</svg>
