<svg preserveAspectRatio="none" width="100%" height="100%" overflow="visible" style="display: block;" viewBox="0 0 48 48" fill="none" xmlns="http://www.w3.org/2000/svg">
<g id="Task-List-Check-2 Streamline Ultimate">
<path id="Vector" fill-rule="evenodd" clip-rule="evenodd" d="M10.7595 6.07965C9.00135 6.3594 7.47495 7.4541 6.64695 9.02895C6.28245 9.7224 6.0876 10.3965 6.0216 11.1935C5.9718 11.7954 5.96925 36.2145 6.01905 36.8115C6.06345 37.3445 6.1476 37.7615 6.30255 38.2155C6.9912 40.2342 8.7945 41.6991 10.9314 41.9756C11.3827 42.0339 29.1085 42.0353 29.578 41.9769C30.7552 41.8307 31.8064 41.3337 32.7451 40.4796C33.5472 39.7497 40.6404 32.6027 40.8583 32.3049C41.5335 31.3818 41.8881 30.4386 41.9775 29.3275C42.0289 28.6881 42.0323 11.8423 41.981 11.2275C41.9127 10.408 41.7295 9.75795 41.3731 9.07065C40.5331 7.4508 39.0028 6.35055 37.2115 6.07875C36.8815 6.02865 35.1357 6.0216 23.9515 6.0255C13.7295 6.0291 11.0071 6.0402 10.7595 6.07965ZM10.9155 8.34735C10.285 8.4822 9.72345 8.79375 9.2412 9.27615C8.772 9.74535 8.4732 10.2851 8.3325 10.9172C8.26725 11.2107 8.2635 11.9223 8.2635 24.0195C8.2635 36.3279 8.2662 36.8231 8.33565 37.1193C8.48955 37.7759 8.77845 38.2934 9.25965 38.7746C9.6768 39.1919 10.1731 39.486 10.7595 39.6639C10.9822 39.7314 11.4126 39.7353 19.7367 39.746L28.4799 39.7572L28.495 36.6464C28.5115 33.2028 28.5106 33.2163 28.7722 32.4177C29.1633 31.224 29.8594 30.2825 30.9057 29.5317C31.5264 29.0865 32.2503 28.7828 33.1455 28.592C33.2689 28.5657 34.5133 28.542 36.5385 28.5275L39.7365 28.5045V19.8465V11.1885L39.6472 10.8375C39.3514 9.67425 38.4683 8.7558 37.2956 8.39205L37.0065 8.3025L24.0975 8.29575C12.7635 8.28975 11.1552 8.2962 10.9155 8.34735ZM30.1617 16.4314C30.108 16.4478 30.0027 16.4919 29.9277 16.5296C29.8528 16.5672 27.8695 18.518 25.5205 20.8646C23.1715 23.211 21.2331 25.131 21.2127 25.131C21.1923 25.131 20.4993 24.4577 19.6725 23.6348C18.2764 22.2449 18.1534 22.1325 17.9437 22.0552C17.4895 21.8877 17.0451 21.9864 16.7283 22.3251C16.484 22.5864 16.42 22.7466 16.4184 23.103C16.4172 23.3345 16.4361 23.4334 16.5085 23.5771C16.5738 23.7064 17.0682 24.2245 18.2233 25.3741C19.6855 26.8291 19.8745 27.0037 20.1289 27.1347C20.7957 27.4776 21.6256 27.4778 22.294 27.1352C22.5583 26.9996 22.8588 26.7086 26.9764 22.5995C30.2991 19.2839 31.4016 18.1608 31.4789 18.0135C31.6182 17.748 31.6257 17.32 31.4957 17.0533C31.3722 16.7998 31.1209 16.5653 30.8742 16.4729C30.6639 16.3943 30.3451 16.3756 30.1617 16.4314ZM33.438 30.8454C32.8687 30.9621 32.4237 31.178 31.9765 31.5539C31.4452 32.0004 31.0373 32.6363 30.8552 33.3015C30.7716 33.6066 30.7694 33.6753 30.7562 36.3923C30.7488 37.9206 30.755 39.171 30.7698 39.171C30.7847 39.171 30.9129 39.0755 31.0546 38.9588C31.3647 38.7035 38.8693 31.1885 39.0507 30.9518L39.1776 30.786L36.4345 30.7896C34.3126 30.7925 33.634 30.8051 33.438 30.8454Z" fill="var(--fill-0, #9838D0)"/>
</g>
</svg>
