<svg preserveAspectRatio="none" width="64" height="64" viewBox="0 0 64 64" fill="none" xmlns="http://www.w3.org/2000/svg">
<path d="M39.3271 0.804992C51.549 3.56126 61.7869 14.277 63.6343 27.2711C67.2759 52.8754 41.2557 71.7042 17.9789 60.8754L2.72553 63.9623C1.14473 64.1842 -0.269671 62.7719 0.0439295 61.1741L4.82473 48.9991C-0.551271 40.0669 -1.5774 29.1122 2.557 19.461C8.69246 5.14206 24.1271 -2.62327 39.3271 0.804992ZM39.9458 31.6445C44.9613 26.7655 44.4002 18.437 38.8023 14.2663C32.0759 9.25512 22.2882 12.9906 20.7266 21.2167C20.2125 23.9261 20.8887 27.2221 24.3597 26.8743C28.8866 26.4199 25.9447 20.6173 30.4759 19.1367C35.517 17.4877 38.6978 24.0839 34.7661 27.0493C32.7991 28.5341 29.9511 27.3458 28.8247 29.9527C28.3661 31.0151 28.3746 33.5325 28.4791 34.7165C28.8695 39.2093 34.3799 39.5506 35.357 35.4183C35.4317 35.1026 35.3399 34.5223 35.4551 34.3431C35.5234 34.2343 37.3879 33.4855 37.7826 33.2594C38.5506 32.8178 39.3165 32.261 39.9501 31.6445H39.9458ZM36.5453 47.4162C36.5453 44.8861 34.4951 42.8359 31.965 42.8359C29.4349 42.8359 27.3847 44.8861 27.3847 47.4162C27.3847 49.9463 29.4349 51.9965 31.965 51.9965C34.4951 51.9965 36.5453 49.9463 36.5453 47.4162Z" fill="#F5E4FF"/>
<svg x="20.5824" y="12" width="22.8062" height="26.3136" viewBox="0 0 22.8062 26.3136" fill="none">
<path d="M19.3766 19.6437C18.743 20.2602 17.9771 20.817 17.2091 21.2586C16.8145 21.4847 14.9521 22.2335 14.8817 22.3423C14.7665 22.5215 14.8582 23.1018 14.7835 23.4175C13.8065 27.5498 8.29821 27.2106 7.90567 22.7157C7.80327 21.5317 7.7926 19.0122 8.25127 17.9519C9.37767 15.345 12.2257 16.5311 14.1926 15.0485C18.1243 12.0831 14.9435 5.48688 9.90247 7.13594C5.37127 8.61861 8.31314 14.4213 3.78621 14.8735C0.315273 15.2213 -0.360994 11.9274 0.15314 9.21594C1.71474 0.98981 11.5025 -2.74566 18.2289 2.26554C23.8267 6.43621 24.3878 14.7626 19.3723 19.6437H19.3766Z" fill="#9838D0"/>
</svg>
<svg x="27.4432" y="42.8352" width="9.16053" height="9.16053" viewBox="0 0 9.16053 9.16053" fill="none">
<path d="M4.58027 9.16053C7.10988 9.16053 9.16053 7.10988 9.16053 4.58027C9.16053 2.05066 7.10988 0 4.58027 0C2.05066 0 0 2.05066 0 4.58027C0 7.10988 2.05066 9.16053 4.58027 9.16053Z" fill="#9838D0"/>
</svg>
</svg>
