<svg preserveAspectRatio="none" width="10" height="7" viewBox="0 0 10 7" fill="none" xmlns="http://www.w3.org/2000/svg">
<path d="M0 0.602857C0.115138 0.443934 0.205512 0.266553 0.349988 0.170835C0.81024 -0.134089 1.13494 0.0227045 1.47648 0.417621C1.83218 0.828912 2.18882 1.23939 2.54527 1.65003C2.9965 2.16986 3.44688 2.69044 3.89969 3.2089C4.21694 3.57214 4.5379 3.93214 4.85664 4.29407C4.95948 4.41085 5.05585 4.39642 5.152 4.28543C5.77853 3.56227 6.40349 2.83775 7.03301 2.1172C7.38217 1.71755 7.73979 1.32528 8.09237 0.928603C8.29368 0.702107 8.48454 0.465739 8.69443 0.247591C8.9848 -0.0542084 9.38649 -0.076814 9.72672 0.161801C9.79423 0.209148 9.88602 0.221868 9.98331 0.25058C10 0.515369 10 0.780136 10 1.06442C9.74383 1.38872 9.49196 1.69724 9.23057 1.99748C8.72819 2.57454 8.22172 3.14806 7.71443 3.72083C7.35308 4.12882 6.98567 4.53146 6.62465 4.93975C6.36463 5.23382 6.10933 5.53211 5.85433 5.83058C5.4327 6.32411 4.6982 6.48588 4.15045 5.79916C3.87573 5.45474 3.57263 5.13286 3.28054 4.80241C2.7463 4.19799 2.21121 3.59432 1.67544 2.99126C1.42797 2.71272 1.17821 2.43621 0.929198 2.15905C0.675552 1.87674 0.416541 1.599 0.170903 1.30989C0.102261 1.2291 0.072603 1.11519 0.0125309 1.00854C1.24176e-09 0.874328 0 0.748053 0 0.602857Z" fill="#999999"/>
</svg>
