<svg preserveAspectRatio="none" width="100%" height="100%" overflow="visible" style="display: block;" viewBox="0 0 106.46 20.0078" fill="none" xmlns="http://www.w3.org/2000/svg">
<g id="logo container">
<path id="Vector" d="M57 19.8815V12.9736H58.4677L60.6229 17.3552L62.7471 12.9736H64.2148V19.8815H62.9789V15.1157L61.0941 18.8947H60.1208L58.2359 15.1157V19.8815H57Z" fill="var(--fill-0, white)"/>
<path id="Vector_2" d="M67.6316 18.9052C67.9535 18.9052 68.2341 18.7816 68.471 18.5342C68.7079 18.2868 68.8289 17.921 68.8289 17.4342C68.8289 16.9474 68.7105 16.5816 68.471 16.3342C68.2315 16.0868 67.956 15.9631 67.6419 15.9631C67.3278 15.9631 67.0316 16.0868 66.7973 16.3342C66.563 16.5816 66.4446 16.9474 66.4446 17.4342C66.4446 17.921 66.563 18.2868 66.7973 18.5342C67.0316 18.7816 67.3097 18.9052 67.6316 18.9052ZM67.6316 20C67.1681 20 66.751 19.8921 66.3802 19.6737C66.0094 19.4579 65.7185 19.1553 65.5022 18.771C65.2859 18.3868 65.1777 17.9395 65.1777 17.4342C65.1777 16.9289 65.2859 16.4816 65.5073 16.0974C65.7262 15.7131 66.0197 15.4105 66.3905 15.1947C66.7613 14.9763 67.1758 14.8684 67.6419 14.8684C68.1079 14.8684 68.5122 14.9763 68.883 15.1947C69.2538 15.4105 69.5447 15.7131 69.761 16.0974C69.9773 16.4816 70.0855 16.9289 70.0855 17.4342C70.0855 17.9395 69.9773 18.3868 69.761 18.771C69.5447 19.1553 69.2512 19.4579 68.8778 19.6737C68.5045 19.8921 68.0899 20 67.6316 20Z" fill="var(--fill-0, white)"/>
<path id="Vector_3" d="M73.5566 18.8947C73.9505 18.8947 74.275 18.7604 74.5325 18.4894C74.79 18.221 74.9187 17.871 74.9187 17.4447C74.9187 17.0183 74.79 16.6657 74.5325 16.3894C74.275 16.1131 73.9505 15.9762 73.5566 15.9762C73.1626 15.9762 72.8305 16.1131 72.5756 16.3868C72.3206 16.6604 72.1945 17.0104 72.1945 17.4368C72.1945 17.8631 72.3206 18.2157 72.5756 18.4894C72.8305 18.7631 73.1575 18.8999 73.5566 18.8999M73.8167 20.0052C73.4562 20.0052 73.142 19.9368 72.8691 19.7973C72.5987 19.6578 72.3799 19.4657 72.2125 19.2157L72.0786 19.8868H70.9766V12.7815H72.2125V15.692C72.367 15.4762 72.5704 15.2841 72.8253 15.121C73.0802 14.9578 73.4098 14.8736 73.8141 14.8736C74.2647 14.8736 74.6664 14.9841 75.0217 15.2078C75.377 15.4315 75.6551 15.7368 75.8611 16.1262C76.0671 16.5157 76.1701 16.9552 76.1701 17.4499C76.1701 17.9447 76.0671 18.3815 75.8611 18.7683C75.6551 19.1525 75.3745 19.4552 75.0217 19.6762C74.6689 19.8973 74.2647 20.0078 73.8141 20.0078" fill="var(--fill-0, white)"/>
<path id="Vector_4" d="M77.0715 14.9868H78.3074V19.8816H77.0715V14.9868ZM77.6895 14.2263C77.4629 14.2263 77.28 14.1579 77.1333 14.0184C76.9891 13.8789 76.917 13.7053 76.917 13.4947C76.917 13.2842 76.9891 13.1105 77.1333 12.9763C77.2775 12.8421 77.4629 12.7737 77.6895 12.7737C77.916 12.7737 78.0989 12.8421 78.2456 12.9763C78.3898 13.1105 78.4645 13.2842 78.4645 13.4947C78.4645 13.7053 78.3924 13.8789 78.2456 14.0184C78.1014 14.1579 77.916 14.2263 77.6895 14.2263Z" fill="var(--fill-0, white)"/>
<path id="Vector_5" d="M80.6764 12.7764H79.4404V19.8816H80.6764V12.7764Z" fill="var(--fill-0, white)"/>
<path id="Vector_6" d="M81.8117 14.9868H83.0477V19.8816H81.8117V14.9868ZM82.4297 14.2263C82.2031 14.2263 82.0203 14.1579 81.8735 14.0184C81.7293 13.8789 81.6572 13.7053 81.6572 13.4947C81.6572 13.2842 81.7293 13.1105 81.8735 12.9763C82.0177 12.8421 82.2031 12.7737 82.4297 12.7737C82.6563 12.7737 82.8391 12.8421 82.9859 12.9763C83.1301 13.1105 83.2022 13.2842 83.2022 13.4947C83.2022 13.7053 83.1301 13.8789 82.9859 14.0184C82.8417 14.1579 82.6563 14.2263 82.4297 14.2263Z" fill="var(--fill-0, white)"/>
<path id="Vector_7" d="M86.5799 18.8947C86.9791 18.8947 87.3061 18.7578 87.5584 18.4842C87.8133 18.2105 87.9395 17.8605 87.9395 17.4315C87.9395 17.0026 87.8133 16.6526 87.5584 16.3815C87.3035 16.1078 86.9765 15.971 86.5799 15.971C86.1834 15.971 85.8616 16.1052 85.6041 16.3763C85.3466 16.6447 85.2178 16.9947 85.2178 17.421C85.2178 17.8473 85.3466 18.1999 85.6041 18.4763C85.8616 18.7526 86.186 18.892 86.5799 18.892M86.3199 19.9973C85.8693 19.9973 85.4676 19.8868 85.1123 19.6631C84.7569 19.4394 84.4788 19.1342 84.2728 18.7447C84.0669 18.3552 83.9639 17.9157 83.9639 17.421C83.9639 16.9263 84.0669 16.4894 84.2728 16.1026C84.4788 15.7184 84.7595 15.4157 85.1123 15.1947C85.4676 14.9736 85.8693 14.8631 86.3199 14.8631C86.6804 14.8631 86.9945 14.9315 87.2649 15.071C87.5352 15.2105 87.7541 15.4026 87.9215 15.6526V12.771H89.1574V19.8763H88.0579L87.9215 19.1763C87.767 19.3947 87.5635 19.5842 87.3086 19.7499C87.0537 19.9131 86.7241 19.9973 86.3199 19.9973Z" fill="var(--fill-0, white)"/>
<path id="Vector_8" d="M92.1577 19.0131C92.5104 19.0131 92.7859 18.8947 92.9842 18.6579C93.1799 18.421 93.3035 18.1289 93.355 17.7789H92.3018C91.9748 17.7789 91.7379 17.8395 91.5963 17.9605C91.4547 18.0816 91.3826 18.2316 91.3826 18.4105C91.3826 18.6026 91.4547 18.75 91.5963 18.8553C91.7379 18.9605 91.9233 19.0131 92.1551 19.0131M91.8744 20C91.4624 20 91.1251 19.9316 90.8599 19.7974C90.5973 19.6631 90.399 19.4842 90.2703 19.2605C90.1415 19.0368 90.0771 18.7895 90.0771 18.521C90.0771 18.0658 90.2522 17.7 90.5998 17.4158C90.9475 17.1342 91.4702 16.9921 92.1654 16.9921H93.3807V16.8737C93.3807 16.5368 93.288 16.2921 93.1001 16.1342C92.9147 15.9763 92.6804 15.8974 92.4048 15.8974C92.1551 15.8974 91.9362 15.9579 91.7482 16.0789C91.5629 16.2 91.4444 16.3789 91.4006 16.6158H90.193C90.2239 16.2605 90.3424 15.9526 90.5458 15.6895C90.7492 15.4263 91.0118 15.2237 91.3311 15.0816C91.653 14.9395 92.0135 14.8684 92.4126 14.8684C93.0949 14.8684 93.6331 15.0421 94.0244 15.3921C94.4158 15.7421 94.6141 16.2342 94.6141 16.8737V19.8842H93.5635L93.4477 19.0947C93.306 19.3579 93.1078 19.5763 92.8529 19.7447C92.598 19.9158 92.2709 20 91.8718 20" fill="var(--fill-0, white)"/>
<path id="Vector_9" d="M98.0897 18.8947C98.4888 18.8947 98.8158 18.7578 99.0707 18.4842C99.3257 18.2105 99.4518 17.8605 99.4518 17.4315C99.4518 17.0026 99.3257 16.6526 99.0707 16.3815C98.8158 16.1078 98.4888 15.971 98.0897 15.971C97.6906 15.971 97.3713 16.1052 97.1138 16.3763C96.8563 16.6447 96.7276 16.9947 96.7276 17.421C96.7276 17.8473 96.8563 18.1999 97.1138 18.4763C97.3713 18.7526 97.6958 18.892 98.0897 18.892M97.8297 19.9973C97.379 19.9973 96.9774 19.8868 96.622 19.6631C96.2667 19.4394 95.9886 19.1342 95.7826 18.7447C95.5766 18.3552 95.4736 17.9157 95.4736 17.421C95.4736 16.9263 95.5766 16.4894 95.7826 16.1026C95.9886 15.7184 96.2693 15.4157 96.622 15.1947C96.9748 14.9736 97.379 14.8631 97.8297 14.8631C98.1901 14.8631 98.5043 14.9315 98.7772 15.071C99.0476 15.2105 99.2664 15.4026 99.4338 15.6526V12.771H100.67V19.8763H99.5703L99.4338 19.1763C99.2793 19.3947 99.0733 19.5842 98.821 19.7499C98.5661 19.9131 98.2365 19.9973 97.8322 19.9973" fill="var(--fill-0, white)"/>
<path id="Vector_10" d="M104.063 15.8948C103.759 15.8948 103.494 15.9816 103.262 16.1553C103.031 16.329 102.884 16.5948 102.819 16.9501H105.204C105.186 16.629 105.067 16.3711 104.856 16.179C104.645 15.9869 104.38 15.8922 104.066 15.8922M104.055 19.9974C103.571 19.9974 103.144 19.8922 102.771 19.6816C102.397 19.4711 102.104 19.1738 101.893 18.7922C101.681 18.4106 101.573 17.9711 101.573 17.4685C101.573 16.9659 101.679 16.5106 101.887 16.1159C102.096 15.7211 102.387 15.4132 102.758 15.1922C103.128 14.9711 103.564 14.8606 104.066 14.8606C104.537 14.8606 104.951 14.9659 105.312 15.1764C105.672 15.3869 105.953 15.6738 106.157 16.0395C106.36 16.4053 106.46 16.8106 106.46 17.258C106.46 17.3316 106.46 17.4053 106.455 17.4843C106.453 17.5632 106.447 17.6448 106.44 17.7316H102.799C102.825 18.1132 102.956 18.4132 103.19 18.629C103.425 18.8448 103.71 18.9553 104.045 18.9553C104.297 18.9553 104.509 18.8974 104.679 18.7816C104.848 18.6659 104.977 18.5159 105.06 18.3316H106.314C106.223 18.6395 106.074 18.9211 105.866 19.1764C105.657 19.429 105.4 19.629 105.093 19.7738C104.787 19.9185 104.442 19.9895 104.055 19.9895" fill="var(--fill-0, white)"/>
<path id="Vector_11" d="M32.6829 6.43158L31.8204 4.18684C30.6874 1.67105 28.2233 0.0605263 25.5145 0.0605263H17.6456V9.98684C28.2696 10.9447 32.6855 7.47368 32.6855 6.43158" fill="var(--fill-0, white)"/>
<path id="Vector_12" d="M43.3301 0.0605263C40.5646 0.0605263 38.031 1.6 36.6998 4.06053C36.6998 4.06053 35.2552 7.31053 33.8442 8.66316C29.2893 13.0263 17.7435 12.3842 9.49358 12.3842V0H0V19.9368L26.6629 19.9974V12.3395L30.5097 19.9974H37.7297L41.5766 12.3395V19.9974H50.5938V0.0605263H43.3301Z" fill="var(--fill-0, white)"/>
<path id="Vector_13" d="M36.692 4.05868V4.05263C36.692 4.05263 36.692 4.05566 36.692 4.05868Z" fill="var(--fill-0, white)"/>
</g>
</svg>
