<svg preserveAspectRatio="none" width="100%" height="100%" overflow="visible" style="display: block;" viewBox="0 0 20 20" fill="none" xmlns="http://www.w3.org/2000/svg">
<g id="headphones-customer-support-human-1" clip-path="url(#clip0_0_421)">
<path id="Vector" d="M14.4531 20.0833C14.1 19.8137 13.9999 19.4564 14.0001 19.0577C14.0005 18.1275 14.0015 17.1972 13.9997 16.267C13.9988 15.8376 14.1487 15.5062 14.5328 15.27C16.3569 14.1482 17.4331 12.4865 17.7168 10.3994C17.9656 8.56856 17.5522 6.83747 16.383 5.33752C15.6307 4.37231 14.722 3.62645 13.5262 3.17267C13.516 3.34192 13.5018 3.47461 13.5012 3.60736C13.4985 4.14883 13.5339 4.69296 13.4922 5.23121C13.427 6.07057 13.6029 6.77151 14.1439 7.47582C15.048 8.65282 14.9029 10.5421 13.9852 11.7248C13.1855 12.7555 12.1318 13.2551 10.8398 13.2423C10.5217 13.2392 10.3539 13.3615 10.1682 13.6074C9.06507 15.0685 7.60479 15.9801 5.78873 16.2374C5.01317 16.3472 4.2163 16.3172 3.42879 16.3279C3.00639 16.3336 2.7373 16.04 2.75509 15.6513C2.76966 15.3332 3.06048 15.1124 3.45394 15.081C4.38571 15.0065 5.32672 14.9772 6.24461 14.8179C7.32232 14.6309 8.64334 13.6331 9.11557 12.7852C8.16836 12.2494 7.55919 11.4431 7.28551 10.396C6.93659 9.06112 7.31064 7.90067 8.17097 6.85802C8.29814 6.7039 8.40172 6.47817 8.40578 6.28327C8.42824 5.20282 8.41654 4.12167 8.41654 2.88656C7.79103 3.20024 7.22791 3.41861 6.734 3.74253C5.35508 4.64689 4.38202 5.85988 4.1176 7.53687C4.05771 7.91664 4.11126 8.31306 4.07559 8.69839C4.05622 8.90759 3.99825 9.13365 3.88987 9.31056C3.46601 10.0024 3.01427 10.6772 2.57457 11.3594C2.27932 11.8175 2.35145 12.1141 2.81511 12.3644C3.2606 12.6048 3.42616 12.9506 3.2606 13.2947C3.08343 13.663 2.7615 13.7548 2.26667 13.5781C1.17388 13.1878 0.73184 11.7686 1.38493 10.7459C1.62175 10.375 1.80896 9.95622 2.10774 9.64454C2.73886 8.98616 2.75146 8.16822 2.83478 7.3525C2.95769 6.149 3.49561 5.12946 4.25075 4.20477C5.26084 2.96788 6.56734 2.19139 8.0705 1.71983C8.31964 1.64167 8.41492 1.52577 8.4262 1.25538C8.44979 0.689606 8.76765 0.318011 9.31787 0.108267C10.3906 0.0833333 11.4479 0.0833333 12.5594 0.10807C13.1996 0.377512 13.4544 0.837544 13.5102 1.45158C13.5221 1.58146 13.6368 1.7738 13.7474 1.81205C15.283 2.34279 16.4918 3.30705 17.4585 4.58739C18.8912 6.48504 19.3749 8.63832 18.9616 10.9517C18.5725 13.1293 17.4221 14.8706 15.6107 16.1669C15.4716 16.2665 15.3518 16.4912 15.3459 16.662C15.3182 17.4662 15.3174 18.2723 15.3402 19.0767C15.3513 19.467 15.3105 19.8139 15 20.0833C14.8299 20.0833 14.6597 20.0833 14.4531 20.0833ZM9.73842 11.5934C9.82459 11.4699 9.96132 11.3564 9.98803 11.2211C10.0941 10.6841 10.1912 10.1427 10.2425 9.59832C10.2872 9.12463 10.4794 8.85338 10.8806 8.83483C11.3045 8.81524 11.5915 9.0786 11.5717 9.57363C11.5514 10.0783 11.4556 10.5813 11.3719 11.0815C11.3279 11.3441 11.2391 11.5991 11.1675 11.8691C12.3043 11.8392 13.2893 10.8992 13.4022 9.68402C13.5089 8.53532 12.8717 7.46348 11.6412 7.10031C10.3291 6.71305 9.2326 7.35776 8.71249 8.43469C8.16097 9.57665 8.60872 10.8976 9.73842 11.5934ZM9.75 2.2118C9.75 3.40934 9.75 4.60687 9.75 5.74142C10.586 5.74142 11.345 5.74142 12.1353 5.74142C12.1353 4.32614 12.1353 2.85394 12.1353 1.3633C11.3362 1.3633 10.5686 1.3633 9.75 1.3633C9.75 1.63837 9.75 1.88418 9.75 2.2118Z" fill="var(--fill-0, white)"/>
<path id="Vector_2" d="M6.95313 20.0833C6.61033 19.888 6.49054 19.6023 6.49879 19.247C6.5062 18.9281 6.4863 18.6081 6.50534 18.2902C6.53372 17.8163 6.80768 17.5668 7.2462 17.5843C7.62232 17.5993 7.83105 17.861 7.83289 18.3245C7.83444 18.7129 7.86484 19.1051 7.81912 19.488C7.79644 19.678 7.63128 19.8509 7.51529 20.0574C7.32986 20.0833 7.15972 20.0833 6.95313 20.0833Z" fill="var(--fill-0, white)"/>
</g>
<defs>
<clipPath id="clip0_0_421">
<rect width="20" height="20" fill="white"/>
</clipPath>
</defs>
</svg>
