<svg preserveAspectRatio="none" width="100%" height="100%" overflow="visible" style="display: block;" viewBox="0 0 40 40" fill="none" xmlns="http://www.w3.org/2000/svg">
<g id="Filter-Setting-Two-Controller Streamline Ultimate">
<path id="Vector" fill-rule="evenodd" clip-rule="evenodd" d="M13.955 9.63575C12.572 9.79075 11.3241 10.7121 10.7603 11.9947C10.6629 12.216 10.6128 12.364 10.4895 12.7931C10.4741 12.8465 10.3518 12.85 8.51063 12.85C6.44338 12.85 6.30863 12.8582 6.08725 12.998C5.46125 13.3931 5.50188 14.2919 6.16175 14.6442L6.30125 14.7187L8.43063 14.7277L10.56 14.7367L10.6369 14.9552C10.9171 15.7521 11.4938 16.4924 12.2 16.9619C12.9655 17.4709 13.8201 17.6927 14.7476 17.6235C15.9713 17.5321 17.0881 16.8752 17.7713 15.8449C17.9611 15.5585 18.2082 15.0452 18.2625 14.8246L18.2844 14.7355L25.9916 14.7271L33.6987 14.7187L33.835 14.6459C34.0169 14.5487 34.1962 14.3616 34.2795 14.1825C34.3786 13.969 34.3755 13.6002 34.2729 13.4025C34.1664 13.1972 33.994 13.0292 33.7997 12.9414L33.6337 12.8663L26.0055 12.8577L18.3774 12.8494L18.3428 12.7115C18.1638 11.9974 17.8425 11.3991 17.3615 10.8841C16.4903 9.95125 15.2374 9.492 13.955 9.63575ZM13.9713 11.5381C13.3734 11.6638 12.7993 12.1087 12.5298 12.6554C11.9983 13.7337 12.4076 14.9856 13.4704 15.5306C13.7776 15.6884 14.0453 15.7496 14.4263 15.7496C14.7966 15.7496 15.0729 15.6887 15.3682 15.5422C16.1091 15.1747 16.5559 14.4496 16.5545 13.6166C16.5535 13.008 16.3704 12.5668 15.9385 12.1324C15.717 11.9096 15.6057 11.8262 15.385 11.7175C14.9375 11.4969 14.4571 11.436 13.9713 11.5381ZM25.1539 22.3766C23.5983 22.5262 22.2352 23.6309 21.7519 25.1342L21.6628 25.4112L13.9983 25.4275L6.33375 25.4437L6.1875 25.5124C5.58638 25.7941 5.45163 26.588 5.92925 27.0347C6.23875 27.3241 5.36787 27.2942 13.9983 27.3125L21.6628 27.3287L21.7519 27.6057C22.2446 29.1381 23.5971 30.2157 25.2168 30.3665C27.0471 30.5367 28.7711 29.4157 29.372 27.6645C29.419 27.5275 29.4575 27.3927 29.4575 27.365C29.4575 27.3202 29.6884 27.3137 31.5619 27.3055L33.6662 27.2962L33.8199 27.2205C34.0385 27.1129 34.2556 26.8597 34.3204 26.6369C34.4567 26.1676 34.207 25.6611 33.756 25.4924C33.5894 25.43 33.5019 25.4275 31.52 25.4275C29.6609 25.4275 29.4575 25.4224 29.4575 25.3761C29.4575 25.2889 29.2925 24.8382 29.1729 24.5987C28.6434 23.5384 27.7241 22.7866 26.5905 22.4867C26.3236 22.4161 25.6872 22.3324 25.5087 22.3444C25.473 22.3469 25.3134 22.3614 25.1539 22.3766ZM25.2451 24.2555C24.7851 24.3285 24.4017 24.5289 24.0569 24.8765C23.6464 25.2902 23.445 25.7819 23.445 26.37C23.445 26.7404 23.498 26.9705 23.6616 27.3096C23.9184 27.8424 24.3922 28.2444 24.9725 28.4217C25.3409 28.5344 25.8646 28.5256 26.2352 28.4007C26.8837 28.1821 27.4096 27.6494 27.6141 27.0037C27.7174 26.678 27.7174 26.062 27.6141 25.7362C27.4106 25.0937 26.8616 24.5371 26.2371 24.3397C25.9571 24.2514 25.5103 24.2134 25.2451 24.2555Z" fill="var(--fill-0, #9A39D3)"/>
</g>
</svg>
