<svg preserveAspectRatio="none" width="100%" height="100%" overflow="visible" style="display: block;" viewBox="0 0 40 41" fill="none" xmlns="http://www.w3.org/2000/svg">
<g id="Car-Actions-Check-1 Streamline Ultimate">
<path id="Vector" fill-rule="evenodd" clip-rule="evenodd" d="M13.011 6.17896C12.237 6.28158 11.3631 6.74911 10.8074 7.35809C10.4081 7.79577 10.3201 7.97002 9.15775 10.6285L8.05675 13.1467L7.7315 13.3068C6.4425 13.9414 5.53012 15.0956 5.1945 16.5162C5.06862 17.0495 5.04362 17.564 5.05862 19.3175C5.07025 20.6804 5.08037 20.9483 5.12725 21.1329C5.272 21.703 5.48312 22.1022 5.8495 22.4988L5.988 22.6487L6.0005 23.7313C6.01287 24.799 6.01425 24.8182 6.10212 25.1138C6.41587 26.1688 7.23188 26.9358 8.26663 27.1483C8.59575 27.2159 9.209 27.1976 9.51875 27.111C10.3016 26.8922 10.973 26.3224 11.325 25.5784C11.5437 25.1161 11.588 24.8792 11.6066 24.0738L11.6229 23.3668L13.6259 23.3576C15.6125 23.3483 15.6299 23.3476 15.761 23.2757C15.9098 23.1941 16.1009 22.991 16.1846 22.8256C16.2696 22.6576 16.2843 22.2668 16.2126 22.0747C16.1346 21.8653 15.9091 21.6246 15.7008 21.5279L15.5313 21.4494L11.55 21.4327L7.56875 21.4161L7.415 21.3217C7.23237 21.2096 7.11212 21.0712 7.01925 20.8664C6.953 20.7204 6.95125 20.6721 6.95125 18.9676C6.95125 17.0791 6.94762 17.1254 7.13412 16.6024C7.4205 15.799 8.103 15.1576 8.96625 14.8807L9.25875 14.7869L18.895 14.777C25.7536 14.7701 28.6036 14.7778 28.7822 14.8038C29.0965 14.8494 29.4117 14.9583 29.7461 15.1367C30.148 15.3509 30.4581 15.6514 30.7879 16.1458C31.0459 16.5327 31.2666 16.6691 31.635 16.6691C32.0007 16.6691 32.2986 16.4839 32.4631 16.1541C32.5471 15.9859 32.5611 15.9212 32.5605 15.7053C32.5595 15.4099 32.5099 15.294 32.1826 14.823C31.7531 14.205 31.1566 13.6917 30.4632 13.3437L30.0866 13.1546L29.1172 10.9393C27.8815 8.11518 27.8714 8.0934 27.6647 7.78526C27.2219 7.12516 26.4562 6.54937 25.7037 6.3108C25.1624 6.13924 25.2932 6.14244 19.0412 6.14667C15.8416 6.14898 13.128 6.16345 13.011 6.17896ZM13.133 8.12325C12.7261 8.21486 12.2561 8.53172 12.0325 8.86458C11.9767 8.94787 11.556 9.87216 11.0976 10.9187L10.2642 12.8215L19.0538 12.8299C23.888 12.8344 27.8486 12.8327 27.8551 12.826C27.8694 12.8115 26.3034 9.22474 26.1871 9.00565C26.0062 8.66445 25.6124 8.33671 25.1961 8.18091L24.9563 8.09109L19.1388 8.08597C14.5314 8.08187 13.2821 8.08968 13.133 8.12325ZM9.83562 16.7206C9.57562 16.7923 9.42025 16.8866 9.21675 17.096C8.98975 17.3297 8.86562 17.5768 8.81937 17.8874C8.75225 18.3379 8.87863 18.7572 9.17975 19.0836C9.47688 19.4056 9.76962 19.535 10.2012 19.535C10.6369 19.535 10.9219 19.4097 11.2191 19.0876C11.6201 18.6528 11.7171 18.0126 11.4634 17.4736C11.3627 17.2596 11.066 16.9394 10.8765 16.8404C10.5602 16.675 10.1654 16.6295 9.83562 16.7206ZM25.5167 17.6857C23.6657 17.9153 21.9528 18.7676 20.6315 20.1164C19.9073 20.8559 19.4283 21.537 18.9939 22.4455C17.838 24.8628 17.8378 27.6195 18.9935 30.044C20.157 32.4852 22.4494 34.2502 25.07 34.7229C27.7816 35.2121 30.5322 34.3217 32.4792 32.3249C33.7682 31.0027 34.5832 29.335 34.8552 27.4623C34.9384 26.8904 34.9549 25.7861 34.8885 25.247C34.7621 24.2234 34.5161 23.3783 34.0738 22.4488C32.8197 19.8135 30.3589 18.0257 27.5167 17.6848C27.014 17.6246 26.006 17.625 25.5167 17.6857ZM25.6062 19.6194C24.5179 19.7895 23.5011 20.2212 22.6425 20.8776C20.3736 22.612 19.45 25.6437 20.3573 28.379C20.8209 29.7774 21.7214 30.9791 22.9284 31.8107C23.5424 32.2337 24.4719 32.6304 25.2162 32.7871C27.0854 33.1805 29.0431 32.7103 30.5521 31.5056C30.8666 31.2544 31.3505 30.7668 31.6071 30.4424C32.8292 28.8972 33.3146 26.8406 32.9187 24.8842C32.3596 22.1203 30.1839 20.0299 27.4384 19.619C27.0099 19.5548 26.0179 19.5551 25.6062 19.6194ZM29.7149 23.0686C29.517 23.0988 29.3289 23.2007 29.1869 23.3551C29.123 23.4246 28.2684 24.5781 27.288 25.9184L25.5052 28.3553L24.5299 27.3601C23.4303 26.2382 23.369 26.1923 22.9737 26.1923C22.4415 26.1923 22.0481 26.5975 22.0481 27.1458C22.0481 27.5653 22.0779 27.6065 23.2438 28.7994C23.9033 29.4743 24.3471 29.9016 24.4778 29.9875C25.0281 30.3497 25.7595 30.393 26.3311 30.0973C26.7375 29.8871 26.7624 29.8566 28.7637 27.1218C29.8116 25.6898 30.698 24.4512 30.7334 24.3691C30.8131 24.1845 30.8012 23.7806 30.7106 23.5981C30.5235 23.2206 30.1214 23.0068 29.7149 23.0686ZM7.883 23.9728C7.89313 24.5436 7.89875 24.5906 7.97475 24.7432C8.322 25.4402 9.2875 25.4373 9.62238 24.7381C9.71038 24.5544 9.71412 24.5259 9.7245 23.9562L9.73525 23.3649H8.80388H7.87237L7.883 23.9728Z" fill="var(--fill-0, #9A39D3)"/>
</g>
</svg>
