<svg preserveAspectRatio="none" width="100%" height="100%" overflow="visible" style="display: block;" viewBox="0 0 40 40" fill="none" xmlns="http://www.w3.org/2000/svg">
<g id="Navigation-Car-Pin Streamline Ultimate">
<path id="Vector" fill-rule="evenodd" clip-rule="evenodd" d="M24.875 5.038C22.5191 5.25663 20.4605 6.23738 18.8592 7.90375C18.463 8.31613 17.9749 8.93913 17.6691 9.42263C16.7829 10.8241 16.2694 12.5571 16.2612 14.1736C16.2549 15.452 16.7819 17.3844 17.5039 18.7295C17.7684 19.2222 18.0294 19.6494 18.1236 19.7436C18.3346 19.9546 18.6855 20.0619 18.9671 20.0015C19.4185 19.9047 19.7205 19.5208 19.7139 19.0523C19.7109 18.837 19.6521 18.6871 19.4195 18.2998C18.7965 17.2626 18.3632 15.9983 18.1644 14.6375C18.1255 14.3715 18.1476 13.7474 18.2111 13.3141C18.6475 10.3409 20.7925 7.933 23.705 7.14713C24.726 6.87163 26.0167 6.82813 27.0525 7.0345C28.5085 7.32463 29.7472 7.97 30.8111 8.99275C31.4365 9.59388 31.9031 10.2186 32.2821 10.9619C32.7774 11.9334 33.016 12.7946 33.1 13.9144C33.1871 15.0761 32.8815 16.1796 31.9771 17.9688C30.9571 19.9864 29.3377 22.4071 27.2507 25.0338C26.9612 25.3981 26.6924 25.7564 26.6532 25.83C26.5961 25.9371 26.582 26.0186 26.5816 26.24C26.5812 26.4819 26.5921 26.5347 26.6689 26.6652C26.7747 26.8454 26.9747 27.0316 27.1411 27.1053C27.2155 27.138 27.355 27.1604 27.4954 27.1619C27.6909 27.164 27.7565 27.1494 27.9179 27.0675C28.091 26.9796 28.1597 26.9071 28.6567 26.2884C30.9434 23.4418 32.9862 20.3342 33.9382 18.2545C34.6944 16.6027 34.9909 15.4966 34.9905 14.3287C34.99 12.876 34.692 11.6022 34.0401 10.2662C33.604 9.37225 33.0802 8.62375 32.3881 7.90538C31.1281 6.5975 29.6371 5.73025 27.8975 5.29325C27.1672 5.10988 26.6515 5.04688 25.785 5.03488C25.365 5.02913 24.9555 5.03063 24.875 5.038ZM25.005 10.6891C23.5109 10.9729 22.3715 12.0217 21.992 13.4627C21.8799 13.8885 21.8525 14.6156 21.9324 15.0437C22.15 16.2086 22.8481 17.1581 23.9 17.7194C24.2666 17.915 24.7025 18.0483 25.1729 18.1085C26.3627 18.2609 27.5306 17.8334 28.3687 16.9386C29.0252 16.2378 29.3651 15.3686 29.3637 14.3942C29.3621 13.3372 29.0125 12.4926 28.2635 11.736C27.771 11.2385 27.1912 10.9158 26.4675 10.7361C26.1061 10.6464 25.3566 10.6224 25.005 10.6891ZM25.2162 12.563C24.912 12.6206 24.5884 12.8049 24.3187 13.0741C23.9272 13.4651 23.77 13.8384 23.77 14.3765C23.77 14.9448 23.9225 15.3137 24.3211 15.71C24.7937 16.1799 25.375 16.3513 26.0287 16.2134C26.3856 16.1381 26.644 15.994 26.9262 15.7127C27.3091 15.3312 27.4819 14.9288 27.4842 14.4124C27.4867 13.8503 27.3366 13.4858 26.9376 13.0853C26.649 12.7955 26.3657 12.634 26.019 12.5611C25.8167 12.5188 25.446 12.5195 25.2162 12.563ZM5.74312 14.4104C5.55625 14.4489 5.42625 14.5214 5.2775 14.67C5.12212 14.8254 5.0575 14.9464 5.01762 15.1569C4.98237 15.3429 5.0255 15.6396 5.10712 15.772C5.1975 15.9185 5.38662 16.103 5.52125 16.1759C5.65037 16.2457 5.6685 16.2464 8.12125 16.2659C10.1936 16.2823 10.6226 16.2935 10.7862 16.3355C11.4431 16.5041 11.98 16.84 12.3629 17.3219C12.5262 17.5275 12.7455 17.9402 13.6315 19.7109C14.2205 20.8881 14.7025 21.8587 14.7025 21.8677C14.7025 21.8767 12.6732 21.888 10.1931 21.8926L5.68375 21.9012L5.51837 21.9885C5.1945 22.1594 5.00787 22.466 5.00812 22.8268C5.00837 23.2006 5.19462 23.4999 5.5375 23.6779L5.68375 23.7538L13.0775 23.77L20.4712 23.7863L20.715 23.8561C21.7505 24.1526 22.5361 24.9779 22.7435 25.9868C22.7866 26.1968 22.7949 26.5096 22.7942 27.9205C22.7936 29.5221 22.7905 29.6105 22.7299 29.7441C22.6437 29.934 22.5576 30.0377 22.3842 30.161C22.1637 30.3179 21.954 30.3409 20.8495 30.329L19.8952 30.3187L19.7885 30.0234C19.6565 29.6582 19.5811 29.5082 19.3734 29.1975C18.7366 28.2446 17.7594 27.6564 16.6142 27.5365C15.5184 27.4217 14.3925 27.8254 13.6014 28.6164C13.195 29.0229 12.8526 29.577 12.6852 30.0994L12.6097 30.335L9.163 30.3358C5.76712 30.3364 5.71412 30.3374 5.57 30.4026C5.07912 30.6245 4.85812 31.2348 5.09962 31.7018C5.17775 31.8529 5.39662 32.056 5.56512 32.1339L5.71625 32.2038L9.16537 32.2129L12.6144 32.222L12.687 32.4404C12.9416 33.2069 13.496 33.9381 14.15 34.3703C14.5027 34.6033 14.6995 34.701 15.0522 34.8186C16.6627 35.3556 18.4264 34.7552 19.3596 33.3525C19.5609 33.0501 19.7317 32.7019 19.8236 32.4069L19.8819 32.22H20.8475C22.2739 32.22 22.6149 32.1706 23.1679 31.8844C23.9214 31.4942 24.4545 30.793 24.631 29.9598C24.6697 29.7766 24.679 29.3957 24.6795 27.9525C24.6797 26.84 24.6669 26.0835 24.6449 25.9375C24.4246 24.4706 23.6177 23.2755 22.3364 22.5182C21.7981 22.2002 21.1551 21.9927 20.4806 21.9194C20.3009 21.8997 19.4477 21.885 18.4981 21.885L16.8312 21.8849L15.5421 19.3094C14.7576 17.7419 14.1726 16.6129 14.0477 16.425C13.5165 15.6263 12.603 14.943 11.6359 14.6211C10.9655 14.398 10.9851 14.3994 8.3 14.3904C6.96837 14.386 5.81775 14.395 5.74312 14.4104ZM15.84 29.4434C15.1495 29.5929 14.5735 30.1749 14.4266 30.8713C14.2899 31.5198 14.4705 32.1191 14.9457 32.5941C15.7676 33.4156 17.1346 33.2785 17.8032 32.3078C18.0752 31.9128 18.1824 31.3226 18.0691 30.8424C17.8351 29.8496 16.8421 29.2264 15.84 29.4434Z" fill="var(--fill-0, #9A39D3)"/>
</g>
</svg>
