<svg preserveAspectRatio="none" width="100%" height="100%" overflow="visible" style="display: block;" viewBox="0 0 40 40" fill="none" xmlns="http://www.w3.org/2000/svg">
<g id="Conversation-Chat-1 Streamline Ultimate">
<path id="Vector" fill-rule="evenodd" clip-rule="evenodd" d="M7.4875 5.01813C6.32013 5.15825 5.38213 5.98 5.07675 7.13L5.00338 7.40625L4.99213 12.2488C4.9805 17.3074 4.98638 17.5744 5.119 18.0093C5.37463 18.8466 6.059 19.5588 6.87875 19.84C7.26025 19.9709 7.49025 19.9995 8.16188 19.9998L8.755 20V22.4456L8.75513 24.8913L8.84838 25.0863C8.954 25.3066 9.06288 25.4199 9.275 25.5303C9.47888 25.6363 9.91125 25.6385 10.1038 25.5346C10.1788 25.4943 11.0874 24.6085 12.2533 23.4391C14.1636 21.5233 14.2758 21.4043 14.3293 21.2386C14.4801 20.7708 14.2588 20.2831 13.7999 20.073C13.6485 20.0038 13.589 19.9941 13.3908 20.0071C13.2381 20.017 13.1088 20.0476 13.0125 20.0964C12.9149 20.1459 12.4963 20.5388 11.7546 21.2766L10.6431 22.3826L10.6334 20.6145C10.624 18.8958 10.6219 18.8421 10.5553 18.6984C10.4553 18.4821 10.3026 18.3246 10.0934 18.2219L9.90875 18.1313L8.73875 18.115C7.63812 18.0998 7.56013 18.0948 7.4225 18.0306C7.2345 17.9431 7.027 17.7161 6.94825 17.5119C6.88825 17.3565 6.88625 17.1931 6.88625 12.4763V7.60125L6.95475 7.45338C7.05475 7.23713 7.20738 7.07963 7.41663 6.97688L7.60125 6.88625H14.3775H21.1538L21.3049 6.95613C21.4715 7.03313 21.692 7.23675 21.7681 7.38388C21.8695 7.58 21.8845 7.89413 21.8855 9.84375C21.8864 11.7335 21.8885 11.7983 21.9525 11.94C22.2258 12.5449 23.0292 12.6875 23.484 12.212C23.5501 12.1429 23.6379 12.0131 23.679 11.9238L23.7538 11.7613L23.764 9.90875C23.7777 7.42913 23.7519 7.15563 23.4449 6.545C23.0728 5.8045 22.4451 5.30488 21.5925 5.07C21.35 5.00325 21.3131 5.00275 14.5238 4.99788C10.77 4.99513 7.60375 5.00425 7.4875 5.01813ZM18.4927 14.4305C17.9681 14.5436 17.5311 14.7733 17.1484 15.1368C16.7264 15.5376 16.4689 15.9705 16.3207 16.5284L16.249 16.7988L16.2377 21.5925C16.2261 26.5995 16.2336 26.9441 16.3636 27.3656C16.6424 28.2685 17.3525 28.9795 18.2535 29.2578C18.6408 29.3774 19.0298 29.3925 21.7174 29.3925H24.3054L27.0357 32.1211C29.3177 34.4015 29.7929 34.8614 29.9288 34.9213C30.153 35.0201 30.5047 35.0188 30.6997 34.9185C30.8979 34.8165 31.078 34.6346 31.1674 34.4463L31.2444 34.2838L31.2446 31.8429L31.245 29.4019L31.8869 29.3841C32.6019 29.3643 32.8985 29.3161 33.2675 29.1604C34.1159 28.8024 34.725 28.0734 34.9393 27.1601C34.9956 26.9198 34.9988 26.6374 34.9988 21.8525V16.7988L34.9265 16.5225C34.6755 15.563 33.9776 14.8201 33.0216 14.4951L32.7238 14.3938L25.72 14.388C19.6384 14.383 18.6869 14.3886 18.4927 14.4305ZM18.7184 16.328C18.515 16.4076 18.3027 16.6149 18.2062 16.828L18.1312 16.9938V21.8688C18.1312 26.3939 18.1353 26.7538 18.1869 26.8824C18.2929 27.1468 18.5116 27.3606 18.7679 27.4504C18.8495 27.479 19.6849 27.4939 21.9337 27.5065C24.8259 27.5229 24.9949 27.527 25.1025 27.584C25.1651 27.617 26.1479 28.5741 27.2866 29.7108L29.3569 31.7775L29.3666 29.9919C29.3763 28.2083 29.3764 28.2061 29.4504 28.0559C29.5426 27.8686 29.7119 27.6918 29.89 27.5966C30.0218 27.5263 30.0651 27.5231 31.1963 27.5046C31.9653 27.4921 32.4075 27.4723 32.4866 27.4468C32.6888 27.3814 32.9181 27.1746 33.0211 26.965L33.1137 26.7763L33.124 22.015C33.1316 18.5288 33.1244 17.1953 33.0969 17.0355C33.0445 16.7301 32.8853 16.5135 32.5938 16.3511L32.4638 16.2788L25.6713 16.272C19.0271 16.2654 18.8752 16.2666 18.7184 16.328Z" fill="var(--fill-0, #9A39D3)"/>
</g>
</svg>
