<svg preserveAspectRatio="none" width="100%" height="100%" overflow="visible" style="display: block;" viewBox="0 0 36 36" fill="none" xmlns="http://www.w3.org/2000/svg">
<g id="Calendar-Refresh Streamline Ultimate">
<path id="Vector" fill-rule="evenodd" clip-rule="evenodd" d="M10.2282 4.51721C9.9045 4.58111 9.65621 4.833 9.5859 5.16859C9.56509 5.26804 9.54765 5.53612 9.54731 5.7645L9.54675 6.17951L8.07694 6.18964L6.60713 6.19965L6.34984 6.27941C5.43218 6.56347 4.79925 7.2225 4.56615 8.13668L4.50113 8.39138V15.4699V22.5484L4.56615 22.8031C4.8051 23.7399 5.48516 24.428 6.417 24.676L6.66563 24.7421H10.3365H14.0074L14.1536 24.6643C14.6831 24.3826 14.784 23.6897 14.3533 23.2927C14.0971 23.0566 14.4368 23.0767 10.4096 23.0602L6.81188 23.0456L6.68025 22.9773C6.49553 22.8815 6.34433 22.7263 6.26524 22.5515L6.19763 22.4021L6.18986 17.6709L6.1821 12.9397H14.6212H23.0603V13.4318C23.0603 14.0095 23.0884 14.1248 23.2814 14.3396C23.6818 14.785 24.3782 14.6913 24.6643 14.1536L24.7421 14.0074V11.1847C24.7421 8.51153 24.7392 8.35054 24.6868 8.14275C24.4896 7.36211 23.9219 6.68182 23.2292 6.3963C22.7491 6.19852 22.7784 6.20145 21.1691 6.18997L19.7021 6.17962L19.6912 5.66212C19.6819 5.2146 19.6722 5.12662 19.6195 5.01154C19.3603 4.44465 18.6325 4.32574 18.2212 4.78316C18.0281 4.99792 18 5.11324 18 5.69092V6.183H14.6216H11.2433L11.2429 5.66381C11.2427 5.17714 11.2383 5.13551 11.1728 4.99837C11.0464 4.73377 10.8356 4.56997 10.5546 4.518C10.4609 4.50067 10.3768 4.48796 10.3677 4.48976C10.3586 4.49145 10.2958 4.50382 10.2282 4.51721ZM6.74685 7.92787C6.57045 7.99031 6.35051 8.19923 6.26738 8.38316L6.19763 8.53763L6.18896 9.89044L6.1803 11.2433H14.6214H23.0625L23.0541 9.87581C23.046 8.55495 23.0435 8.50388 22.9839 8.37675C22.8977 8.19281 22.6987 8.00775 22.5122 7.93789C22.3646 7.88265 22.2838 7.8795 21.0292 7.8795H19.7021L19.692 8.39869C19.6823 8.89751 19.6787 8.9244 19.6003 9.08404C19.3346 9.62505 18.6227 9.72585 18.2212 9.27934C18.0281 9.06458 18 8.94926 18 8.37158V7.8795H14.6216H11.2433L11.2429 8.39869C11.2427 8.88536 11.2383 8.92699 11.1728 9.06413C11.0484 9.32468 10.835 9.49298 10.5674 9.54169C10.0959 9.62753 9.68243 9.35471 9.5859 8.89391C9.56509 8.79446 9.54765 8.52559 9.54731 8.29631L9.54675 7.8795L8.20856 7.88186C7.09943 7.88366 6.84923 7.89165 6.74685 7.92787ZM23.1366 16.3356C22.7118 16.3705 22.0992 16.4904 21.6678 16.6228C19.5408 17.2758 17.8779 18.8377 17.0872 20.925C16.9836 21.1984 16.972 21.2546 16.9816 21.4369C17.0126 22.0196 17.56 22.3834 18.1024 22.1818C18.3696 22.0825 18.5211 21.9105 18.6585 21.5506C19.4117 19.5786 21.1186 18.2594 23.2127 18.0309C24.3397 17.9081 25.5799 18.1934 26.5638 18.802C27.2558 19.2301 27.8496 19.8067 28.283 20.4716C28.437 20.708 28.7348 21.2735 28.7348 21.3299C28.7348 21.3504 28.3264 21.3633 27.4843 21.3694C26.3828 21.3772 26.2208 21.3843 26.1242 21.4281C25.9514 21.5064 25.8208 21.6193 25.7182 21.7792C25.6357 21.9078 25.6218 21.958 25.6109 22.1659C25.5948 22.4722 25.6647 22.6523 25.8724 22.8391C26.1299 23.0706 26.0046 23.0602 28.5488 23.0602C30.7495 23.0602 30.8135 23.0587 30.9681 23.0008C31.1635 22.9277 31.3632 22.7247 31.4429 22.5183C31.4964 22.3794 31.4989 22.27 31.4989 20.0914V17.8099L31.4313 17.6605C31.2472 17.2539 30.7769 17.0541 30.3677 17.2086C30.1786 17.28 29.9971 17.4414 29.8987 17.6258C29.8335 17.7477 29.8312 17.7801 29.817 18.7312L29.8024 19.7111L29.7218 19.5742C29.4201 19.0608 28.6038 18.1781 28.0463 17.7622C26.6011 16.6843 24.9006 16.1902 23.1366 16.3356ZM17.3711 24.7568C16.958 24.7697 16.8886 24.7791 16.7796 24.8374C16.6119 24.927 16.455 25.0896 16.3802 25.2514C16.3186 25.3846 16.3181 25.4031 16.3181 27.6818C16.3181 29.87 16.3207 29.9846 16.3739 30.1224C16.4996 30.4483 16.7997 30.6468 17.1664 30.6465C17.4139 30.6461 17.5389 30.5968 17.7248 30.4262C17.9796 30.1924 17.9832 30.1745 18 29.0733L18.0146 28.11L18.1244 28.288C18.4043 28.7417 19.0089 29.4248 19.4771 29.8164C20.582 30.7404 21.8388 31.2789 23.3089 31.4581C23.6684 31.502 24.4649 31.5015 24.861 31.457C27.4662 31.1649 29.7201 29.4345 30.695 26.9785C30.857 26.5704 30.8797 26.3239 30.776 26.0982C30.6786 25.8866 30.5821 25.7789 30.4011 25.6805C30.0914 25.5119 29.7163 25.5535 29.4525 25.7857C29.3094 25.9116 29.2389 26.0284 29.1277 26.324C28.8154 27.1534 28.1795 28.0304 27.4822 28.5928C25.9772 29.8068 23.9399 30.133 22.1437 29.4477C21.0725 29.0388 20.1373 28.2808 19.5131 27.3151C19.3707 27.0949 19.0822 26.5418 19.0822 26.489C19.0822 26.4667 19.4524 26.4545 20.3181 26.448C21.5359 26.4387 21.556 26.4376 21.7001 26.3713C22.0211 26.2237 22.2122 25.9368 22.2104 25.605C22.2099 25.5004 22.1919 25.3655 22.1703 25.3051C22.0897 25.0793 21.8445 24.8443 21.6298 24.787C21.5154 24.7566 18.144 24.7326 17.3711 24.7568Z" fill="var(--fill-0, #9A39D3)"/>
</g>
</svg>
