<svg preserveAspectRatio="none" width="100%" height="100%" overflow="visible" style="display: block;" viewBox="0 0 24 24" fill="none" xmlns="http://www.w3.org/2000/svg">
<g id="Shield-Check-1 Streamline Ultimate">
<path id="Vector" fill-rule="evenodd" clip-rule="evenodd" d="M11.1518 3.01148C9.39593 3.0789 7.6413 3.4314 5.99753 4.04693C5.28945 4.31213 5.0085 4.44023 4.8027 4.59188C4.57448 4.7601 4.4034 4.971 4.27778 5.23898C4.11968 5.5764 4.13175 5.26845 4.13175 8.96775C4.13175 12.5831 4.12793 12.4477 4.251 13.1992C4.52723 14.8864 5.25165 16.4517 6.38093 17.8013C6.57135 18.0289 7.24088 18.6981 7.46625 18.8862C7.88588 19.2364 8.34405 19.5635 8.77598 19.8212C9.0771 20.0009 9.75848 20.3369 10.0793 20.4639C10.7463 20.7279 11.1591 20.8773 11.3417 20.9209C11.7619 21.021 12.2381 21.021 12.6583 20.9209C12.8422 20.877 13.2815 20.7179 13.9208 20.4633C14.8273 20.1025 15.727 19.5594 16.5338 18.8862C16.7591 18.6981 17.4287 18.0289 17.6191 17.8013C18.7582 16.4399 19.4898 14.8465 19.759 13.1407C19.8721 12.4241 19.8683 12.5682 19.8683 8.997C19.8683 5.51662 19.871 5.6265 19.7792 5.3745C19.6598 5.0466 19.4267 4.74225 19.1497 4.55265C18.8825 4.3698 17.8903 3.97935 17.0376 3.7215C15.1502 3.15075 13.3089 2.92868 11.1518 3.01148ZM11.131 4.14315C9.32685 4.22565 7.55648 4.61843 5.877 5.30895C5.52383 5.45415 5.49023 5.4723 5.40465 5.5647C5.241 5.74125 5.253 5.47755 5.25308 8.9079C5.25315 10.7788 5.2608 12.0564 5.27303 12.2242C5.40143 13.9915 6.06833 15.6514 7.1976 17.0144C7.39958 17.2582 8.00723 17.8683 8.2365 18.0574C9.08078 18.7542 9.77137 19.1402 11.0365 19.6222C11.625 19.8464 11.7053 19.8668 12 19.8668C12.2947 19.8668 12.375 19.8464 12.9635 19.6222C14.0711 19.2002 14.695 18.8731 15.3943 18.3479C16.4212 17.5765 17.2583 16.5782 17.8384 15.4331C18.3549 14.4132 18.6458 13.357 18.7274 12.2047C18.7547 11.8176 18.7537 5.90108 18.7262 5.793C18.7006 5.69243 18.6232 5.57708 18.5318 5.5035C18.4446 5.43323 17.7702 5.15753 17.2515 4.98008C15.2872 4.30815 13.3412 4.04213 11.131 4.14315ZM11.6978 6.38437C9.75038 6.50715 8.07338 7.92435 7.62578 9.82575C7.53608 10.2067 7.50803 10.4569 7.50765 10.8787C7.50698 11.6093 7.6419 12.1933 7.9626 12.8482C8.33025 13.5992 8.86635 14.2053 9.5625 14.6571C10.8782 15.511 12.5689 15.6098 13.9793 14.9152C15.2393 14.2948 16.1202 13.1631 16.4098 11.7931C16.4702 11.5072 16.4703 11.3163 16.4102 11.2005C16.2299 10.8534 15.8101 10.7667 15.5297 11.0188C15.407 11.1291 15.3655 11.22 15.3143 11.4903C15.1808 12.1949 14.8537 12.8001 14.3372 13.2983C13.862 13.7566 13.3064 14.0472 12.6423 14.1846C12.3561 14.2438 11.8511 14.2583 11.5649 14.2154C10.8697 14.1112 10.2876 13.8489 9.7938 13.4171C8.42498 12.2205 8.24363 10.1906 9.37785 8.763C9.64958 8.421 10.1227 8.04165 10.5101 7.85512C10.9787 7.62952 11.2798 7.5561 11.9708 7.4988C12.1986 7.4799 12.287 7.44435 12.4034 7.32473C12.6743 7.04663 12.5813 6.57593 12.2252 6.42233C12.1197 6.3768 11.9791 6.36667 11.6978 6.38437ZM15.7829 7.37723C15.756 7.3854 15.7034 7.40753 15.6659 7.42635C15.6284 7.44518 14.7883 8.26897 13.7989 9.25702L12.0002 11.0536L11.4297 10.4845C10.8245 9.88072 10.7802 9.84622 10.5797 9.82252C10.3807 9.7989 10.1544 9.91388 10.042 10.0958C9.99315 10.1747 9.98303 10.214 9.97575 10.3531C9.96188 10.6184 9.95993 10.6158 10.7365 11.3869C11.3268 11.973 11.4201 12.058 11.532 12.1112C11.8271 12.2516 12.1714 12.2518 12.468 12.1117C12.5851 12.0563 12.7389 11.9079 14.4986 10.1517C15.8964 8.75655 16.4144 8.22758 16.4479 8.1612C16.5092 8.0397 16.5114 7.81883 16.4527 7.6905C16.3418 7.44855 16.0292 7.3023 15.7829 7.37723Z" fill="var(--fill-0, #9A39D3)"/>
</g>
</svg>
