<svg preserveAspectRatio="none" width="100%" height="100%" overflow="visible" style="display: block;" viewBox="0 0 24 24" fill="none" xmlns="http://www.w3.org/2000/svg">
<g id="Task-List-Check-2 Streamline Ultimate">
<path id="Vector" fill-rule="evenodd" clip-rule="evenodd" d="M5.37975 3.03983C4.50067 3.1797 3.73747 3.72705 3.32347 4.51447C3.14122 4.8612 3.0438 5.19825 3.0108 5.59673C2.9859 5.8977 2.98462 18.1073 3.00952 18.4058C3.03172 18.6722 3.0738 18.8807 3.15127 19.1078C3.4956 20.1171 4.39725 20.8496 5.4657 20.9878C5.69137 21.017 14.5543 21.0176 14.789 20.9885C15.3776 20.9153 15.9032 20.6669 16.3726 20.2398C16.7736 19.8749 20.3202 16.3013 20.4292 16.1525C20.7667 15.6909 20.944 15.2193 20.9887 14.6638C21.0145 14.344 21.0161 5.92117 20.9905 5.61375C20.9564 5.20402 20.8648 4.87898 20.6866 4.53533C20.2666 3.7254 19.5014 3.17527 18.6058 3.03938C18.4408 3.01433 17.5678 3.0108 11.9758 3.01275C6.86475 3.01455 5.50357 3.0201 5.37975 3.03983ZM5.45775 4.17368C5.14252 4.2411 4.86172 4.39687 4.6206 4.63807C4.386 4.87267 4.2366 5.14253 4.16625 5.45858C4.13362 5.60535 4.13175 5.96115 4.13175 12.0097C4.13175 18.1639 4.1331 18.4115 4.16782 18.5597C4.24477 18.8879 4.38922 19.1467 4.62982 19.3873C4.8384 19.5959 5.08657 19.743 5.37975 19.832C5.49112 19.8657 5.7063 19.8677 9.86835 19.873L14.2399 19.8786L14.2475 18.3232C14.2558 16.6014 14.2553 16.6082 14.3861 16.2089C14.5816 15.612 14.9297 15.1412 15.4528 14.7659C15.7632 14.5433 16.1251 14.3914 16.5727 14.296C16.6345 14.2829 17.2567 14.271 18.2692 14.2637L19.8682 14.2523V9.92325V5.59425L19.8236 5.41875C19.6757 4.83712 19.2341 4.3779 18.6478 4.19602L18.5032 4.15125L12.0487 4.14788C6.38175 4.14488 5.5776 4.1481 5.45775 4.17368ZM15.0808 8.21572C15.054 8.2239 15.0013 8.24595 14.9638 8.26478C14.9264 8.2836 13.9348 9.25898 12.7603 10.4323C11.5858 11.6055 10.6165 12.5655 10.6063 12.5655C10.5961 12.5655 10.2496 12.2288 9.83625 11.8174C9.13822 11.1224 9.07672 11.0662 8.97187 11.0276C8.74477 10.9438 8.52255 10.9932 8.36415 11.1625C8.24198 11.2932 8.21002 11.3733 8.2092 11.5515C8.2086 11.6672 8.21805 11.7167 8.25427 11.7886C8.2869 11.8532 8.5341 12.1123 9.11167 12.6871C9.84277 13.4146 9.93727 13.5019 10.0645 13.5673C10.3978 13.7388 10.8128 13.7389 11.147 13.5676C11.2792 13.4998 11.4294 13.3543 13.4882 11.2997C15.1495 9.64193 15.7008 9.0804 15.7394 9.00675C15.8091 8.874 15.8129 8.66002 15.7478 8.52667C15.6861 8.39992 15.5605 8.28263 15.4371 8.23643C15.3319 8.19713 15.1726 8.18782 15.0808 8.21572ZM16.719 15.4227C16.4344 15.4811 16.2118 15.589 15.9883 15.7769C15.7226 16.0002 15.5186 16.3181 15.4276 16.6508C15.3858 16.8033 15.3847 16.8377 15.3781 18.1961C15.3744 18.9603 15.3775 19.5855 15.3849 19.5855C15.3923 19.5855 15.4564 19.5377 15.5273 19.4794C15.6823 19.3517 19.4347 15.5942 19.5253 15.4759L19.5888 15.393L18.2173 15.3948C17.1563 15.3962 16.817 15.4025 16.719 15.4227Z" fill="var(--fill-0, #9A39D3)"/>
</g>
</svg>
