<svg preserveAspectRatio="none" width="100%" height="100%" overflow="visible" style="display: block;" viewBox="0 0 24 24" fill="none" xmlns="http://www.w3.org/2000/svg">
<g id="Car-Repair-Tow-Truck Streamline Ultimate">
<path id="Vector" fill-rule="evenodd" clip-rule="evenodd" d="M4.80683 3.01327C4.49925 3.06345 4.24958 3.27982 4.1604 3.57345C4.12215 3.69945 4.12133 3.7467 4.12643 5.39925L4.13175 7.09575L4.1922 7.203C4.25948 7.3224 4.3974 7.43932 4.51125 7.47345C4.78275 7.55482 5.08403 7.42057 5.20185 7.16572C5.24213 7.07872 5.24355 7.04565 5.253 5.97825L5.26275 4.88032L8.37788 9.55102C10.0912 12.1198 11.493 14.2261 11.493 14.2316C11.493 14.2371 9.9069 14.2442 7.96838 14.2474L4.44375 14.2532L4.28333 14.2962C3.72188 14.4466 3.28005 14.846 3.10013 15.3655C3.00015 15.6542 3.00075 15.6447 3.00075 17.07C3.00075 18.3862 3.00143 18.4082 3.0441 18.5756C3.1995 19.185 3.62123 19.6241 4.23323 19.8138L4.40475 19.867L5.43863 19.8736L6.47243 19.8802L6.51765 19.9912C6.68355 20.3992 7.08188 20.7626 7.52355 20.9091C8.3541 21.1845 9.24353 20.7973 9.6033 20.0038L9.66045 19.8778L12.5672 19.8828L15.4738 19.8877L15.5149 19.9852C15.6548 20.3169 15.9749 20.6562 16.3039 20.8214C16.6749 21.0077 17.1448 21.0484 17.5478 20.9293C17.7215 20.8778 17.978 20.7426 18.127 20.6237C18.2867 20.4963 18.4786 20.2522 18.5769 20.0511L18.6593 19.8828L19.1273 19.8737C19.5643 19.8653 19.6067 19.8613 19.7668 19.8127C20.3706 19.6295 20.8003 19.1851 20.9533 18.5857C20.9894 18.4441 20.9953 18.3512 21.0038 17.7967C21.0186 16.8217 20.973 16.4429 20.786 15.9877C20.5281 15.3602 20.0182 14.8222 19.4003 14.5258C19.1864 14.4231 18.8907 14.3272 18.6944 14.2966L18.5483 14.2739L17.6314 12.4402C17.1272 11.4318 16.6862 10.5623 16.6516 10.5082C16.4654 10.2172 16.1121 9.9453 15.783 9.8397C15.5044 9.75022 15.4685 9.74775 14.4668 9.74775C13.6334 9.74775 13.4913 9.7521 13.3549 9.78157C12.7165 9.91957 12.2392 10.3725 12.0447 11.025C12.0179 11.1149 12.011 11.2784 12.0015 12.0367L11.9903 12.941L8.79458 8.14642C7.03703 5.50935 5.56898 3.31462 5.5323 3.26925C5.38335 3.0852 5.06175 2.97172 4.80683 3.01327ZM4.50608 8.6535C4.33328 8.71785 4.21013 8.84467 4.1505 9.0195C4.12478 9.09517 4.12095 9.21292 4.1259 9.789L4.13175 10.4692L4.18965 10.5739C4.24388 10.6717 4.3512 10.7776 4.44578 10.8265C4.46828 10.8382 4.57575 10.8611 4.68458 10.8774C4.9101 10.9111 4.96973 10.9367 5.0805 11.0475C5.19008 11.1571 5.2392 11.2769 5.2392 11.4345C5.2392 11.7517 5.0034 11.9885 4.6875 11.9885C4.37678 11.9885 4.16228 11.7786 4.13063 11.4436C4.098 11.0986 3.8805 10.8817 3.56558 10.8804C3.3315 10.8794 3.13988 11.0036 3.04298 11.219C2.94675 11.4328 3.0261 11.9258 3.20955 12.2535C3.6945 13.1199 4.80983 13.3885 5.63055 12.8365C5.99048 12.5944 6.2322 12.2381 6.33698 11.7952C6.37943 11.6161 6.37943 11.256 6.33713 11.0764C6.21383 10.5538 5.8722 10.1272 5.40563 9.9135L5.25668 9.84525L5.24993 9.4455C5.24393 9.0876 5.2389 9.03637 5.20185 8.95627C5.15145 8.84722 5.046 8.73862 4.9356 8.68207C4.8312 8.62852 4.61213 8.61397 4.50608 8.6535ZM13.5971 10.8881C13.407 10.9216 13.2347 11.0614 13.1698 11.2347C13.1324 11.3349 13.131 11.3885 13.131 12.7905V14.2425H15.198C16.3349 14.2425 17.265 14.238 17.265 14.2324C17.265 14.227 16.9181 13.5291 16.4942 12.6817C15.9821 11.6581 15.7001 11.1151 15.654 11.0641C15.6158 11.0218 15.5348 10.9627 15.4742 10.933L15.3638 10.8787L14.5253 10.8755C14.0641 10.8737 13.6464 10.8794 13.5971 10.8881ZM4.56533 15.3946C4.38263 15.4379 4.23443 15.5655 4.16865 15.7361C4.13385 15.8263 4.13175 15.9022 4.13175 17.07V18.3082L4.17825 18.4112C4.20593 18.4724 4.2633 18.5488 4.31978 18.5995C4.4853 18.7483 4.47398 18.747 5.53433 18.7469L6.47175 18.7468L6.5085 18.6543C6.69758 18.178 7.16528 17.7872 7.6929 17.6649C7.9827 17.5977 8.36933 17.6255 8.6655 17.7349C9.06563 17.8826 9.42053 18.218 9.6033 18.6211L9.66045 18.7471L12.5672 18.7422L15.4738 18.7372L15.5149 18.6398C15.6548 18.3081 15.9749 17.9688 16.3039 17.8036C16.6749 17.6173 17.1448 17.5766 17.5478 17.6957C17.7215 17.7472 17.978 17.8824 18.127 18.0013C18.2879 18.1296 18.4791 18.3737 18.5769 18.5755L18.6593 18.7454L19.0312 18.7462C19.3217 18.7468 19.423 18.7402 19.4942 18.7159C19.6187 18.6736 19.7645 18.5378 19.8218 18.4112C19.8681 18.3085 19.8683 18.3059 19.8683 17.577C19.8683 16.9348 19.8638 16.8271 19.8323 16.6924C19.7548 16.3616 19.593 16.0827 19.3387 15.8411C19.1091 15.623 18.8768 15.4946 18.5715 15.417C18.455 15.3874 17.8886 15.3845 11.5418 15.381C7.54545 15.3788 4.60785 15.3845 4.56533 15.3946ZM7.94685 18.7678C7.77743 18.8015 7.6263 18.924 7.55138 19.0882C7.49528 19.2113 7.50173 19.4342 7.56503 19.5613C7.66065 19.753 7.84268 19.8643 8.06055 19.8641C8.3787 19.8638 8.6145 19.6288 8.61398 19.3125C8.61345 18.9562 8.29725 18.698 7.94685 18.7678ZM16.9433 18.7677C16.6952 18.8248 16.5045 19.0615 16.5045 19.3125C16.5045 19.4525 16.5674 19.602 16.6652 19.6948C16.7784 19.8023 16.8294 19.8308 16.9539 19.8567C17.2965 19.9278 17.6156 19.6654 17.6156 19.3125C17.6156 18.9588 17.2833 18.6895 16.9433 18.7677Z" fill="var(--fill-0, #9A39D3)"/>
</g>
</svg>
