<svg preserveAspectRatio="none" width="100%" height="100%" overflow="visible" style="display: block;" viewBox="0 0 36 36" fill="none" xmlns="http://www.w3.org/2000/svg">
<g id="Zero-Content-Sign Streamline Ultimate">
<path id="Vector" fill-rule="evenodd" clip-rule="evenodd" d="M17.3702 4.75132C14.3849 4.88149 11.4966 6.04879 9.23962 8.03711C8.15704 8.991 7.22126 10.132 6.51173 11.3633C5.43398 13.2337 4.8492 15.2413 4.75245 17.4034C4.63815 19.9591 5.23834 22.4269 6.51173 24.6367C8.45269 28.0051 11.8168 30.3699 15.6454 31.0572C17.1531 31.3279 18.8469 31.3279 20.3546 31.0572C24.1822 30.37 27.5488 28.0036 29.4882 24.6367C30.7605 22.4279 31.3572 19.9785 31.2474 17.4141C31.1551 15.2578 30.5675 13.2369 29.4882 11.3633C27.4078 7.7517 23.708 5.3145 19.5616 4.82389C19.2498 4.78699 17.9375 4.71004 17.883 4.72545C17.875 4.7277 17.6443 4.73929 17.3702 4.75132ZM17.3565 6.44917C14.8019 6.58114 12.3193 7.59071 10.395 9.28035C9.13646 10.3853 8.14579 11.7117 7.47574 13.1884C6.70106 14.8958 6.34961 16.7358 6.44726 18.5726C6.53006 20.1277 6.85778 21.4615 7.50251 22.8673C8.37551 24.7709 9.81866 26.4516 11.6053 27.6453C13.6304 28.9983 16.1093 29.6777 18.5631 29.5524C20.1088 29.4733 21.4601 29.143 22.8555 28.503C24.7715 27.6241 26.4494 26.1846 27.6469 24.3922C28.9977 22.3704 29.6776 19.8885 29.5524 17.4369C29.4733 15.8912 29.143 14.5399 28.503 13.1445C27.6246 11.2296 26.1844 9.55046 24.3947 8.3547C22.9598 7.39609 21.2038 6.74134 19.4771 6.52117C19.1477 6.47921 18.0912 6.41261 17.8976 6.42161C17.8494 6.42386 17.6059 6.43624 17.3565 6.44917ZM17.5118 10.4271C15.9063 10.5702 14.5077 11.6832 13.9933 13.2274C13.791 13.8347 13.8026 13.5434 13.8026 18C13.8026 21.775 13.8059 22.0372 13.8557 22.2705C14.1228 23.5205 14.8577 24.5024 15.9906 25.1228C17.1347 25.7493 18.8654 25.7493 20.0094 25.1228C20.9834 24.5895 21.6557 23.7997 22.0019 22.7824C22.2094 22.1722 22.1974 22.4669 22.1974 18C22.1974 14.2285 22.1941 13.9626 22.1444 13.7295C21.9517 12.8252 21.471 11.9961 20.8108 11.4294C19.8889 10.638 18.8127 10.3111 17.5118 10.4271ZM17.5478 12.122C16.6179 12.2684 15.8783 12.9071 15.5679 13.8319L15.4991 14.0366L15.4923 17.649C15.4871 20.4261 15.4935 21.2479 15.5198 21.2029C15.5387 21.1707 16.4663 19.2292 17.5812 16.8885L19.6081 12.6326L19.5134 12.5527C19.3672 12.4296 18.9758 12.2455 18.7166 12.1781C18.4466 12.1079 17.8264 12.0781 17.5478 12.122ZM18.4404 19.0304L16.38 23.3596L16.4807 23.4433C16.6313 23.5685 17.019 23.7527 17.2834 23.8248C17.6214 23.9168 18.3772 23.9173 18.713 23.8256C19.5218 23.605 20.1546 22.9948 20.4321 22.1681L20.5009 21.9634L20.5089 18.9506C20.5133 17.2936 20.5133 15.6595 20.5089 15.3195L20.5009 14.7009L18.4404 19.0304Z" fill="var(--fill-0, #9A39D3)"/>
</g>
</svg>
