<svg preserveAspectRatio="none" width="100%" height="100%" overflow="visible" style="display: block;" viewBox="0 0 36 36" fill="none" xmlns="http://www.w3.org/2000/svg">
<g id="Check-Square Streamline Ultimate">
<path id="Vector" fill-rule="evenodd" clip-rule="evenodd" d="M30.4751 4.5135C30.3125 4.55827 30.2335 4.59922 30.1219 4.69665C30.0607 4.74997 27.2516 8.10405 23.8793 12.15C18.5709 18.519 17.7304 19.5148 17.6181 19.5691C17.4305 19.6598 17.3693 19.6739 17.1696 19.6726C16.9472 19.6713 16.7554 19.5929 16.6051 19.4418C16.5438 19.3801 15.642 18.1371 14.6013 16.6796C12.6251 13.9121 12.603 13.8841 12.3414 13.8136C12.179 13.7699 11.8658 13.7943 11.7269 13.8616C11.4748 13.9835 11.2873 14.2533 11.253 14.5437C11.2158 14.8581 11.18 14.8016 13.2321 17.675C14.2773 19.1383 15.1962 20.4122 15.2741 20.5059C15.7131 21.0331 16.4428 21.365 17.1664 21.3667C17.8509 21.3683 18.4492 21.1394 18.9439 20.6869C19.1596 20.4896 31.358 5.8347 31.4306 5.68575C31.5282 5.48516 31.5221 5.19322 31.4156 4.97576C31.3286 4.79779 31.1578 4.63522 30.9796 4.56075C30.8478 4.50574 30.5909 4.48166 30.4751 4.5135ZM8.33288 6.20336C6.8445 6.34061 5.50665 7.28797 4.88329 8.64585C4.75211 8.9316 4.61509 9.36934 4.5531 9.7002C4.50596 9.9522 4.5018 10.5616 4.4928 18.5558C4.48628 24.3867 4.49314 27.2734 4.51406 27.5543C4.67438 29.7027 6.2973 31.3256 8.44571 31.4859C8.72663 31.5069 11.6133 31.5137 17.4442 31.5072C25.4384 31.4982 26.0478 31.494 26.2998 31.4469C27.8665 31.1536 29.0989 30.0918 29.5956 28.6073C29.8177 27.9434 29.8024 28.4381 29.8024 21.9195V16.0841L29.7341 15.9525C29.574 15.644 29.3043 15.4762 28.9688 15.4762C28.6332 15.4762 28.3635 15.644 28.2034 15.9525L28.1351 16.0841L28.1205 21.9049L28.1059 27.7256L28.0252 27.9829C27.8834 28.4348 27.7115 28.7181 27.3674 29.0662C27.0254 29.4121 26.6671 29.6171 26.1928 29.7381L25.9414 29.8024H17.1518H8.36213L8.1135 29.7362C7.18774 29.4898 6.51071 28.8111 6.26231 27.8803L6.19763 27.6379V18.8629C6.19763 10.6254 6.20078 10.0738 6.24859 9.85905C6.34939 9.40646 6.57506 8.99325 6.90503 8.65665C7.23825 8.3169 7.56484 8.11665 8.01709 7.97479L8.27438 7.89412L15.777 7.8795L23.2796 7.86487L23.4113 7.80311C23.6991 7.66823 23.9085 7.34321 23.9085 7.03125C23.9085 6.71929 23.6991 6.39427 23.4113 6.25939L23.2796 6.19762L15.8648 6.19515C11.7865 6.19369 8.39723 6.19751 8.33288 6.20336Z" fill="var(--fill-0, #9A39D3)"/>
</g>
</svg>
