<svg preserveAspectRatio="none" width="100%" height="100%" overflow="visible" style="display: block;" viewBox="0 0 24 24" fill="none" xmlns="http://www.w3.org/2000/svg">
<g id="Tools-Wrench-1 Streamline Ultimate">
<path id="Vector" fill-rule="evenodd" clip-rule="evenodd" d="M14.9153 3.10155C13.859 3.18908 12.9917 3.4857 12.156 4.04505C11.8397 4.25678 11.6179 4.4382 11.3396 4.71278C10.4594 5.5812 9.91073 6.67403 9.72698 7.9245C9.6843 8.21498 9.66878 8.88015 9.69758 9.18593C9.74025 9.64035 9.84637 10.1303 9.99067 10.5399L10.0639 10.7479L6.88733 13.9236C5.14028 15.6702 3.6579 17.1661 3.59317 17.2478C3.30525 17.6113 3.14827 18.0032 3.10845 18.4583C3.05002 19.1259 3.28305 19.7632 3.7599 20.2401C4.23675 20.7169 4.8741 20.95 5.54175 20.8916C5.99685 20.8517 6.38872 20.6948 6.75225 20.4068C6.83392 20.3421 8.3301 18.8594 10.0771 17.112L13.2535 13.9348L13.4655 14.0104C13.8545 14.1492 14.3484 14.2555 14.8226 14.3026C15.1118 14.3313 15.7819 14.3157 16.0657 14.2736C17.8381 14.0112 19.3135 13.0087 20.185 11.4744C20.9502 10.1276 21.1123 8.4726 20.6254 6.97875C20.5457 6.73417 20.4284 6.44663 20.3402 6.2796C20.1991 6.01238 19.8919 5.90865 19.6099 6.033C19.5353 6.06593 19.2472 6.34305 18.1327 7.45403C16.8551 8.72768 16.7374 8.8398 16.607 8.90685C16.1632 9.13515 15.6501 9.05513 15.2975 8.70248C14.9449 8.3499 14.8648 7.83682 15.0932 7.39297C15.1602 7.26262 15.2723 7.14488 16.546 5.86725C17.6569 4.75275 17.9341 4.46468 17.967 4.39013C18.0913 4.10813 17.9876 3.80093 17.7204 3.65978C17.4504 3.5172 16.9952 3.35145 16.6117 3.25613C16.088 3.126 15.3887 3.06225 14.9153 3.10155ZM14.9738 4.23225C14.3407 4.28228 13.7918 4.43513 13.2395 4.7151C12.8141 4.9308 12.5029 5.15558 12.1486 5.50313C11.3969 6.24045 10.9577 7.14525 10.8283 8.22345C10.7945 8.50545 10.8153 9.1407 10.868 9.43388C10.9407 9.83783 11.0033 10.0386 11.2397 10.6253C11.2943 10.7608 11.3013 10.798 11.2934 10.9087C11.2884 10.9788 11.2685 11.0709 11.2492 11.1134C11.2245 11.168 10.2158 12.191 7.8177 14.5935C4.155 18.263 4.35352 18.0532 4.26622 18.3472C4.21957 18.5043 4.21957 18.7949 4.26615 18.9507C4.32592 19.1507 4.41165 19.2944 4.55857 19.4414C4.70557 19.5884 4.84927 19.6741 5.0493 19.7339C5.20507 19.7804 5.4957 19.7804 5.65275 19.7338C5.94682 19.6465 5.73697 19.845 9.4065 16.1823C11.8263 13.7669 12.8317 12.7756 12.8872 12.7505C12.9301 12.731 13.0267 12.7116 13.1017 12.7075C13.2284 12.7005 13.2537 12.7064 13.4528 12.79C14.1081 13.0649 14.5539 13.1662 15.1882 13.184C15.809 13.2014 16.3828 13.1029 16.9432 12.8827C17.1187 12.8137 17.4278 12.6655 17.5143 12.6088C17.5599 12.5789 17.5488 12.5673 15.9727 10.9877C15.0995 10.1127 14.3459 9.3441 14.298 9.27975C13.6811 8.45093 13.681 7.37685 14.2978 6.54975C14.3458 6.4854 14.8457 5.9706 15.4086 5.40578L16.432 4.37888L16.3561 4.35765C15.9846 4.25363 15.3878 4.19948 14.9738 4.23225ZM18.5615 8.62335C17.7792 9.40208 17.4712 9.696 17.3625 9.76778C17.1958 9.8778 16.9735 9.98925 16.8165 10.0416C16.7575 10.0613 16.7029 10.0824 16.6951 10.0886C16.6873 10.0948 17.083 10.5018 17.5744 10.9931L18.4679 11.8865L18.5764 11.7726C18.8785 11.4555 19.1706 11.0215 19.3616 10.6058C19.6885 9.89415 19.8341 9.0387 19.7537 8.30213C19.7245 8.03378 19.6556 7.64925 19.628 7.59997C19.619 7.58392 19.2523 7.93583 18.5615 8.62335Z" fill="var(--fill-0, #9A39D3)"/>
</g>
</svg>
