<?xml version="1.0" encoding="UTF-8"?> <svg xmlns="http://www.w3.org/2000/svg" xmlns:xlink="http://www.w3.org/1999/xlink" id="Camada_2" data-name="Camada 2" viewBox="0 0 333.4 60.56" height="30" width="167" style="height: 30px;"><defs><style> .cls-1 { fill: blue; } .cls-2 { fill: url(#Gradiente_sem_nome_165); } </style><linearGradient id="Gradiente_sem_nome_165" data-name="Gradiente sem nome 165" x1="0" y1="30.15" x2="123.27" y2="30.15" gradientUnits="userSpaceOnUse"><stop offset="0" stop-color="#000037"></stop><stop offset=".11" stop-color="#00003c"></stop><stop offset=".24" stop-color="#00004d"></stop><stop offset=".39" stop-color="#000068"></stop><stop offset=".55" stop-color="#00008e"></stop><stop offset=".72" stop-color="#0000be"></stop><stop offset=".9" stop-color="#0000f9"></stop><stop offset=".92" stop-color="blue"></stop></linearGradient></defs><g id="Camada_1-2" data-name="Camada 1"><g><g><path class="cls-1" d="M127.37,60.12v-23.03s-11.78,23.03-11.78,23.03h-22.12s-11.78-23.03-11.78-23.03v23.03s-27.63,0-27.63,0V.18s24.1,0,24.1,0c8.3,0,15.85,4.84,19.33,12.41l7,15.22,7.55-14.89C116,5.1,124,.18,132.75.18h22.25s0,59.94,0,59.94h-27.63Z"></path><path class="cls-2" d="M112.42,12.18c-10.03,17.44-10.48,26.95-83.34,25.05V0S0,0,0,0v59.94s45.19.36,45.19.36c14.79,0,26.78-1.14,36.5-2.97v-20.23s9.27,18.11,9.27,18.11c31.27-8.6,32.32-25.06,32.32-25.06l-10.85-17.97Z"></path></g><g><path class="cls-1" d="M179.77,60.2v-21.11h4.58l6.72,13.39,6.63-13.39h4.58v21.11h-3.86v-14.56l-5.88,11.55h-3.05l-5.88-11.55v14.56h-3.86Z"></path><path class="cls-1" d="M212.89,60.56c-1.45,0-2.75-.33-3.9-1-1.16-.66-2.07-1.58-2.74-2.76-.67-1.18-1.01-2.54-1.01-4.09s.34-2.91,1.03-4.09c.68-1.18,1.6-2.1,2.76-2.76,1.16-.66,2.46-.99,3.91-.99s2.72.33,3.87.99c1.16.66,2.07,1.58,2.74,2.76.67,1.18,1.01,2.54,1.01,4.09s-.34,2.91-1.01,4.09c-.67,1.18-1.59,2.1-2.76,2.76-1.17.66-2.46,1-3.89,1ZM212.89,57.22c1.01,0,1.88-.38,2.62-1.13.74-.75,1.12-1.87,1.12-3.36s-.37-2.61-1.12-3.36c-.74-.75-1.61-1.13-2.59-1.13s-1.9.38-2.64,1.13c-.73.75-1.1,1.87-1.1,3.36s.37,2.61,1.1,3.36c.73.75,1.6,1.13,2.61,1.13Z"></path><path class="cls-1" d="M232.1,60.56c-1.13,0-2.11-.21-2.96-.63-.84-.42-1.53-1.02-2.05-1.78l-.42,2.05h-3.44v-21.71h3.86v8.9c.48-.66,1.12-1.25,1.91-1.75.79-.5,1.82-.75,3.09-.75,1.41,0,2.66.34,3.77,1.02,1.11.68,1.98,1.62,2.62,2.8s.97,2.53.97,4.04-.32,2.85-.97,4.03-1.52,2.1-2.62,2.77c-1.11.67-2.36,1.01-3.77,1.01ZM231.29,57.19c1.23,0,2.24-.41,3.05-1.24.8-.82,1.21-1.89,1.21-3.2s-.4-2.38-1.21-3.23c-.8-.84-1.82-1.27-3.05-1.27s-2.27.42-3.06,1.25c-.79.83-1.19,1.9-1.19,3.21s.4,2.38,1.19,3.21c.79.83,1.81,1.25,3.06,1.25Z"></path><path class="cls-1" d="M244.1,42.92c-.7,0-1.28-.21-1.73-.63s-.68-.95-.68-1.6.23-1.17.68-1.58,1.03-.62,1.73-.62,1.28.21,1.73.62.68.94.68,1.58-.23,1.18-.68,1.6-1.03.63-1.73.63ZM242.17,60.2v-14.96h3.86v14.96h-3.86Z"></path><path class="cls-1" d="M249.48,60.2v-21.71h3.86v21.71h-3.86Z"></path><path class="cls-1" d="M258.73,42.92c-.7,0-1.28-.21-1.73-.63s-.68-.95-.68-1.6.23-1.17.68-1.58,1.03-.62,1.73-.62,1.28.21,1.73.62.68.94.68,1.58-.23,1.18-.68,1.6-1.03.63-1.73.63ZM256.8,60.2v-14.96h3.86v14.96h-3.86Z"></path><path class="cls-1" d="M270.78,60.56c-1.41,0-2.66-.34-3.77-1.02-1.11-.68-1.98-1.62-2.62-2.8-.64-1.19-.96-2.53-.96-4.04s.32-2.85.96-4.03,1.52-2.1,2.62-2.77c1.11-.67,2.36-1.01,3.77-1.01,1.13,0,2.11.21,2.96.63.84.42,1.53,1.02,2.05,1.78v-8.81h3.86v21.71h-3.44l-.42-2.14c-.48.66-1.12,1.25-1.91,1.75-.79.5-1.82.75-3.09.75ZM271.59,57.19c1.25,0,2.27-.42,3.06-1.25.79-.83,1.19-1.9,1.19-3.21s-.4-2.38-1.19-3.21c-.79-.83-1.81-1.25-3.06-1.25s-2.24.41-3.05,1.24c-.8.82-1.21,1.89-1.21,3.2s.4,2.38,1.21,3.23c.8.84,1.82,1.27,3.05,1.27Z"></path><path class="cls-1" d="M288.05,60.56c-1.29,0-2.34-.21-3.17-.62-.82-.41-1.44-.96-1.84-1.64-.4-.68-.6-1.44-.6-2.26,0-1.39.54-2.51,1.63-3.38s2.71-1.3,4.88-1.3h3.8v-.36c0-1.02-.29-1.78-.87-2.26-.58-.48-1.31-.72-2.17-.72-.78,0-1.47.19-2.05.56-.58.37-.94.92-1.09,1.64h-3.77c.1-1.09.47-2.03,1.1-2.83.63-.8,1.45-1.42,2.46-1.85,1-.43,2.13-.65,3.38-.65,2.13,0,3.81.53,5.04,1.6,1.23,1.07,1.84,2.57,1.84,4.52v9.2h-3.29l-.36-2.41c-.44.81-1.06,1.47-1.85,1.99-.79.52-1.81.78-3.06.78ZM288.92,57.55c1.11,0,1.96-.36,2.58-1.09.61-.72,1-1.62,1.16-2.68h-3.29c-1.03,0-1.76.19-2.2.56-.44.37-.66.83-.66,1.37,0,.58.22,1.04.66,1.36.44.32,1.03.48,1.75.48Z"></path><path class="cls-1" d="M306.55,60.56c-1.41,0-2.66-.34-3.77-1.02-1.11-.68-1.98-1.62-2.62-2.8-.64-1.19-.96-2.53-.96-4.04s.32-2.85.96-4.03,1.52-2.1,2.62-2.77c1.11-.67,2.36-1.01,3.77-1.01,1.13,0,2.11.21,2.96.63.84.42,1.53,1.02,2.05,1.78v-8.81h3.86v21.71h-3.44l-.42-2.14c-.48.66-1.12,1.25-1.91,1.75-.79.5-1.82.75-3.09.75ZM307.36,57.19c1.25,0,2.27-.42,3.06-1.25.79-.83,1.19-1.9,1.19-3.21s-.4-2.38-1.19-3.21c-.79-.83-1.81-1.25-3.06-1.25s-2.24.41-3.05,1.24c-.8.82-1.21,1.89-1.21,3.2s.4,2.38,1.21,3.23c.8.84,1.82,1.27,3.05,1.27Z"></path><path class="cls-1" d="M325.89,60.56c-1.51,0-2.84-.32-4.01-.96-1.17-.64-2.08-1.55-2.74-2.71-.66-1.17-1-2.51-1-4.04s.33-2.93.98-4.13c.65-1.21,1.56-2.15,2.71-2.82,1.16-.67,2.52-1.01,4.09-1.01,1.47,0,2.76.32,3.89.96,1.13.64,2.01,1.52,2.64,2.64.63,1.12.95,2.36.95,3.72,0,.22,0,.45-.02.69-.01.24-.03.49-.05.75h-11.37c.08,1.17.49,2.08,1.22,2.74.73.66,1.62.99,2.67.99.78,0,1.44-.18,1.98-.53.53-.35.93-.81,1.19-1.37h3.92c-.28.95-.75,1.8-1.4,2.58-.65.77-1.46,1.38-2.41,1.82-.96.44-2.04.66-3.24.66ZM325.92,48.02c-.95,0-1.78.27-2.5.8-.72.53-1.19,1.34-1.39,2.43h7.45c-.06-.99-.42-1.77-1.09-2.35-.66-.58-1.49-.87-2.47-.87Z"></path></g></g></g></svg> 