<svg preserveAspectRatio="none" width="100%" height="100%" overflow="visible" style="display: block;" viewBox="0 0 110 21.0962" fill="none" xmlns="http://www.w3.org/2000/svg">
<g id="LM_assine">
<path id="Vector" d="M44.4299 20.9257V12.9099L40.3176 20.9257H32.6036L28.4913 12.9099V20.9257H18.8566V0.0625229H27.2652C30.1619 0.0625229 32.7946 1.7484 34.0068 4.37975L36.4484 9.67723L39.0811 4.49446C40.4635 1.77621 43.2525 0.0625229 46.3054 0.0625229H54.0681V20.9257H44.4334H44.4299Z" fill="var(--fill-0, #9A39D3)"/>
<path id="Vector_2" d="M39.2127 4.24076C35.7152 10.3134 35.4512 14.3073 10.1418 12.9586V0H1.52588e-05V20.8631L15.7615 20.9883C20.9227 20.9883 25.101 20.592 28.4909 19.9524V12.91L31.7244 19.212C42.6338 16.2192 42.9951 10.4907 42.9951 10.4907L39.2092 4.23728L39.2127 4.24076Z" fill="url(#paint0_linear_0_376)"/>
<g id="Group">
<path id="Vector_3" d="M61.2987 20.9705L63.9418 13.7404H65.4284L68.0715 20.9705H66.6683L66.0918 19.2986H63.275L62.688 20.9705H61.3056H61.2987ZM63.6292 18.2662H65.7236L64.6712 15.2594L63.6292 18.2662Z" fill="var(--fill-0, #9A39D3)"/>
<path id="Vector_4" d="M70.7626 21.0958C70.3076 21.0958 69.9082 21.0228 69.5643 20.8733C69.2205 20.7239 68.9461 20.5223 68.7377 20.2581C68.5328 19.9974 68.4078 19.695 68.3661 19.3508H69.6963C69.738 19.5525 69.8491 19.7228 70.0332 19.8618C70.2138 20.0043 70.45 20.0739 70.7383 20.0739C71.0266 20.0739 71.2384 20.0148 71.3739 19.8966C71.5094 19.7784 71.5753 19.6463 71.5753 19.4934C71.5753 19.2744 71.4781 19.1249 71.2871 19.045C71.096 18.965 70.8251 18.8885 70.4813 18.8121C70.2625 18.7634 70.0367 18.7043 69.8109 18.6348C69.5852 18.5653 69.3768 18.4784 69.1858 18.3706C68.9982 18.2628 68.8419 18.1273 68.7273 17.957C68.6092 17.7901 68.5536 17.5815 68.5536 17.3313C68.5536 16.8759 68.7342 16.4935 69.0955 16.1842C69.4567 15.8748 69.9638 15.7184 70.6167 15.7184C71.2211 15.7184 71.7039 15.8609 72.0651 16.1425C72.4263 16.424 72.6416 16.8133 72.7111 17.3104H71.4642C71.3878 16.9315 71.103 16.7438 70.6063 16.7438C70.3597 16.7438 70.1687 16.7925 70.0332 16.8898C69.8978 16.9871 69.8318 17.1053 69.8318 17.2513C69.8318 17.3973 69.9325 17.5224 70.1305 17.6128C70.3285 17.7032 70.5959 17.7832 70.9259 17.8596C71.2836 17.943 71.6135 18.0334 71.9122 18.1342C72.2109 18.235 72.4506 18.381 72.6277 18.5792C72.8049 18.7738 72.8952 19.0554 72.8952 19.4204C72.9021 19.7367 72.8188 20.0217 72.6486 20.2789C72.4784 20.5327 72.2283 20.7343 71.9053 20.8768C71.5823 21.0228 71.2002 21.0923 70.7591 21.0923L70.7626 21.0958Z" fill="var(--fill-0, #9A39D3)"/>
<path id="Vector_5" d="M75.9804 21.0958C75.5254 21.0958 75.126 21.0228 74.7822 20.8733C74.4383 20.7239 74.1639 20.5223 73.9555 20.2581C73.7506 19.9974 73.6256 19.695 73.5839 19.3508H74.9142C74.9558 19.5525 75.067 19.7228 75.2511 19.8618C75.4317 20.0043 75.6679 20.0739 75.9561 20.0739C76.2444 20.0739 76.4563 20.0148 76.5917 19.8966C76.7272 19.7784 76.7932 19.6463 76.7932 19.4934C76.7932 19.2744 76.6959 19.1249 76.5049 19.045C76.3139 18.965 76.043 18.8885 75.6991 18.8121C75.4803 18.7634 75.2545 18.7043 75.0288 18.6348C74.803 18.5653 74.5946 18.4784 74.4036 18.3706C74.216 18.2628 74.0597 18.1273 73.9451 17.957C73.827 17.7901 73.7715 17.5815 73.7715 17.3313C73.7715 16.8759 73.9521 16.4935 74.3133 16.1842C74.6745 15.8748 75.1816 15.7184 75.8346 15.7184C76.4389 15.7184 76.9217 15.8609 77.2829 16.1425C77.6441 16.424 77.8595 16.8133 77.9289 17.3104H76.682C76.6056 16.9315 76.3208 16.7438 75.8241 16.7438C75.5775 16.7438 75.3865 16.7925 75.2511 16.8898C75.1156 16.9871 75.0496 17.1053 75.0496 17.2513C75.0496 17.3973 75.1503 17.5224 75.3483 17.6128C75.5463 17.7032 75.8137 17.7832 76.1437 17.8596C76.5014 17.943 76.8314 18.0334 77.1301 18.1342C77.4288 18.235 77.6684 18.381 77.8456 18.5792C78.0227 18.7738 78.113 19.0554 78.113 19.4204C78.1199 19.7367 78.0366 20.0217 77.8664 20.2789C77.6962 20.5327 77.4461 20.7343 77.1231 20.8768C76.8001 21.0228 76.4181 21.0923 75.977 21.0923L75.9804 21.0958Z" fill="var(--fill-0, #9A39D3)"/>
<path id="Vector_6" d="M79.7553 15.0548C79.5156 15.0548 79.3177 14.9818 79.1614 14.8393C79.0051 14.6933 78.9287 14.5125 78.9287 14.2935C78.9287 14.0745 79.0051 13.8938 79.1614 13.7513C79.3177 13.6087 79.5122 13.5392 79.7553 13.5392C79.9984 13.5392 80.1929 13.6087 80.3492 13.7513C80.5055 13.8938 80.5819 14.0745 80.5819 14.2935C80.5819 14.5125 80.5055 14.6967 80.3492 14.8393C80.1929 14.9853 79.995 15.0548 79.7553 15.0548ZM79.0954 20.971V15.8473H80.4152V20.971H79.0954Z" fill="var(--fill-0, #9A39D3)"/>
<path id="Vector_7" d="M81.6307 20.9706V15.847H82.7977L82.9019 16.716C83.0617 16.4136 83.2875 16.1737 83.5896 15.993C83.8883 15.8157 84.2426 15.7253 84.649 15.7253C85.2811 15.7253 85.7743 15.9234 86.1251 16.3232C86.4759 16.7229 86.6496 17.3069 86.6496 18.0786V20.9706H85.3297V18.2037C85.3297 17.7623 85.2394 17.4251 85.0623 17.1922C84.8817 16.9593 84.6038 16.8411 84.2252 16.8411C83.8467 16.8411 83.548 16.9732 83.3118 17.2339C83.0756 17.4946 82.954 17.8596 82.954 18.3288V20.9741H81.6342L81.6307 20.9706Z" fill="var(--fill-0, #9A39D3)"/>
<path id="Vector_8" d="M90.2066 21.0957C89.6891 21.0957 89.2341 20.9845 88.8347 20.7655C88.4352 20.5465 88.1226 20.2337 87.8969 19.8374C87.6711 19.4376 87.5565 18.9753 87.5565 18.4539C87.5565 17.9325 87.6676 17.4528 87.8934 17.0392C88.1157 16.6255 88.4248 16.3057 88.8208 16.0728C89.2167 15.8434 89.6821 15.7287 90.2205 15.7287C90.7241 15.7287 91.1652 15.84 91.5507 16.0589C91.9362 16.2779 92.2384 16.5803 92.4538 16.9627C92.6691 17.3451 92.7802 17.7691 92.7802 18.2384C92.7802 18.3149 92.7802 18.3948 92.7768 18.4748C92.7733 18.5582 92.7663 18.6451 92.7629 18.732H88.8729C88.9006 19.1318 89.0396 19.4446 89.2896 19.6705C89.5397 19.8965 89.8454 20.0112 90.2031 20.0112C90.4705 20.0112 90.6963 19.9521 90.8804 19.8304C91.061 19.7088 91.1999 19.5524 91.2867 19.3612H92.6274C92.5302 19.6844 92.3704 19.9799 92.1481 20.2441C91.9258 20.5083 91.648 20.7168 91.3215 20.8698C90.995 21.0227 90.6234 21.0957 90.2135 21.0957H90.2066ZM90.217 16.7993C89.894 16.7993 89.6092 16.8897 89.3591 17.0739C89.1125 17.2582 88.9527 17.5328 88.8833 17.9047H91.4326C91.4118 17.5675 91.2867 17.2999 91.061 17.0983C90.8352 16.8967 90.5504 16.7993 90.2135 16.7993H90.217Z" fill="var(--fill-0, #9A39D3)"/>
<path id="Vector_9" d="M96.9968 21.0962C96.2674 21.0962 95.6422 20.9398 95.1178 20.627C94.5933 20.3141 94.1939 19.8761 93.9091 19.3165C93.6278 18.7569 93.4854 18.1068 93.4854 17.3699C93.4854 16.633 93.6278 15.983 93.9091 15.4199C94.1904 14.8568 94.5933 14.4153 95.1178 14.099C95.6422 13.7827 96.2674 13.6228 96.9968 13.6228C97.8651 13.6228 98.5736 13.8383 99.1259 14.2693C99.6781 14.7003 100.025 15.3052 100.164 16.0803H98.7091C98.6188 15.6875 98.4278 15.3782 98.136 15.1557C97.8443 14.9332 97.4553 14.8185 96.976 14.8185C96.3091 14.8185 95.7846 15.0445 95.4061 15.4998C95.0275 15.9552 94.8399 16.5774 94.8399 17.3699C94.8399 18.1625 95.0275 18.7847 95.4061 19.2331C95.7846 19.685 96.3056 19.9109 96.976 19.9109C97.4587 19.9109 97.8443 19.8066 98.136 19.5946C98.4278 19.386 98.6188 19.094 98.7091 18.7221H100.164C100.025 19.466 99.6816 20.0465 99.1259 20.4671C98.5702 20.8877 97.8616 21.0962 96.9968 21.0962V21.0962Z" fill="var(--fill-0, #9A39D3)"/>
<path id="Vector_10" d="M102.744 21.0958C102.303 21.0958 101.942 21.0263 101.661 20.8838C101.379 20.7413 101.168 20.5536 101.032 20.3207C100.893 20.0878 100.827 19.8271 100.827 19.5455C100.827 19.0693 101.011 18.6835 101.383 18.388C101.755 18.0925 102.31 17.9431 103.054 17.9431H104.353V17.8179C104.353 17.4668 104.252 17.2096 104.054 17.0428C103.856 16.8794 103.606 16.796 103.311 16.796C103.043 16.796 102.807 16.8585 102.609 16.9872C102.411 17.1158 102.286 17.3035 102.237 17.5503H100.949C100.984 17.1783 101.109 16.8551 101.324 16.5805C101.539 16.3058 101.821 16.0938 102.164 15.9443C102.508 15.7949 102.894 15.7219 103.321 15.7219C104.05 15.7219 104.623 15.9061 105.044 16.2676C105.464 16.6326 105.672 17.1505 105.672 17.8179V20.9672H104.547L104.422 20.1399C104.269 20.4145 104.061 20.6439 103.786 20.8212C103.516 21.002 103.165 21.0889 102.738 21.0889L102.744 21.0958ZM103.043 20.0634C103.422 20.0634 103.717 19.9383 103.925 19.6915C104.134 19.4447 104.269 19.1388 104.321 18.7738H103.196C102.845 18.7738 102.595 18.8364 102.442 18.965C102.289 19.0936 102.217 19.25 102.217 19.4343C102.217 19.6324 102.293 19.7888 102.442 19.9001C102.595 20.0113 102.793 20.0669 103.04 20.0669L103.043 20.0634Z" fill="var(--fill-0, #9A39D3)"/>
<path id="Vector_11" d="M106.811 20.9707V15.847H107.989L108.114 16.8064C108.298 16.4762 108.552 16.212 108.871 16.0173C109.191 15.8227 109.569 15.7219 110 15.7219V17.1158H109.628C109.34 17.1158 109.083 17.161 108.854 17.2513C108.625 17.3417 108.451 17.4947 108.322 17.7171C108.194 17.9396 108.131 18.242 108.131 18.6348V20.9672H106.811V20.9707Z" fill="var(--fill-0, #9A39D3)"/>
</g>
</g>
<defs>
<linearGradient id="paint0_linear_0_376" x1="0.593937" y1="13.494" x2="41.0089" y2="3.22744" gradientUnits="userSpaceOnUse">
<stop stop-color="#000037"/>
<stop offset="0.13" stop-color="#05023C"/>
<stop offset="0.28" stop-color="#15084D"/>
<stop offset="0.45" stop-color="#301268"/>
<stop offset="0.64" stop-color="#561F8E"/>
<stop offset="0.84" stop-color="#8531BE"/>
<stop offset="0.92" stop-color="#9A39D3"/>
</linearGradient>
</defs>
</svg>
