<?xml version="1.0" encoding="UTF-8"?> <svg xmlns="http://www.w3.org/2000/svg" width="146" height="31" viewBox="0 0 146 31" fill="none"><path d="M58.6987 27.7319V17.1493L53.2656 27.7319H43.0741L37.6411 17.1493V27.7319H24.912V0.187744H36.0213C39.8483 0.187744 43.3265 2.41349 44.928 5.88749L48.1538 12.8814L51.6321 6.03893C53.4584 2.4502 57.1431 0.187744 61.1766 0.187744H71.4323V27.7319H58.7032H58.6987Z" fill="#DD9F03"></path><path d="M51.8064 5.70394C47.1856 13.7212 46.8369 18.9942 13.399 17.2136V0.105164H0V27.6493L20.8235 27.8145C27.6423 27.8145 33.1625 27.2914 37.6411 26.447V17.1493L41.9132 25.4695C56.3263 21.5182 56.8035 13.9553 56.8035 13.9553L51.8018 5.69935L51.8064 5.70394Z" fill="url(#paint0_linear_554_2124)"></path><path d="M84.478 13.9737L80.986 4.42822H82.8536L85.5517 12.1839L88.2636 4.42822H90.1037L86.6117 13.9737H84.4734H84.478Z" fill="#DD9F03"></path><path d="M93.4397 14.1388C92.7559 14.1388 92.1548 13.992 91.6271 13.7029C91.0994 13.4137 90.6864 13.0007 90.3882 12.4776C90.0899 11.9498 89.9385 11.3394 89.9385 10.6511C89.9385 9.96269 90.0853 9.32939 90.3836 8.78328C90.6773 8.23717 91.0857 7.81496 91.6088 7.50749C92.1319 7.2046 92.7468 7.05316 93.458 7.05316C94.1234 7.05316 94.7061 7.20001 95.2155 7.48913C95.7248 7.77825 96.124 8.17751 96.4085 8.68231C96.693 9.18712 96.8399 9.747 96.8399 10.3665C96.8399 10.4675 96.8399 10.5731 96.8353 10.6786C96.8307 10.7887 96.8215 10.9035 96.8169 11.0182H91.6776C91.7143 11.546 91.8979 11.959 92.2282 12.2573C92.5586 12.5556 92.9624 12.707 93.4351 12.707C93.7884 12.707 94.0867 12.629 94.3299 12.4684C94.5685 12.3078 94.752 12.1012 94.8667 11.8488H96.638C96.5095 12.2756 96.2984 12.6657 96.0047 13.0145C95.7111 13.3633 95.344 13.6386 94.9126 13.8405C94.4813 14.0425 93.9903 14.1388 93.4488 14.1388H93.4397ZM93.4534 8.46662C93.0267 8.46662 92.6504 8.58594 92.32 8.82917C91.9942 9.07239 91.7831 9.43494 91.6914 9.92598H95.0595C95.0319 9.48083 94.8667 9.12746 94.5685 8.86129C94.2702 8.59971 93.8939 8.46662 93.4488 8.46662H93.4534Z" fill="#DD9F03"></path><path d="M98.0696 13.9736V7.21376H99.8133V13.9782H98.0696V13.9736ZM98.4918 6.66765V5.44234L101.571 3.78107V5.19912L98.4918 6.67224V6.66765Z" fill="#DD9F03"></path><path d="M104.599 14.1388C103.906 14.1388 103.301 13.9874 102.773 13.6891C102.245 13.3908 101.832 12.9732 101.525 12.4363C101.222 11.8993 101.071 11.2844 101.071 10.596C101.071 9.90762 101.222 9.29267 101.525 8.75574C101.828 8.21881 102.245 7.8012 102.773 7.5029C103.301 7.2046 103.911 7.05316 104.599 7.05316C105.462 7.05316 106.192 7.27803 106.779 7.72777C107.371 8.17751 107.747 8.79704 107.912 9.59097H106.072C105.981 9.26514 105.802 9.00815 105.535 8.81999C105.269 8.63183 104.953 8.54005 104.59 8.54005C104.108 8.54005 103.7 8.72362 103.365 9.08616C103.03 9.4487 102.86 9.95351 102.86 10.6006C102.86 11.2477 103.03 11.7525 103.365 12.115C103.7 12.4776 104.108 12.6611 104.59 12.6611C104.953 12.6611 105.269 12.5693 105.535 12.3904C105.802 12.2114 105.985 11.9498 106.072 11.6148H107.912C107.747 12.3766 107.371 12.9915 106.779 13.455C106.187 13.9186 105.462 14.148 104.599 14.148V14.1388Z" fill="#DD9F03"></path><path d="M111.675 14.139C110.831 14.139 110.179 13.8774 109.72 13.3496C109.262 12.8219 109.032 12.0509 109.032 11.0321V7.21394H110.762V10.8669C110.762 11.4497 110.881 11.8949 111.115 12.2024C111.349 12.5098 111.726 12.6659 112.235 12.6659C112.717 12.6659 113.116 12.4915 113.428 12.1473C113.74 11.8031 113.901 11.3212 113.901 10.7017V7.20935H115.644V13.9738H114.103L113.965 12.8265C113.754 13.2257 113.456 13.5424 113.056 13.781C112.662 14.0197 112.198 14.1344 111.671 14.1344L111.675 14.139Z" fill="#DD9F03"></path><path d="M117.214 13.9737V4.15753H118.957V13.9737H117.214Z" fill="#DD9F03"></path><path d="M123.721 14.1388C123.064 14.1388 122.477 13.9874 121.954 13.6891C121.431 13.3908 121.018 12.9732 120.715 12.4409C120.412 11.9085 120.261 11.2936 120.261 10.5914C120.261 9.88928 120.417 9.27433 120.724 8.74657C121.032 8.21423 121.449 7.79662 121.972 7.49832C122.495 7.20003 123.083 7.04858 123.739 7.04858C124.395 7.04858 124.969 7.20003 125.492 7.49832C126.015 7.79662 126.428 8.21423 126.731 8.74657C127.034 9.27892 127.19 9.89387 127.19 10.5914C127.19 11.289 127.038 11.9085 126.731 12.4409C126.428 12.9732 126.01 13.3862 125.483 13.6891C124.955 13.9874 124.368 14.1388 123.725 14.1388H123.721ZM123.721 12.6244C124.175 12.6244 124.569 12.4546 124.904 12.115C125.239 11.7754 125.409 11.266 125.409 10.596C125.409 9.92599 125.239 9.41659 124.904 9.07699C124.569 8.7374 124.179 8.5676 123.734 8.5676C123.289 8.5676 122.872 8.7374 122.541 9.07699C122.211 9.41659 122.046 9.92599 122.046 10.596C122.046 11.266 122.211 11.7754 122.541 12.115C122.872 12.4546 123.266 12.6244 123.721 12.6244Z" fill="#DD9F03"></path><path d="M131.191 14.1389C130.59 14.1389 130.062 14.0425 129.608 13.8452C129.153 13.6478 128.791 13.3816 128.516 13.0329C128.245 12.6887 128.08 12.2894 128.025 11.8351H129.782C129.837 12.1013 129.984 12.3261 130.227 12.5097C130.466 12.6979 130.778 12.7896 131.159 12.7896C131.54 12.7896 131.82 12.7116 131.998 12.5556C132.177 12.3996 132.265 12.2252 132.265 12.0233C132.265 11.7341 132.136 11.5368 131.884 11.4313C131.631 11.3257 131.273 11.2247 130.819 11.1238C130.53 11.0595 130.232 10.9815 129.934 10.8897C129.635 10.798 129.36 10.6832 129.108 10.541C128.86 10.3987 128.653 10.2197 128.502 9.99485C128.346 9.77457 128.272 9.49922 128.272 9.1688C128.272 8.56762 128.511 8.06281 128.988 7.65438C129.466 7.24594 130.135 7.03943 130.998 7.03943C131.797 7.03943 132.434 7.22758 132.912 7.59931C133.389 7.97103 133.673 8.48501 133.765 9.14126H132.118C132.017 8.64105 131.641 8.39323 130.984 8.39323C130.659 8.39323 130.406 8.45748 130.227 8.58598C130.048 8.71447 129.961 8.8705 129.961 9.06325C129.961 9.25599 130.094 9.4212 130.356 9.54052C130.617 9.65984 130.971 9.76539 131.407 9.86635C131.879 9.97649 132.315 10.0958 132.71 10.2289C133.104 10.362 133.421 10.5547 133.655 10.8163C133.889 11.0733 134.008 11.445 134.008 11.9269C134.018 12.3445 133.907 12.7208 133.683 13.0604C133.458 13.3954 133.127 13.6616 132.701 13.8497C132.274 14.0425 131.769 14.1343 131.186 14.1343L131.191 14.1389Z" fill="#DD9F03"></path><path d="M81.6696 30.793V21.0318H83.2252L83.4179 22.0001C83.6382 21.7019 83.9227 21.4357 84.2852 21.2108C84.6431 20.9859 85.1111 20.8712 85.6847 20.8712C86.3226 20.8712 86.887 21.0272 87.3871 21.3347C87.8873 21.6422 88.2819 22.0644 88.571 22.6013C88.8601 23.1383 89.007 23.7486 89.007 24.4278C89.007 25.107 88.8601 25.7174 88.571 26.2497C88.2819 26.7821 87.8827 27.1997 87.3871 27.5026C86.887 27.8054 86.318 27.9569 85.6847 27.9569C85.1754 27.9569 84.7303 27.8605 84.3494 27.6724C83.9686 27.4796 83.6565 27.2134 83.4225 26.8693V30.7976H81.6788L81.6696 30.793ZM85.3085 26.4287C85.8637 26.4287 86.3226 26.2405 86.6851 25.8688C87.0476 25.4971 87.2311 25.0152 87.2311 24.4232C87.2311 23.8312 87.0476 23.3448 86.6851 22.9639C86.3226 22.583 85.8637 22.3902 85.3085 22.3902C84.7532 22.3902 84.2852 22.5784 83.9227 22.9547C83.5648 23.331 83.3858 23.8175 83.3858 24.4049C83.3858 24.9923 83.5648 25.4787 83.9227 25.855C84.2806 26.2314 84.744 26.4195 85.3085 26.4195V26.4287Z" fill="#DD9F03"></path><path d="M92.4992 27.9567C91.9164 27.9567 91.4392 27.8649 91.0675 27.6767C90.6958 27.4886 90.4159 27.2408 90.2369 26.9333C90.0534 26.6258 89.9662 26.2816 89.9662 25.9099C89.9662 25.2812 90.2094 24.7718 90.7004 24.3817C91.1914 23.9916 91.9256 23.7943 92.9075 23.7943H94.6237V23.6291C94.6237 23.1656 94.4906 22.826 94.2291 22.6057C93.9675 22.39 93.6372 22.2799 93.2471 22.2799C92.8938 22.2799 92.5817 22.3625 92.3202 22.5323C92.0586 22.7021 91.8934 22.9499 91.8292 23.2757H90.1268C90.1727 22.7847 90.3379 22.3579 90.6224 21.9953C90.9069 21.6328 91.2786 21.3529 91.7328 21.1555C92.1871 20.9582 92.6965 20.8618 93.2609 20.8618C94.2245 20.8618 94.9816 21.105 95.5369 21.5823C96.0921 22.0642 96.3674 22.748 96.3674 23.6291V27.7869H94.8807L94.7155 26.6946C94.5136 27.0572 94.2383 27.3601 93.8758 27.5941C93.5178 27.8328 93.0544 27.9475 92.49 27.9475L92.4992 27.9567ZM92.8938 26.5937C93.3939 26.5937 93.784 26.4285 94.0593 26.1026C94.3346 25.7768 94.5136 25.373 94.5824 24.8911H93.0957C92.6322 24.8911 92.3018 24.9737 92.0999 25.1435C91.898 25.3133 91.8017 25.5198 91.8017 25.763C91.8017 26.0246 91.9026 26.2311 92.0999 26.378C92.3018 26.5248 92.5634 26.5983 92.8892 26.5983L92.8938 26.5937Z" fill="#DD9F03"></path><path d="M97.8679 27.7914V21.027H99.4234L99.5886 22.2936C99.8318 21.8577 100.167 21.5089 100.589 21.2519C101.011 20.9949 101.511 20.8618 102.08 20.8618V22.7021H101.589C101.208 22.7021 100.869 22.7617 100.566 22.881C100.263 23.0004 100.034 23.2023 99.8639 23.496C99.6942 23.7897 99.6116 24.189 99.6116 24.7075V27.7869H97.8679V27.7914Z" fill="#DD9F03"></path><path d="M105.311 27.9567C104.728 27.9567 104.251 27.8649 103.879 27.6767C103.507 27.4886 103.227 27.2408 103.049 26.9333C102.865 26.6258 102.778 26.2816 102.778 25.9099C102.778 25.2812 103.021 24.7718 103.512 24.3817C104.003 23.9916 104.737 23.7943 105.719 23.7943H107.435V23.6291C107.435 23.1656 107.302 22.826 107.041 22.6057C106.779 22.39 106.449 22.2799 106.059 22.2799C105.705 22.2799 105.393 22.3625 105.132 22.5323C104.87 22.7021 104.705 22.9499 104.641 23.2757H102.938C102.984 22.7847 103.149 22.3579 103.434 21.9953C103.718 21.6328 104.09 21.3529 104.544 21.1555C104.999 20.9582 105.508 20.8618 106.072 20.8618C107.036 20.8618 107.793 21.105 108.348 21.5823C108.904 22.0642 109.179 22.748 109.179 23.6291V27.7869H107.692L107.527 26.6946C107.325 27.0572 107.05 27.3601 106.687 27.5941C106.329 27.8328 105.866 27.9475 105.302 27.9475L105.311 27.9567ZM105.705 26.5937C106.206 26.5937 106.596 26.4285 106.871 26.1026C107.146 25.7768 107.325 25.373 107.394 24.8911H105.907C105.444 24.8911 105.113 24.9737 104.912 25.1435C104.71 25.3133 104.613 25.5198 104.613 25.763C104.613 26.0246 104.714 26.2311 104.912 26.378C105.113 26.5248 105.375 26.5983 105.701 26.5983L105.705 26.5937Z" fill="#DD9F03"></path><path d="M112.969 27.7916L116.461 18.2462H118.425L121.917 27.7916H120.063L119.302 25.5842H115.58L114.805 27.7916H112.978H112.969ZM116.048 24.2212H118.815L117.425 20.2516L116.048 24.2212Z" fill="#DD9F03"></path><path d="M122.794 30.793V21.0318H124.349L124.542 22.0001C124.762 21.7019 125.047 21.4357 125.409 21.2108C125.767 20.9859 126.235 20.8712 126.809 20.8712C127.447 20.8712 128.011 21.0272 128.511 21.3347C129.011 21.6422 129.406 22.0644 129.695 22.6013C129.984 23.1383 130.131 23.7486 130.131 24.4278C130.131 25.107 129.984 25.7174 129.695 26.2497C129.406 26.7821 129.007 27.1997 128.511 27.5026C128.011 27.8054 127.442 27.9569 126.809 27.9569C126.299 27.9569 125.854 27.8605 125.473 27.6724C125.093 27.4796 124.78 27.2134 124.546 26.8693V30.7976H122.803L122.794 30.793ZM126.432 26.4287C126.988 26.4287 127.447 26.2405 127.809 25.8688C128.172 25.4971 128.355 25.0152 128.355 24.4232C128.355 23.8312 128.172 23.3448 127.809 22.9639C127.447 22.583 126.988 22.3902 126.432 22.3902C125.877 22.3902 125.409 22.5784 125.047 22.9547C124.689 23.331 124.51 23.8175 124.51 24.4049C124.51 24.9923 124.689 25.4787 125.047 25.855C125.405 26.2314 125.868 26.4195 126.432 26.4195V26.4287Z" fill="#DD9F03"></path><path d="M131.407 30.793V21.0318H132.962L133.155 22.0001C133.375 21.7019 133.66 21.4357 134.022 21.2108C134.38 20.9859 134.848 20.8712 135.422 20.8712C136.06 20.8712 136.624 21.0272 137.124 21.3347C137.624 21.6422 138.019 22.0644 138.308 22.6013C138.597 23.1383 138.744 23.7486 138.744 24.4278C138.744 25.107 138.597 25.7174 138.308 26.2497C138.019 26.7821 137.62 27.1997 137.124 27.5026C136.624 27.8054 136.055 27.9569 135.422 27.9569C134.912 27.9569 134.467 27.8605 134.086 27.6724C133.706 27.4796 133.394 27.2134 133.16 26.8693V30.7976H131.416L131.407 30.793ZM135.045 26.4287C135.601 26.4287 136.06 26.2405 136.422 25.8688C136.785 25.4971 136.968 25.0152 136.968 24.4232C136.968 23.8312 136.785 23.3448 136.422 22.9639C136.06 22.583 135.601 22.3902 135.045 22.3902C134.49 22.3902 134.022 22.5784 133.66 22.9547C133.302 23.331 133.123 23.8175 133.123 24.4049C133.123 24.9923 133.302 25.4787 133.66 25.855C134.018 26.2314 134.481 26.4195 135.045 26.4195V26.4287Z" fill="#DD9F03"></path><path d="M142.75 27.9568C142.149 27.9568 141.621 27.8604 141.167 27.6631C140.712 27.4658 140.35 27.1996 140.075 26.8508C139.804 26.5066 139.639 26.1074 139.584 25.653H141.341C141.396 25.9192 141.543 26.1441 141.786 26.3276C142.025 26.5158 142.337 26.6076 142.718 26.6076C143.099 26.6076 143.378 26.5296 143.557 26.3735C143.736 26.2175 143.824 26.0431 143.824 25.8412C143.824 25.5521 143.695 25.3547 143.443 25.2492C143.19 25.1436 142.832 25.0427 142.378 24.9417C142.089 24.8775 141.791 24.7994 141.493 24.7077C141.194 24.6159 140.919 24.5012 140.667 24.3589C140.419 24.2166 140.212 24.0376 140.061 23.8128C139.905 23.5925 139.831 23.3172 139.831 22.9867C139.831 22.3856 140.07 21.8807 140.547 21.4723C141.024 21.0639 141.694 20.8574 142.557 20.8574C143.356 20.8574 143.993 21.0455 144.471 21.4172C144.948 21.789 145.232 22.3029 145.324 22.9592H143.677C143.576 22.459 143.2 22.2112 142.543 22.2112C142.218 22.2112 141.965 22.2754 141.786 22.4039C141.607 22.5324 141.52 22.6884 141.52 22.8812C141.52 23.0739 141.653 23.2391 141.915 23.3585C142.176 23.4778 142.53 23.5833 142.965 23.6843C143.438 23.7944 143.874 23.9137 144.269 24.0468C144.663 24.1799 144.98 24.3727 145.214 24.6342C145.448 24.8912 145.567 25.263 145.567 25.7448C145.576 26.1624 145.466 26.5387 145.241 26.8783C145.017 27.2133 144.686 27.4795 144.26 27.6677C143.833 27.8604 143.328 27.9522 142.745 27.9522L142.75 27.9568Z" fill="#DD9F03"></path><defs><linearGradient id="paint0_linear_554_2124" x1="0.784668" y1="17.9203" x2="54.1749" y2="4.34811" gradientUnits="userSpaceOnUse"><stop stop-color="#000037"></stop><stop offset="0.1" stop-color="#050435"></stop><stop offset="0.23" stop-color="#161031"></stop><stop offset="0.37" stop-color="#31232B"></stop><stop offset="0.52" stop-color="#573E22"></stop><stop offset="0.68" stop-color="#886116"></stop><stop offset="0.85" stop-color="#C28B09"></stop><stop offset="0.92" stop-color="#DD9F03"></stop></linearGradient></defs></svg> 