<?xml version="1.0" encoding="UTF-8"?> <svg xmlns="http://www.w3.org/2000/svg" width="149" height="30" viewBox="0 0 149 30" fill="none"><path d="M60.179 29.1182V18.2698L54.609 29.1182H44.1605L38.5904 18.2698V29.1182H25.5403V0.882263H36.9298C40.8533 0.882263 44.4192 3.16391 46.0611 6.72516L49.3683 13.8947L52.9342 6.88041C54.8066 3.20155 58.5842 0.882263 62.7194 0.882263H73.2338V29.1182H60.1837H60.179Z" fill="#9A39D3"></path><path d="M53.113 6.53701C48.3756 14.7556 48.0181 20.161 13.7369 18.3357V0.797607H0V29.0336L21.3487 29.2029C28.3395 29.2029 33.9989 28.6666 38.5904 27.801V18.2698L42.9702 26.799C57.7468 22.7485 58.2361 14.9956 58.2361 14.9956L53.1083 6.5323L53.113 6.53701Z" fill="url(#paint0_linear_554_2103)"></path><path d="M83.0284 29.1794L86.6085 19.3942H88.622L92.2021 29.1794H90.3015L89.5205 26.9165H85.7053L84.9102 29.1794H83.0378H83.0284ZM86.1851 25.5193H89.0219L87.5964 21.45L86.1851 25.5193Z" fill="#9A39D3"></path><path d="M95.848 29.3487C95.2317 29.3487 94.6907 29.2499 94.225 29.0476C93.7592 28.8453 93.3876 28.5724 93.1053 28.2149C92.8277 27.8621 92.6584 27.4528 92.6019 26.987H94.4037C94.4602 27.2599 94.6107 27.4904 94.8601 27.6786C95.1047 27.8715 95.4246 27.9656 95.8151 27.9656C96.2055 27.9656 96.4925 27.8856 96.676 27.7256C96.8594 27.5657 96.9488 27.3869 96.9488 27.1799C96.9488 26.8836 96.8171 26.6813 96.5584 26.5731C96.2996 26.4649 95.9327 26.3614 95.4669 26.2579C95.1705 26.192 94.8648 26.112 94.559 26.0179C94.2532 25.9238 93.9709 25.8062 93.7122 25.6604C93.4581 25.5146 93.2464 25.3311 93.0912 25.1006C92.9312 24.8748 92.856 24.5925 92.856 24.2538C92.856 23.6375 93.1006 23.12 93.5899 22.7013C94.0791 22.2826 94.766 22.0709 95.6504 22.0709C96.469 22.0709 97.1229 22.2638 97.6121 22.6449C98.1014 23.0259 98.3931 23.5528 98.4872 24.2255H96.7983C96.6948 23.7128 96.309 23.4587 95.6363 23.4587C95.3023 23.4587 95.0435 23.5246 94.8601 23.6563C94.6766 23.788 94.5872 23.948 94.5872 24.1456C94.5872 24.3432 94.7236 24.5125 94.9918 24.6348C95.2599 24.7571 95.6222 24.8654 96.0691 24.9688C96.5537 25.0818 97.0006 25.2041 97.4052 25.3405C97.8097 25.4769 98.1343 25.6745 98.3743 25.9427C98.6142 26.2061 98.7365 26.5872 98.7365 27.0811C98.7459 27.5092 98.633 27.895 98.4025 28.2431C98.172 28.5866 97.8333 28.8594 97.3957 29.0523C96.9582 29.2499 96.4407 29.344 95.8433 29.344L95.848 29.3487Z" fill="#9A39D3"></path><path d="M102.914 29.3487C102.298 29.3487 101.757 29.2499 101.291 29.0476C100.825 28.8453 100.454 28.5724 100.171 28.2149C99.8938 27.8621 99.7244 27.4528 99.668 26.987H101.47C101.526 27.2599 101.677 27.4904 101.926 27.6786C102.171 27.8715 102.491 27.9656 102.881 27.9656C103.272 27.9656 103.559 27.8856 103.742 27.7256C103.925 27.5657 104.015 27.3869 104.015 27.1799C104.015 26.8836 103.883 26.6813 103.624 26.5731C103.366 26.4649 102.999 26.3614 102.533 26.2579C102.237 26.192 101.931 26.112 101.625 26.0179C101.319 25.9238 101.037 25.8062 100.778 25.6604C100.524 25.5146 100.312 25.3311 100.157 25.1006C99.9973 24.8748 99.922 24.5925 99.922 24.2538C99.922 23.6375 100.167 23.12 100.656 22.7013C101.145 22.2826 101.832 22.0709 102.716 22.0709C103.535 22.0709 104.189 22.2638 104.678 22.6449C105.167 23.0259 105.459 23.5528 105.553 24.2255H103.864C103.761 23.7128 103.375 23.4587 102.702 23.4587C102.368 23.4587 102.11 23.5246 101.926 23.6563C101.743 23.788 101.653 23.948 101.653 24.1456C101.653 24.3432 101.79 24.5125 102.058 24.6348C102.326 24.7571 102.688 24.8654 103.135 24.9688C103.62 25.0818 104.067 25.2041 104.471 25.3405C104.876 25.4769 105.2 25.6745 105.44 25.9427C105.68 26.2061 105.803 26.5872 105.803 27.0811C105.812 27.5092 105.699 27.895 105.469 28.2431C105.238 28.5866 104.899 28.8594 104.462 29.0523C104.024 29.2499 103.507 29.344 102.909 29.344L102.914 29.3487Z" fill="#9A39D3"></path><path d="M108.028 21.1724C107.703 21.1724 107.435 21.0736 107.223 20.8807C107.012 20.6831 106.908 20.4385 106.908 20.1421C106.908 19.8458 107.012 19.6011 107.223 19.4082C107.435 19.2154 107.698 19.1213 108.028 19.1213C108.357 19.1213 108.62 19.2154 108.832 19.4082C109.044 19.6011 109.147 19.8458 109.147 20.1421C109.147 20.4385 109.044 20.6878 108.832 20.8807C108.62 21.0783 108.352 21.1724 108.028 21.1724ZM107.134 29.1793V22.245H108.922V29.1793H107.134Z" fill="#9A39D3"></path><path d="M110.568 29.1794V22.245H112.149L112.29 23.4211C112.506 23.0119 112.812 22.6873 113.221 22.4426C113.626 22.2027 114.106 22.0804 114.656 22.0804C115.512 22.0804 116.18 22.3485 116.656 22.8895C117.131 23.4306 117.366 24.2209 117.366 25.2653V29.1794H115.578V25.4346C115.578 24.8372 115.456 24.3808 115.216 24.0656C114.971 23.7505 114.595 23.5905 114.082 23.5905C113.57 23.5905 113.165 23.7693 112.845 24.1221C112.525 24.4749 112.361 24.9689 112.361 25.604V29.1841H110.573L110.568 29.1794Z" fill="#9A39D3"></path><path d="M122.183 29.3487C121.482 29.3487 120.866 29.1981 120.325 28.9017C119.784 28.6054 119.361 28.182 119.055 27.6457C118.749 27.1046 118.594 26.479 118.594 25.7733C118.594 25.0676 118.744 24.4184 119.05 23.8586C119.351 23.2988 119.77 22.866 120.306 22.5508C120.843 22.2403 121.473 22.085 122.202 22.085C122.884 22.085 123.482 22.2356 124.004 22.5319C124.526 22.8283 124.935 23.2376 125.227 23.7551C125.519 24.2726 125.669 24.8465 125.669 25.4816C125.669 25.5851 125.669 25.6933 125.665 25.8015C125.66 25.9144 125.651 26.032 125.646 26.1496H120.377C120.414 26.6907 120.603 27.1141 120.941 27.4198C121.28 27.7256 121.694 27.8809 122.179 27.8809C122.541 27.8809 122.847 27.8009 123.096 27.6362C123.341 27.4716 123.529 27.2599 123.646 27.0011H125.462C125.331 27.4387 125.114 27.8385 124.813 28.1961C124.512 28.5536 124.136 28.8359 123.693 29.0429C123.251 29.2499 122.748 29.3487 122.193 29.3487H122.183ZM122.197 23.534C121.76 23.534 121.374 23.6563 121.035 23.9056C120.701 24.155 120.485 24.5266 120.391 25.03H123.844C123.816 24.5737 123.646 24.2114 123.341 23.9386C123.035 23.6657 122.649 23.534 122.193 23.534H122.197Z" fill="#9A39D3"></path><path d="M131.38 29.3488C130.393 29.3488 129.546 29.1371 128.835 28.7137C128.125 28.2903 127.584 27.6975 127.198 26.9401C126.817 26.1827 126.624 25.303 126.624 24.3056C126.624 23.3083 126.817 22.4286 127.198 21.6664C127.579 20.9043 128.125 20.3069 128.835 19.8788C129.546 19.4507 130.393 19.2343 131.38 19.2343C132.557 19.2343 133.516 19.5259 134.264 20.1093C135.012 20.6926 135.483 21.5112 135.671 22.5603H133.7C133.577 22.0287 133.319 21.61 132.924 21.3089C132.528 21.0078 132.001 20.8526 131.352 20.8526C130.449 20.8526 129.739 21.1584 129.226 21.7746C128.713 22.3909 128.459 23.233 128.459 24.3056C128.459 25.3782 128.713 26.2203 129.226 26.8272C129.739 27.4388 130.444 27.7446 131.352 27.7446C132.006 27.7446 132.528 27.6034 132.924 27.3165C133.319 27.0342 133.577 26.639 133.7 26.1356H135.671C135.483 27.1424 135.017 27.928 134.264 28.4973C133.512 29.0665 132.552 29.3488 131.38 29.3488Z" fill="#9A39D3"></path><path d="M139.166 29.3487C138.569 29.3487 138.08 29.2546 137.699 29.0617C137.318 28.8688 137.031 28.6148 136.847 28.2996C136.659 27.9844 136.57 27.6315 136.57 27.2505C136.57 26.606 136.819 26.0838 137.322 25.6839C137.826 25.284 138.578 25.0818 139.585 25.0818H141.345V24.9124C141.345 24.4372 141.208 24.0891 140.94 23.8633C140.672 23.6422 140.333 23.5293 139.933 23.5293C139.571 23.5293 139.251 23.614 138.983 23.788C138.715 23.9621 138.545 24.2161 138.48 24.5502H136.734C136.781 24.0468 136.951 23.6093 137.242 23.2376C137.534 22.866 137.915 22.579 138.381 22.3767C138.846 22.1744 139.369 22.0756 139.947 22.0756C140.935 22.0756 141.711 22.325 142.281 22.8142C142.85 23.3082 143.132 24.0091 143.132 24.9124V29.1746H141.608L141.439 28.0549C141.232 28.4266 140.949 28.7371 140.578 28.977C140.211 29.2216 139.736 29.3393 139.157 29.3393L139.166 29.3487ZM139.571 27.9515C140.084 27.9515 140.484 27.7821 140.766 27.4481C141.048 27.1141 141.232 26.7001 141.302 26.2061H139.778C139.303 26.2061 138.964 26.2908 138.757 26.4649C138.55 26.6389 138.451 26.8506 138.451 27.0999C138.451 27.3681 138.555 27.5798 138.757 27.7303C138.964 27.8809 139.232 27.9562 139.566 27.9562L139.571 27.9515Z" fill="#9A39D3"></path><path d="M144.675 29.1793V22.245H146.27L146.439 23.5434C146.689 23.0965 147.032 22.7389 147.465 22.4755C147.898 22.2121 148.411 22.0756 148.994 22.0756V23.9621H148.491C148.1 23.9621 147.752 24.0233 147.441 24.1456C147.131 24.2679 146.896 24.4749 146.722 24.776C146.548 25.077 146.463 25.4863 146.463 26.0179V29.1746H144.675V29.1793Z" fill="#9A39D3"></path><defs><linearGradient id="paint0_linear_554_2103" x1="0.804457" y1="19.0602" x2="55.5405" y2="5.1445" gradientUnits="userSpaceOnUse"><stop stop-color="#000037"></stop><stop offset="0.13" stop-color="#05023C"></stop><stop offset="0.28" stop-color="#15084D"></stop><stop offset="0.45" stop-color="#301268"></stop><stop offset="0.64" stop-color="#561F8E"></stop><stop offset="0.84" stop-color="#8531BE"></stop><stop offset="0.92" stop-color="#9A39D3"></stop></linearGradient></defs></svg> 