<?xml version="1.0" encoding="UTF-8"?> <svg xmlns="http://www.w3.org/2000/svg" width="123" height="29" viewBox="0 0 123 29" fill="none"><path d="M60.179 28.3206V17.4722L54.609 28.3206H44.1605L38.5904 17.4722V28.3206H25.5403V0.0846558H36.9298C40.8533 0.0846558 44.4192 2.3663 46.0611 5.92755L49.3683 13.0971L52.9342 6.0828C54.8066 2.40394 58.5842 0.0846558 62.7194 0.0846558H73.2338V28.3206H60.1837H60.179Z" fill="#5293CE"></path><path d="M53.113 5.7394C48.3756 13.958 48.0181 19.3634 13.7369 17.5381V0H0V28.236L21.3487 28.4053C28.3395 28.4053 33.9989 27.869 38.5904 27.0034V17.4722L42.9702 26.0014C57.7468 21.9509 58.2361 14.198 58.2361 14.198L53.1083 5.73469L53.113 5.7394Z" fill="url(#paint0_linear_554_2063)"></path><path d="M83.0284 28.3819V18.5967H89.3465V20.0362H84.8161V22.7742H88.4762V24.1855H84.8161V28.3772H83.0284V28.3819Z" fill="#5293CE"></path><path d="M89.8734 28.3819V21.4476H91.4682L91.6375 22.746C91.8868 22.2991 92.2303 21.9416 92.6631 21.6781C93.0959 21.4147 93.6087 21.2783 94.192 21.2783V23.1647H93.6886C93.2982 23.1647 92.95 23.2259 92.6396 23.3482C92.3291 23.4705 92.0938 23.6775 91.9198 23.9786C91.7457 24.2797 91.661 24.689 91.661 25.2206V28.3772H89.8734V28.3819Z" fill="#5293CE"></path><path d="M98.4025 28.5513C97.7298 28.5513 97.1276 28.396 96.5913 28.0903C96.055 27.7845 95.6316 27.3564 95.3211 26.8107C95.0106 26.2649 94.8554 25.6346 94.8554 24.9148C94.8554 24.195 95.0154 23.5646 95.3306 23.0236C95.6457 22.4779 96.0739 22.0498 96.6102 21.744C97.1465 21.4382 97.7486 21.283 98.4214 21.283C99.0941 21.283 99.6821 21.4382 100.218 21.744C100.755 22.0498 101.178 22.4779 101.489 23.0236C101.799 23.5693 101.959 24.1997 101.959 24.9148C101.959 25.6298 101.804 26.2649 101.489 26.8107C101.178 27.3564 100.75 27.7798 100.209 28.0903C99.668 28.396 99.0659 28.5513 98.4072 28.5513H98.4025ZM98.4025 26.9988C98.8683 26.9988 99.2729 26.8248 99.6163 26.4766C99.9597 26.1285 100.134 25.6063 100.134 24.9195C100.134 24.2326 99.9597 23.7104 99.6163 23.3623C99.2729 23.0142 98.873 22.8401 98.4167 22.8401C97.9603 22.8401 97.5322 23.0142 97.1935 23.3623C96.8548 23.7104 96.6854 24.2326 96.6854 24.9195C96.6854 25.6063 96.8548 26.1285 97.1935 26.4766C97.5322 26.8248 97.9368 26.9988 98.4025 26.9988Z" fill="#5293CE"></path><path d="M106.226 28.3819C105.497 28.3819 104.918 28.2031 104.481 27.8503C104.043 27.4974 103.822 26.867 103.822 25.9638V22.9436H102.632V21.4475H103.822L104.034 19.5893H105.614V21.4475H107.487V22.9436H105.614V25.9779C105.614 26.3119 105.685 26.5424 105.831 26.6695C105.977 26.7965 106.226 26.8576 106.579 26.8576H107.444V28.3819H106.231H106.226Z" fill="#5293CE"></path><path d="M111.043 28.5513C110.446 28.5513 109.957 28.4572 109.576 28.2643C109.194 28.0715 108.908 27.8174 108.724 27.5022C108.536 27.187 108.446 26.8342 108.446 26.4531C108.446 25.8086 108.696 25.2864 109.199 24.8866C109.703 24.4867 110.455 24.2844 111.462 24.2844H113.221V24.115C113.221 23.6399 113.085 23.2918 112.817 23.0659C112.549 22.8448 112.21 22.7319 111.81 22.7319C111.448 22.7319 111.128 22.8166 110.86 22.9907C110.592 23.1647 110.422 23.4188 110.356 23.7528H108.611C108.658 23.2494 108.828 22.8119 109.119 22.4403C109.411 22.0686 109.792 21.7816 110.258 21.5793C110.723 21.3771 111.246 21.2783 111.824 21.2783C112.812 21.2783 113.588 21.5276 114.158 22.0169C114.727 22.5108 115.009 23.2118 115.009 24.115V28.3772H113.485L113.316 27.2576C113.109 27.6292 112.826 27.9397 112.455 28.1797C112.088 28.4243 111.613 28.5419 111.034 28.5419L111.043 28.5513ZM111.448 27.1541C111.961 27.1541 112.361 26.9847 112.643 26.6507C112.925 26.3167 113.109 25.9027 113.179 25.4087H111.655C111.18 25.4087 110.841 25.4934 110.634 25.6675C110.427 25.8416 110.328 26.0533 110.328 26.3026C110.328 26.5707 110.432 26.7824 110.634 26.933C110.841 27.0835 111.109 27.1588 111.443 27.1588L111.448 27.1541Z" fill="#5293CE"></path><path d="M119.365 28.5512C118.749 28.5512 118.208 28.4524 117.742 28.2501C117.277 28.0478 116.905 27.775 116.623 27.4174C116.345 27.0646 116.176 26.6553 116.119 26.1896H117.921C117.978 26.4624 118.128 26.6929 118.378 26.8811C118.622 27.074 118.942 27.1681 119.333 27.1681C119.723 27.1681 120.01 27.0881 120.193 26.9282C120.377 26.7682 120.466 26.5894 120.466 26.3824C120.466 26.0861 120.335 25.8838 120.076 25.7756C119.817 25.6674 119.45 25.5639 118.984 25.4604C118.688 25.3945 118.382 25.3145 118.076 25.2205C117.771 25.1264 117.488 25.0088 117.23 24.8629C116.976 24.7171 116.764 24.5336 116.609 24.3031C116.449 24.0773 116.373 23.795 116.373 23.4563C116.373 22.84 116.618 22.3225 117.107 21.9038C117.597 21.4851 118.283 21.2734 119.168 21.2734C119.986 21.2734 120.64 21.4663 121.13 21.8474C121.619 22.2284 121.911 22.7553 122.005 23.4281H120.316C120.212 22.9153 119.826 22.6612 119.154 22.6612C118.82 22.6612 118.561 22.7271 118.378 22.8588C118.194 22.9906 118.105 23.1505 118.105 23.3481C118.105 23.5457 118.241 23.715 118.509 23.8373C118.777 23.9597 119.14 24.0679 119.587 24.1714C120.071 24.2843 120.518 24.4066 120.923 24.543C121.327 24.6794 121.652 24.877 121.892 25.1452C122.132 25.4086 122.254 25.7897 122.254 26.2837C122.263 26.7118 122.15 27.0975 121.92 27.4456C121.689 27.7891 121.351 28.0619 120.913 28.2548C120.476 28.4524 119.958 28.5465 119.361 28.5465L119.365 28.5512Z" fill="#5293CE"></path><defs><linearGradient id="paint0_linear_554_2063" x1="0.804457" y1="18.2626" x2="55.5405" y2="4.34689" gradientUnits="userSpaceOnUse"><stop stop-color="#000037"></stop><stop offset="0.13" stop-color="#03053C"></stop><stop offset="0.28" stop-color="#0C154D"></stop><stop offset="0.46" stop-color="#1A3068"></stop><stop offset="0.66" stop-color="#2F548E"></stop><stop offset="0.86" stop-color="#4983BE"></stop><stop offset="0.92" stop-color="#5293CE"></stop></linearGradient></defs></svg> 