<svg preserveAspectRatio="none" width="100%" height="100%" overflow="visible" style="display: block;" viewBox="0 0 61.4394 30.2306" fill="none" xmlns="http://www.w3.org/2000/svg">
<g id="placa">
<path id="Rectangle 25" d="M0 1.04997C0 0.478551 0.477513 0.0445391 1.04769 0.0977211L60.489 5.642C61.0212 5.69164 61.4394 6.1497 61.4394 6.68305V29.1807C61.4394 29.7521 60.9618 30.1861 60.3917 30.1329L0.95034 24.5886C0.418155 24.539 0 24.0809 0 23.5476V1.04997Z" fill="var(--fill-0, #9838D0)"/>
<g id="Vector">
<path d="M35.3955 11.9727L34.9089 10.6834C34.2697 9.2342 32.8795 8.2629 31.3512 8.19497L26.9118 7.99767V13.6034C32.9056 14.4108 35.397 12.5613 35.397 11.9727" fill="var(--fill-0, white)"/>
<path d="M41.4019 8.64166C39.8417 8.57232 38.4123 9.37818 37.6612 10.7343C37.6612 10.7343 36.8463 12.5335 36.0502 13.262C33.4804 15.6118 26.9665 14.9597 22.3121 14.7528V7.75904L16.9561 7.521V18.78L31.9987 19.4828V15.1581L34.169 19.5792L38.2423 19.7603L40.4126 15.532V19.8567L45.5 20.0828V8.8238L41.4019 8.64166Z" fill="var(--fill-0, white)"/>
<path d="M37.6565 10.7331V10.7297C37.6565 10.7297 37.6565 10.7314 37.6565 10.7331Z" fill="var(--fill-0, white)"/>
</g>
</g>
</svg>
