<svg preserveAspectRatio="none" width="100%" height="100%" overflow="visible" style="display: block;" viewBox="0 0 16 16" fill="none" xmlns="http://www.w3.org/2000/svg">
<g id="Car-Engine-8 Streamline Ultimate">
<path id="Vector" fill-rule="evenodd" clip-rule="evenodd" d="M5.6229 3.63295C5.4489 3.6672 5.32955 3.81845 5.33035 4.00375C5.33105 4.15455 5.40985 4.27625 5.5495 4.3421L5.6145 4.37275L6.34575 4.37285L7.077 4.373V4.74955V5.1261L6.41725 5.1298L5.7575 5.1335L5.699 5.1684C5.6668 5.1876 5.49135 5.35285 5.3091 5.53565L4.9777 5.868L4.5551 5.8684C4.32265 5.8686 4.08865 5.87445 4.035 5.88135C3.80495 5.91095 3.5963 6.0874 3.52665 6.3112C3.5037 6.38495 3.502 6.44055 3.502 7.13015V7.87H3.125H2.748L2.74785 7.01525L2.74775 6.1605L2.71695 6.0955C2.6783 6.0141 2.6046 5.9427 2.52105 5.90585C2.4365 5.8685 2.30685 5.8679 2.22425 5.90445C2.1494 5.93755 2.06425 6.02265 2.02845 6.10005L2.0005 6.1605V8.247V10.3335L2.0315 10.4022C2.0965 10.546 2.24675 10.6354 2.4024 10.6229C2.54175 10.6117 2.64525 10.5414 2.70825 10.4154L2.748 10.3358V9.4799V8.624H3.1245H3.50105L3.50475 9.39425L3.5085 10.1645L3.54455 10.2415C3.6195 10.4015 3.74965 10.5281 3.90185 10.5892C3.9736 10.6179 3.99455 10.6193 4.4431 10.6258L4.9097 10.6325L5.36195 11.424C5.61065 11.8592 5.8336 12.2356 5.85735 12.2604C5.8811 12.2851 5.92975 12.3209 5.9655 12.3399L6.0305 12.3745L8.143 12.3781C9.58835 12.3806 10.2843 12.3773 10.3465 12.3679C10.5767 12.3329 10.7795 12.1591 10.8483 11.9378C10.87 11.8681 10.873 11.8154 10.873 11.4958V11.133H11.4374H12.0018L12.0062 11.4028L12.0106 11.6725L12.0549 11.7635C12.1144 11.8858 12.2392 12.0106 12.3615 12.0702L12.4525 12.1145L12.654 12.1142C12.8199 12.1139 12.8741 12.1088 12.9604 12.0855C13.2077 12.0184 13.4206 11.8966 13.5946 11.7226C13.8277 11.4894 13.9615 11.2048 13.9928 10.8755C14.0114 10.6792 14.0105 7.8021 13.9918 7.6159C13.9432 7.1335 13.6565 6.7231 13.2197 6.5106C12.9998 6.4036 12.6861 6.35015 12.4958 6.38725C12.2849 6.4284 12.1016 6.59155 12.031 6.80105C12.0074 6.87105 12.004 6.9125 12.004 7.1286V7.376H11.4394H10.8747L10.8706 6.98275L10.8665 6.5895L10.8181 6.488C10.7528 6.3513 10.6497 6.24825 10.513 6.18295L10.4115 6.1345L10.0518 6.1305L9.69195 6.1265L9.37125 5.69865C9.19485 5.46335 9.0272 5.24975 8.99875 5.224C8.8916 5.1272 8.89025 5.127 8.3304 5.127H7.831V4.7504V4.3738L8.57525 4.37015C9.31015 4.36655 9.32015 4.36615 9.3721 4.33835C9.4437 4.3 9.5251 4.2087 9.55315 4.1352C9.5708 4.089 9.57495 4.05005 9.5705 3.9726C9.56525 3.8822 9.5593 3.8629 9.51735 3.80015C9.459 3.7128 9.3682 3.64975 9.2755 3.63225C9.18895 3.6159 5.7063 3.6166 5.6229 3.63295ZM5.6924 6.2183C5.41975 6.49 5.34045 6.56175 5.2829 6.58855L5.2115 6.62175L4.73375 6.62185L4.256 6.622V8.2464V9.8708L4.74025 9.87465L5.2245 9.8785L5.29145 9.9138C5.3283 9.93325 5.3798 9.9742 5.40595 10.0048C5.4321 10.0354 5.6537 10.4115 5.89845 10.8405L6.3434 11.6205L8.2312 11.6238L10.119 11.6271V11.1868C10.119 10.9425 10.1249 10.7154 10.1323 10.6765C10.1498 10.5837 10.2127 10.4932 10.301 10.4337L10.3725 10.3855L11.4125 10.3819C12.5858 10.3777 12.515 10.372 12.6295 10.4791C12.6632 10.5107 12.7037 10.5661 12.7204 10.6037C12.749 10.6679 12.7509 10.6895 12.7556 11.0127C12.7599 11.3099 12.7631 11.354 12.7807 11.354C12.7917 11.354 12.8424 11.334 12.8932 11.3095C13.0047 11.2556 13.1159 11.149 13.1737 11.0407C13.2537 10.8906 13.2515 10.9384 13.2515 9.248C13.2515 7.57505 13.253 7.61 13.1797 7.4654C13.1109 7.3297 12.9308 7.18245 12.7938 7.15L12.758 7.1415L12.7579 7.431C12.7579 7.59025 12.7517 7.75855 12.7442 7.805C12.7222 7.9403 12.6423 8.0434 12.5143 8.1014C12.4697 8.1216 12.377 8.1235 11.4385 8.1235H10.4115L10.3377 8.08725C10.254 8.04615 10.1929 7.98315 10.1529 7.89665C10.1269 7.8405 10.1253 7.8134 10.1214 7.35975L10.1173 6.882H9.8144C9.4165 6.882 9.3357 6.8659 9.24 6.76735C9.21585 6.74245 9.05425 6.5328 8.88095 6.3015L8.5658 5.881L7.29815 5.88115L6.0305 5.8813L5.6924 6.2183Z" fill="var(--fill-0, white)"/>
</g>
</svg>
