<svg preserveAspectRatio="none" width="100%" height="100%" overflow="visible" style="display: block;" viewBox="0 0 16 16" fill="none" xmlns="http://www.w3.org/2000/svg">
<g id="Car-Type-Hatchback Streamline Ultimate">
<path id="Vector" fill-rule="evenodd" clip-rule="evenodd" d="M4.945 6.1029C4.12265 6.11095 4.1355 6.1099 3.8985 6.18795C3.70215 6.25255 3.51615 6.36125 3.3375 6.5157C3.17925 6.6525 2.4433 7.44095 2.28415 7.6442C2.21435 7.7333 2.15915 7.845 2.131 7.954C2.10185 8.06695 2.1012 9.9966 2.1303 10.1059C2.19615 10.3533 2.4208 10.5838 2.70215 10.6927C2.8869 10.7642 3.00685 10.7816 3.31585 10.7818L3.5912 10.782L3.66035 10.8616C3.84865 11.0783 4.1444 11.2445 4.42315 11.29C4.5502 11.3108 4.77965 11.3072 4.89805 11.2825C5.18825 11.2221 5.44565 11.0724 5.6291 10.8572L5.6925 10.7828L7.90105 10.7824L10.1096 10.782L10.2108 10.8902C10.4326 11.1272 10.7332 11.2751 11.0454 11.3005C11.465 11.3347 11.8428 11.1886 12.1297 10.8813L12.2225 10.782H12.5623C12.9271 10.782 13.0298 10.7701 13.1756 10.7108C13.3432 10.6427 13.5127 10.4886 13.5879 10.3357C13.6722 10.1646 13.6728 10.1587 13.6778 9.50215C13.6817 8.99455 13.6794 8.89105 13.662 8.8129C13.609 8.57485 13.4274 8.34445 13.1424 8.1537C12.8948 7.98805 12.8627 7.97675 11.7267 7.6564L10.7798 7.38945L10.6607 7.30595C10.5951 7.26005 10.2519 7.017 9.898 6.76585C9.2068 6.2754 9.07405 6.19535 8.858 6.13865C8.75005 6.11035 8.7281 6.10955 7.9155 6.1058C7.4579 6.1037 6.77345 6.1005 6.3945 6.09875C6.01555 6.09695 5.3633 6.09885 4.945 6.1029ZM4.23 6.87665C4.10825 6.9027 3.92675 6.99715 3.82805 7.08595C3.7334 7.17105 3.27825 7.6546 3.0302 7.9335L2.865 8.11925V9.0207V9.9221L2.8993 9.9491C2.958 9.99525 3.08965 10.028 3.21655 10.028H3.3314L3.33815 9.97275C3.3419 9.94235 3.34845 9.88035 3.35275 9.835C3.3696 9.6573 3.4469 9.4507 3.5602 9.2804C3.7471 8.9995 4.05195 8.7941 4.38385 8.7255C4.54905 8.69135 4.82005 8.6984 4.9775 8.74095C5.51435 8.88605 5.906 9.35735 5.9416 9.90125L5.94995 10.028H7.90165H9.85335L9.86915 9.87925C9.9272 9.33275 10.2818 8.90755 10.8145 8.74565C10.9234 8.71255 10.9477 8.7101 11.1655 8.7101C11.3823 8.7101 11.408 8.7127 11.5165 8.7453C11.9457 8.87435 12.2674 9.1816 12.4056 9.5945C12.4386 9.69305 12.472 9.8796 12.472 9.9656V10.0298L12.678 10.0257C12.8286 10.0226 12.8898 10.0167 12.9055 10.0036C12.9248 9.98765 12.927 9.93395 12.927 9.47625V8.9667L12.8803 8.91215C12.8186 8.8401 12.6918 8.7508 12.5739 8.69635C12.5211 8.67195 12.1883 8.5691 11.8285 8.4659L11.1785 8.2795L8.0845 8.273C5.2372 8.267 4.9862 8.26475 4.93675 8.24485C4.6843 8.1432 4.52525 7.9133 4.52665 7.6521C4.5277 7.45605 4.5612 7.3858 4.8057 7.0669C4.8895 6.95765 4.958 6.8655 4.958 6.86215C4.958 6.8466 4.31025 6.8595 4.23 6.87665ZM5.66645 7.18005C5.53095 7.3583 5.41805 7.5104 5.4155 7.51805C5.4122 7.52795 6.03105 7.532 7.54 7.532C8.79945 7.532 9.66415 7.52725 9.65685 7.52035C9.6138 7.47965 8.8254 6.93375 8.77635 6.9107C8.7432 6.8951 8.691 6.8766 8.6603 6.8695C8.62545 6.86145 8.0993 6.8565 7.2586 6.8563L5.91275 6.856L5.66645 7.18005ZM4.46755 9.481C4.0844 9.6116 3.9701 10.1049 4.2566 10.3914C4.5496 10.6844 5.05305 10.5564 5.17395 10.1581C5.19855 10.077 5.19675 9.91675 5.17035 9.83855C5.11325 9.66945 4.9781 9.53425 4.80945 9.47755C4.7241 9.44885 4.5569 9.45055 4.46755 9.481ZM11.0095 9.4735C10.9161 9.50445 10.8482 9.5463 10.7788 9.616C10.5297 9.86585 10.5714 10.2671 10.8669 10.4632C11.1773 10.6692 11.603 10.5042 11.6998 10.1404C11.7328 10.0165 11.7149 9.8633 11.6531 9.74225C11.6096 9.65705 11.4951 9.55085 11.3971 9.50485C11.3199 9.4687 11.2926 9.46285 11.185 9.4598C11.1081 9.45765 11.0419 9.4628 11.0095 9.4735Z" fill="var(--fill-0, white)"/>
</g>
</svg>
