<svg preserveAspectRatio="none" width="100%" height="100%" overflow="visible" style="display: block;" viewBox="0 0 16 16" fill="none" xmlns="http://www.w3.org/2000/svg">
<g id="Gas-Load Streamline Ultimate">
<path id="Vector" fill-rule="evenodd" clip-rule="evenodd" d="M2.7545 2.00755C2.35065 2.05295 2.0552 2.3589 2.00745 2.78135C1.9968 2.87535 1.9939 4.32205 1.9967 8.0975L2.00055 13.2845L2.0307 13.3819C2.07835 13.5358 2.13225 13.6252 2.247 13.7403C2.3293 13.8229 2.37495 13.8566 2.462 13.8992C2.68725 14.0093 2.32975 13.9995 6.1345 13.9995C9.34105 13.9995 9.51915 13.9983 9.6054 13.9762C9.91495 13.8969 10.1416 13.6627 10.2232 13.3377C10.2487 13.2362 10.249 13.1822 10.249 9.1159V4.997L10.4343 4.99725C10.7205 4.9977 10.8305 5.0323 10.9203 5.15005C11.0028 5.25815 10.9959 4.91845 11.0033 9.196C11.0097 12.8891 11.0113 13.0935 11.0334 13.1675C11.0462 13.2104 11.0825 13.2992 11.1141 13.3647C11.4537 14.0691 12.3963 14.2185 12.9343 13.6532C13.0345 13.5479 13.0863 13.4717 13.1479 13.3388C13.2537 13.1102 13.2447 13.327 13.2488 10.91L13.2525 8.7565L13.483 8.752C13.7045 8.7477 13.7164 8.74605 13.7874 8.71125C14.0658 8.5745 14.0682 8.18405 13.7915 8.03475C13.7451 8.0097 13.7153 8.0062 13.5153 8.00225C13.3163 7.99835 13.291 7.9954 13.2911 7.97615C13.2911 7.96425 13.3057 7.89985 13.3236 7.83305C13.394 7.57025 13.4782 7.40235 13.7296 7.02345C13.9807 6.64505 13.9779 6.6499 13.9932 6.56915C14.0273 6.3894 13.9262 6.2131 13.7504 6.146C13.6756 6.1174 13.5258 6.1264 13.4535 6.1638C13.3736 6.2052 13.3367 6.25175 13.0958 6.6155C12.7779 7.09555 12.6454 7.3803 12.5636 7.7593C12.4986 8.0604 12.4983 8.0743 12.4982 10.5814C12.498 13.194 12.5051 13.0011 12.4055 13.1142C12.3438 13.1843 12.2781 13.2216 12.1853 13.2392C12.1164 13.2522 12.0136 13.2377 11.952 13.2062C11.8955 13.1773 11.8199 13.094 11.788 13.0256L11.7573 12.9595L11.7572 9.18115C11.7571 6.66095 11.7525 5.3589 11.7435 5.2711C11.6996 4.843 11.437 4.4887 11.0482 4.33305C10.8927 4.27075 10.7989 4.25575 10.5123 4.24705L10.249 4.2391V3.5009C10.249 2.67145 10.2472 2.651 10.1585 2.4685C10.053 2.25155 9.865 2.10375 9.5925 2.0236C9.5189 2.0019 9.32615 2.00055 6.18 1.99895C4.34605 1.99805 2.80455 2.0019 2.7545 2.00755ZM2.826 2.765C2.79165 2.7767 2.7767 2.79165 2.765 2.826C2.75325 2.86035 2.7493 3.31495 2.74875 4.68175L2.748 6.492H6.1215H9.495V4.6661C9.495 3.30945 9.49115 2.8317 9.47995 2.80715C9.47025 2.78595 9.4481 2.7694 9.4182 2.7611C9.34565 2.74095 2.8853 2.74475 2.826 2.765ZM4.4445 3.5111C4.38205 3.51995 4.2386 3.5646 4.1564 3.6009C3.9284 3.70145 3.702 3.928 3.60085 4.15675C3.52375 4.33105 3.5093 4.40385 3.5089 4.62C3.50855 4.79135 3.5129 4.83665 3.53785 4.9228C3.6595 5.3425 3.9959 5.6503 4.4229 5.7326C4.50195 5.74785 4.7926 5.751 6.1194 5.7509C7.16725 5.75085 7.7497 5.74615 7.805 5.73725C8.0658 5.6954 8.3079 5.5563 8.4909 5.34315C8.57915 5.24035 8.693 5.01075 8.7238 4.8735C8.75675 4.7266 8.75315 4.4807 8.716 4.3405C8.63335 4.0285 8.4156 3.76345 8.1235 3.6194C7.88025 3.49935 8.05765 3.5095 6.1605 3.50745C5.23815 3.50645 4.46595 3.5081 4.4445 3.5111ZM4.48435 4.28225C4.35035 4.33455 4.256 4.4761 4.256 4.62465C4.256 4.76655 4.32485 4.88105 4.45285 4.9519L4.5225 4.9905L6.1042 4.99395C7.6617 4.99735 7.687 4.997 7.75585 4.97125C7.8398 4.93985 7.9282 4.85745 7.96535 4.776C8.00195 4.6957 8.00185 4.5574 7.96515 4.47585C7.93025 4.3982 7.85675 4.32575 7.77385 4.28715L7.7075 4.25625L6.128 4.25675C4.59995 4.2572 4.5464 4.25805 4.48435 4.28225ZM2.75665 7.25465C2.7519 7.25945 2.7483 8.583 2.74875 10.1959C2.7493 12.4323 2.75315 13.1393 2.765 13.174C2.7767 13.2083 2.79165 13.2233 2.826 13.235C2.8853 13.2552 9.34565 13.2591 9.4182 13.2389C9.4481 13.2306 9.47025 13.2141 9.47995 13.1929C9.4912 13.1681 9.495 12.4171 9.495 10.2029V7.246H6.13015C4.2795 7.246 2.76145 7.2499 2.75665 7.25465Z" fill="var(--fill-0, white)"/>
</g>
</svg>
