<svg preserveAspectRatio="none" width="100%" height="100%" overflow="visible" style="display: block;" viewBox="0 0 16 16" fill="none" xmlns="http://www.w3.org/2000/svg">
<g id="Calendar Streamline Ultimate">
<path id="Vector" fill-rule="evenodd" clip-rule="evenodd" d="M5.25965 2.01785C5.1382 2.06115 5.03945 2.1637 5.01085 2.276C5.00205 2.3106 4.997 2.5419 4.997 2.90885V3.4872L3.97975 3.4925C3.0695 3.4973 2.95225 3.50025 2.865 3.5206C2.43745 3.6202 2.15885 3.8959 2.0363 4.3406L2.0005 4.4705L1.9966 8.689C1.9937 11.8108 1.99655 12.9395 2.00765 13.0305C2.06165 13.4751 2.33055 13.7998 2.761 13.9403C2.97405 14.0098 2.66845 14.006 8.00725 14.006C11.4454 14.006 12.9821 14.0017 13.0528 13.9921C13.1749 13.9754 13.3633 13.9146 13.4532 13.863C13.6976 13.7225 13.8789 13.4755 13.9637 13.1675L13.9995 13.0375V8.7345V4.4315L13.9704 4.321C13.9544 4.2602 13.914 4.15495 13.8806 4.087C13.8286 3.9815 13.8016 3.94535 13.6951 3.83915C13.5595 3.70385 13.4453 3.6311 13.2753 3.57165C13.0629 3.4974 13.0795 3.4984 12.0007 3.4927L11.003 3.4874V2.899C11.003 2.2435 11.0024 2.2386 10.9159 2.1375C10.8541 2.0653 10.7905 2.0267 10.7002 2.00645C10.5663 1.9765 10.4328 2.02455 10.3361 2.1375C10.2495 2.2386 10.249 2.24345 10.249 2.8998V3.489H8.0005H5.75195L5.74825 2.87475C5.7446 2.2733 5.7439 2.2594 5.71635 2.2079C5.68195 2.14365 5.58325 2.05065 5.52265 2.0253C5.446 1.9933 5.3371 1.9902 5.25965 2.01785ZM2.9949 4.26815C2.927 4.2888 2.8762 4.32375 2.8386 4.3756C2.7598 4.4844 2.761 4.4666 2.761 5.52585V6.492H8.0072H13.2533L13.2494 5.50075C13.2457 4.5663 13.2441 4.5063 13.2212 4.45395C13.1876 4.3771 13.1076 4.31265 13.0074 4.2817C12.9278 4.2571 12.8836 4.256 11.9643 4.256H11.0043L11.0004 4.68175C10.9966 5.09495 10.9956 5.1091 10.9671 5.1624C10.8167 5.444 10.4353 5.444 10.2848 5.1624C10.2563 5.1091 10.2554 5.09495 10.2516 4.68175L10.2477 4.256H7.99985H5.752L5.74825 4.68175C5.744 5.1613 5.7442 5.16035 5.64075 5.26375C5.56755 5.337 5.50165 5.36545 5.39115 5.3716C5.3125 5.37595 5.2868 5.3717 5.2275 5.34455C5.13695 5.3031 5.05575 5.2181 5.0229 5.1303C4.9991 5.0666 4.997 5.0288 4.997 4.6585V4.256L4.01225 4.2571C3.47065 4.25775 3.01285 4.2627 2.9949 4.26815ZM2.7611 10.1158C2.76115 12.1438 2.7653 12.9876 2.77535 13.0245C2.79545 13.0979 2.8914 13.1878 2.98035 13.2165C3.04585 13.2377 3.3442 13.239 8.02495 13.239H12.9999L13.0683 13.205C13.1421 13.1681 13.1806 13.1193 13.2214 13.0106C13.2445 12.949 13.2456 12.8335 13.2489 10.1027L13.2523 7.259H8.00665H2.761L2.7611 10.1158Z" fill="var(--fill-0, white)"/>
</g>
</svg>
