<svg preserveAspectRatio="none" width="100%" height="100%" overflow="visible" style="display: block;" viewBox="0 0 16 16" fill="none" xmlns="http://www.w3.org/2000/svg">
<g id="Car-Dashboard-Gear Streamline Ultimate">
<path id="Vector" fill-rule="evenodd" clip-rule="evenodd" d="M3.346 2.00815C2.7973 2.06095 2.31495 2.425 2.10745 2.943C1.95035 3.3352 1.96775 3.7743 2.1556 4.1585C2.4094 4.6774 2.92055 4.9969 3.49705 4.997C3.9419 4.99705 4.3373 4.8179 4.63135 4.48305C4.76225 4.334 4.87775 4.13015 4.9277 3.95985L4.9515 3.87885L5.7483 3.88215L6.5451 3.8855L6.5816 3.9895C6.68315 4.27905 6.865 4.5241 7.1167 4.71075C7.2363 4.7994 7.4179 4.89225 7.54185 4.928L7.62315 4.9515L7.61985 5.7483L7.6165 6.5451L7.5125 6.5816C7.08145 6.73295 6.75175 7.05675 6.5894 7.48805C6.4718 7.8005 6.4764 8.2265 6.6008 8.5398C6.7667 8.9577 7.09155 9.2707 7.5125 9.4184L7.6165 9.4549L7.61985 10.2517L7.62315 11.0485L7.54185 11.072C7.4179 11.1077 7.2363 11.2006 7.1167 11.2893C6.865 11.4759 6.68315 11.721 6.5816 12.0105L6.5451 12.1145L5.7467 12.1179L4.9483 12.1212L4.94035 12.0815C4.92685 12.0139 4.8551 11.8457 4.79915 11.7505C4.5237 11.2817 4.0413 11.0028 3.50645 11.0031C3.32015 11.0032 3.2241 11.0174 3.05385 11.0697C2.6588 11.1912 2.3395 11.4655 2.1556 11.8415C1.82265 12.5224 2.04185 13.3306 2.67345 13.7508C3.02625 13.9856 3.47255 14.0579 3.8895 13.9477C4.0433 13.9071 4.26995 13.7982 4.3925 13.7061C4.64105 13.5192 4.85035 13.2272 4.92665 12.9606L4.95125 12.8748L5.7483 12.8782L6.5454 12.8815L6.5782 12.9789C6.6532 13.2016 6.81865 13.4555 6.988 13.6079C7.19995 13.7986 7.4701 13.9302 7.753 13.9807C7.86175 14 8.13825 14 8.247 13.9807C8.5299 13.9302 8.80005 13.7986 9.012 13.6079C9.20535 13.4339 9.3831 13.1399 9.4511 12.8815C9.4972 12.7065 9.5087 12.4062 9.476 12.2321C9.4042 11.8495 9.1991 11.5234 8.8828 11.2889C8.76365 11.2006 8.58195 11.1077 8.45815 11.072L8.37685 11.0485L8.38015 10.2517L8.3835 9.4549L8.4875 9.4184C8.9246 9.26505 9.26505 8.9246 9.4184 8.4875L9.4549 8.3835L10.2517 8.38015L11.0485 8.37685L11.072 8.45815C11.1077 8.5821 11.2006 8.7637 11.2893 8.8833C11.5236 9.1994 11.8494 9.4042 12.2321 9.476C12.4062 9.5087 12.7065 9.4972 12.8815 9.4511C13.1399 9.3831 13.4339 9.20535 13.6079 9.012C13.7986 8.80005 13.9302 8.5299 13.9807 8.247C14 8.13825 14 7.86175 13.9807 7.753C13.8942 7.2682 13.5927 6.86685 13.1549 6.6538C12.926 6.54245 12.7542 6.50375 12.4901 6.5041C12.0089 6.5047 11.5813 6.72285 11.2893 7.1167C11.2006 7.2363 11.1077 7.4179 11.072 7.54185L11.0485 7.62315L10.2517 7.61985L9.4549 7.6165L9.4184 7.5125C9.26505 7.0754 8.9246 6.73495 8.4875 6.5816L8.3835 6.5451L8.38015 5.7483L8.37685 4.9515L8.45815 4.928C8.73035 4.8494 9.04015 4.6246 9.21615 4.3779C9.4191 4.0935 9.5032 3.8081 9.4915 3.4435C9.4837 3.2003 9.4476 3.05115 9.34665 2.8451C9.1317 2.4062 8.7315 2.1057 8.247 2.0193C8.12425 1.99745 7.8571 2.00035 7.7261 2.025C7.45465 2.0761 7.1924 2.2064 6.9878 2.39185C6.81745 2.54625 6.65305 2.79885 6.5782 3.02115L6.5454 3.1185L5.7483 3.12185L4.95125 3.1252L4.92665 3.0394C4.85035 2.77285 4.64105 2.48085 4.3925 2.29395C4.27115 2.20275 4.0441 2.0933 3.892 2.05275C3.7906 2.0257 3.52055 1.98935 3.4695 1.9959C3.46235 1.9968 3.4068 2.0023 3.346 2.00815ZM3.4045 2.7563C3.2373 2.78185 3.09355 2.8546 2.97405 2.97405C2.82375 3.12435 2.75595 3.28845 2.75595 3.502C2.75595 3.71575 2.8233 3.87695 2.97585 4.0285C3.1239 4.1756 3.2892 4.243 3.502 4.243C3.56335 4.243 3.64785 4.23405 3.6898 4.22315C3.9391 4.1582 4.1582 3.9391 4.22315 3.6898C4.24855 3.59225 4.2486 3.4125 4.22325 3.313C4.1602 3.0654 3.95625 2.8538 3.7114 2.7819C3.63745 2.76015 3.47025 2.7462 3.4045 2.7563ZM7.8745 2.76145C7.5996 2.81065 7.3678 3.01415 7.28485 3.2791C7.25395 3.3778 7.24975 3.58955 7.27665 3.69055C7.3379 3.92055 7.51785 4.1186 7.74 4.20055C7.8272 4.2327 7.85465 4.2365 8 4.2365C8.14535 4.2365 8.1728 4.2327 8.26 4.20055C8.48585 4.11725 8.6693 3.91175 8.727 3.6775C8.7499 3.5846 8.7468 3.3857 8.7211 3.2967C8.6523 3.0583 8.44685 2.85165 8.2094 2.7819C8.12015 2.7557 7.96095 2.74595 7.8745 2.76145ZM12.407 7.26005C12.1376 7.28975 11.903 7.4737 11.7992 7.7366C11.7681 7.81555 11.7645 7.8417 11.764 7.9935C11.7636 8.1467 11.7669 8.17165 11.7995 8.26C11.8828 8.48585 12.0883 8.6693 12.3225 8.727C12.4154 8.7499 12.6143 8.7468 12.7033 8.7211C12.8243 8.6862 12.9274 8.62375 13.0246 8.52655C13.1769 8.3743 13.2441 8.2131 13.2441 8C13.2441 7.7869 13.1769 7.6257 13.0246 7.47345C12.8537 7.3026 12.6523 7.23295 12.407 7.26005ZM7.79345 7.27955C7.6794 7.31025 7.57095 7.3759 7.47345 7.47345C7.3206 7.62625 7.258 7.7793 7.258 8C7.258 8.2207 7.3206 8.37375 7.47345 8.52655C7.62645 8.6796 7.77725 8.741 8 8.741C8.22275 8.741 8.37255 8.67985 8.5262 8.5262C8.67985 8.37255 8.741 8.22275 8.741 8C8.741 7.7777 8.68015 7.6284 8.5265 7.4738C8.4269 7.3736 8.32095 7.31015 8.20095 7.2789C8.10475 7.25385 7.88775 7.2542 7.79345 7.27955ZM3.2744 11.7877C3.14835 11.8285 3.0678 11.8787 2.969 11.9777C2.82325 12.1239 2.75595 12.2883 2.75595 12.498C2.75595 12.7116 2.82375 12.8757 2.97405 13.026C3.12435 13.1763 3.28845 13.2441 3.502 13.2441C3.71575 13.2441 3.87695 13.1767 4.0285 13.0242C4.1756 12.8761 4.243 12.7108 4.243 12.498C4.243 12.4367 4.23405 12.3521 4.22315 12.3102C4.1582 12.0609 3.9391 11.8418 3.6898 11.7768C3.57395 11.7467 3.38575 11.7516 3.2744 11.7877ZM7.8115 11.7756C7.6459 11.8225 7.5061 11.9163 7.40725 12.0469C7.29725 12.1923 7.2594 12.3095 7.25915 12.5054C7.2589 12.7229 7.3201 12.8713 7.47345 13.0246C7.6257 13.1769 7.7869 13.2441 8 13.2441C8.2131 13.2441 8.3743 13.1769 8.52655 13.0246C8.62375 12.9274 8.6862 12.8243 8.7211 12.7033C8.7468 12.6143 8.7499 12.4154 8.727 12.3225C8.67015 12.0918 8.48785 11.8853 8.2665 11.801C8.19145 11.7724 8.1493 11.7655 8.026 11.7618C7.9238 11.7587 7.85595 11.763 7.8115 11.7756Z" fill="var(--fill-0, white)"/>
</g>
</svg>
