<svg preserveAspectRatio="none" width="100%" height="100%" overflow="visible" style="display: block;" viewBox="0 0 48 48" fill="none" xmlns="http://www.w3.org/2000/svg">
<g id="Car-Actions-Search Streamline Ultimate">
<path id="Vector" fill-rule="evenodd" clip-rule="evenodd" d="M16.863 6.02175C15.3839 6.1737 14.0392 7.08435 13.3572 8.39625C13.2636 8.5764 12.619 10.2421 11.925 12.0979L10.663 15.4721L9.1287 17.0159C7.6305 18.5231 7.3464 18.8445 6.9579 19.4706C6.4932 20.22 6.18555 21.0768 6.06075 21.9688C5.991 22.4673 5.99835 23.2661 6.0756 23.5905C6.3345 24.6782 7.0071 25.5069 7.99365 25.9542L8.2368 26.0644L8.25345 26.9921C8.26785 27.7889 8.28225 27.9632 8.355 28.2294C8.6643 29.3603 9.48555 30.2181 10.623 30.598C10.971 30.7143 11.029 30.7221 11.5785 30.7246C12.216 30.7278 12.4074 30.6952 12.885 30.5028C13.7069 30.1716 14.4496 29.4327 14.7532 28.6443C14.9449 28.1464 14.991 27.8288 14.991 27.0047V26.262H16.7051C17.7914 26.262 18.4916 26.2466 18.6167 26.2197C19.2023 26.094 19.5957 25.4929 19.4743 24.9088C19.4202 24.6474 19.3077 24.4557 19.1033 24.2763C18.789 24.0003 19.1898 24.0216 13.899 24L9.1215 23.9805L8.9265 23.8908C8.57055 23.727 8.35635 23.451 8.2824 23.0609C8.2428 22.8525 8.28555 22.2612 8.36445 21.9233L8.4078 21.738L11.2801 21.7371C14.0833 21.7363 14.1567 21.7344 14.328 21.657C14.544 21.5593 14.776 21.3408 14.8834 21.1335C14.9997 20.9092 15.023 20.4678 14.9312 20.2275C14.8376 19.9824 14.567 19.7006 14.3169 19.5875L14.1135 19.4955L11.9904 19.4835L9.8673 19.4717L10.9762 18.3622L12.0851 17.253H24H35.9149L37.0198 18.3584L38.1249 19.4638L37.7128 19.4872C37.2375 19.5141 37.0134 19.5936 36.7776 19.8192C36.3226 20.2544 36.3226 20.9991 36.7776 21.4336C37.0848 21.7269 37.135 21.7362 38.4358 21.7371L39.5922 21.738L39.6361 21.9233C39.6603 22.0251 39.703 22.3543 39.7312 22.6548C39.8016 23.4069 39.9337 23.6538 40.3867 23.8803C40.801 24.0873 41.2584 24.027 41.6079 23.7193C41.9472 23.4207 42.0282 23.1356 41.9773 22.4181C41.9056 21.4076 41.6037 20.4042 41.1337 19.6167C40.7047 18.8976 40.4604 18.6165 38.8858 17.031L37.3291 15.4637L36.0858 12.1388C35.4018 10.3101 34.7899 8.70225 34.7262 8.56575C34.2264 7.4979 33.1965 6.58785 32.0718 6.2205C31.3752 5.99295 31.8723 6.0069 24.195 5.99895C20.3234 5.99505 17.024 6.00525 16.863 6.02175ZM16.9995 8.28645C16.3212 8.38455 15.687 8.83245 15.3758 9.4335C15.2585 9.66015 13.275 14.8823 13.275 14.9648C13.275 14.9792 18.1013 14.991 24 14.991C29.8987 14.991 34.725 14.9825 34.725 14.9718C34.725 14.8986 32.7039 9.58035 32.6059 9.396C32.4421 9.0876 32.0317 8.68695 31.7136 8.5248C31.1622 8.24385 31.8013 8.2662 24.1365 8.25915C20.3398 8.25555 17.1282 8.26785 16.9995 8.28645ZM28.953 20.6465C24.7433 20.976 21.3468 24.1359 20.7191 28.3071C20.6127 29.0139 20.6052 30.2019 20.7028 30.8445C20.8569 31.8565 21.1206 32.7168 21.5405 33.5766C22.9206 36.4029 25.6728 38.2999 28.8132 38.5896C29.4117 38.6448 30.3942 38.6167 30.981 38.5275C32.3533 38.319 33.7785 37.7368 34.8816 36.9342L35.1321 36.7519L37.6293 39.244C39.0027 40.6146 40.1986 41.7807 40.2867 41.835C40.5954 42.0256 41.077 42.0454 41.3961 41.8804C41.5491 41.8012 41.8012 41.5491 41.8804 41.3961C42.0454 41.077 42.0256 40.5954 41.835 40.2867C41.7807 40.1986 40.6146 39.0027 39.244 37.6293L36.7519 35.1321L36.9342 34.8816C37.7368 33.7785 38.319 32.3533 38.5275 30.981C38.6167 30.3942 38.6448 29.4117 38.5896 28.8132C38.2047 24.6398 35.0217 21.3012 30.864 20.7099C30.334 20.6346 29.4714 20.606 28.953 20.6465ZM29.265 22.8936C26.3327 23.0584 23.8254 25.1145 23.1003 27.9489C22.7857 29.1783 22.8309 30.5595 23.2242 31.7415C23.3916 32.2447 23.839 33.1239 24.1459 33.5526C24.7729 34.4283 25.7835 35.2723 26.7271 35.7084C27.6393 36.13 28.4064 36.3142 29.4015 36.3502C31.3137 36.4197 33.0922 35.7055 34.4362 34.3288C35.7511 32.9818 36.4198 31.26 36.3496 29.4015C36.2815 27.5976 35.6184 26.0896 34.3344 24.819C33.3304 23.8255 32.0592 23.1847 30.6687 22.9714C30.2716 22.9104 29.6138 22.8739 29.265 22.8936ZM10.5127 26.9738C10.5244 27.6182 10.5337 27.7007 10.6114 27.846C10.7511 28.1073 10.8847 28.2393 11.1378 28.3657C11.5672 28.5804 12.0814 28.4983 12.4042 28.1637C12.6949 27.8623 12.708 27.8145 12.7223 26.9932L12.7351 26.262H11.6173H10.4998L10.5127 26.9738Z" fill="var(--fill-0, white)"/>
</g>
</svg>
