<svg preserveAspectRatio="none" width="100%" height="100%" overflow="visible" style="display: block;" viewBox="0 0 627 545.218" fill="none" xmlns="http://www.w3.org/2000/svg">
<g id="Group 16">
<g id="Subtract">
<mask id="path-1-inside-1_0_32" fill="white">
<path d="M627 545.218H116C51.9352 545.218 0.000203102 493.283 0 429.218V0H119.188V85.8154C132.43 93.0929 144.267 101.828 154.566 111.964H253.676C271.538 96.3687 293.198 87.2539 313.5 81.9688V79.7891C333.109 75.3188 355.058 73.526 379.067 74.5078L380.53 111.964H507.812V0H627V545.218Z"/>
</mask>
<path d="M627 545.218V555.218H637V545.218H627ZM116 545.218L116 555.218H116V545.218ZM0 429.218H-10V429.218L0 429.218ZM0 0V-10H-10V0H0ZM119.188 0H129.188V-10H119.188V0ZM119.188 85.8154H109.188V91.7302L114.372 94.5791L119.188 85.8154ZM154.566 111.964L147.552 119.091L150.471 121.964H154.566V111.964ZM253.676 111.964V121.964H257.427L260.253 119.497L253.676 111.964ZM313.5 81.9688L316.019 91.6462L323.5 89.6987V81.9688H313.5ZM313.5 79.7891L311.277 70.0392L303.5 71.8122V79.7891H313.5ZM379.067 74.5078L389.06 74.1175L388.699 64.8933L379.476 64.5162L379.067 74.5078ZM380.53 111.964L370.538 112.354L370.913 121.964H380.53V111.964ZM507.812 111.964V121.964H517.812V111.964H507.812ZM507.812 0V-10H497.812V0H507.812ZM627 0H637V-10H627V0ZM627 545.218V535.218H116V545.218V555.218H627V545.218ZM116 545.218L116 535.218C57.4581 535.218 10.0002 487.76 10 429.218L0 429.218L-10 429.218C-9.99978 498.805 46.4123 555.218 116 555.218L116 545.218ZM0 429.218H10V0H0H-10V429.218H0ZM0 0V10H119.188V0V-10H0V0ZM119.188 0H109.188V85.8154H119.188H129.188V0H119.188ZM119.188 85.8154L114.372 94.5791C126.853 101.439 137.942 109.633 147.552 119.091L154.566 111.964L161.581 104.837C150.593 94.0224 138.007 84.7471 124.005 77.0518L119.188 85.8154ZM154.566 111.964V121.964H253.676V111.964V101.964H154.566V111.964ZM253.676 111.964L260.253 119.497C276.58 105.242 296.663 96.6853 316.019 91.6462L313.5 81.9688L310.981 72.2913C289.734 77.8225 266.495 87.496 247.099 104.431L253.676 111.964ZM313.5 81.9688H323.5V79.7891H313.5H303.5V81.9688H313.5ZM313.5 79.7891L315.723 89.5389C334.331 85.2968 355.379 83.5475 378.659 84.4995L379.067 74.5078L379.476 64.5162C354.736 63.5045 331.887 65.3409 311.277 70.0392L313.5 79.7891ZM379.067 74.5078L369.075 74.8981L370.538 112.354L380.53 111.964L390.523 111.574L389.06 74.1175L379.067 74.5078ZM380.53 111.964V121.964H507.812V111.964V101.964H380.53V111.964ZM507.812 111.964H517.812V0H507.812H497.812V111.964H507.812ZM507.812 0V10H627V0V-10H507.812V0ZM627 0H617V545.218H627H637V0H627Z" fill="var(--stroke-0, #9838D0)" mask="url(#path-1-inside-1_0_32)"/>
</g>
</g>
</svg>
