<svg preserveAspectRatio="none" width="100%" height="100%" overflow="visible" style="display: block;" viewBox="0 0 48 48" fill="none" xmlns="http://www.w3.org/2000/svg">
<g id="Navigation-Car-Pin Streamline Ultimate">
<path id="Vector" fill-rule="evenodd" clip-rule="evenodd" d="M29.85 6.0456C27.0229 6.30795 24.5526 7.48485 22.6311 9.4845C22.1556 9.97935 21.5698 10.727 21.2029 11.3072C20.1394 12.989 19.5232 15.0686 19.5135 17.0084C19.5058 18.5424 20.1382 20.8612 21.0046 22.4754C21.322 23.0667 21.6352 23.5792 21.7483 23.6923C22.0015 23.9455 22.4226 24.0742 22.7605 24.0018C23.3022 23.8857 23.6646 23.4249 23.6566 22.8627C23.653 22.6044 23.5825 22.4246 23.3034 21.9597C22.5558 20.7152 22.0359 19.1979 21.7972 17.565C21.7506 17.2458 21.7771 16.4968 21.8533 15.9769C22.377 12.4091 24.951 9.5196 28.446 8.57655C29.6712 8.24595 31.2201 8.19375 32.463 8.4414C34.2102 8.78955 35.6967 9.564 36.9733 10.7913C37.7238 11.5127 38.2837 12.2623 38.7385 13.1542C39.3328 14.32 39.6192 15.3535 39.72 16.6972C39.8245 18.0913 39.4578 19.4155 38.3725 21.5625C37.1485 23.9836 35.2053 26.8886 32.7009 30.0405C32.3535 30.4778 32.0308 30.9076 31.9839 30.996C31.9153 31.1245 31.8984 31.2224 31.8979 31.488C31.8975 31.7783 31.9105 31.8417 32.0026 31.9983C32.1297 32.2144 32.3697 32.438 32.5693 32.5263C32.6586 32.5656 32.826 32.5924 32.9944 32.5942C33.229 32.5968 33.3078 32.5792 33.5014 32.481C33.7092 32.3755 33.7917 32.2886 34.3881 31.5461C37.132 28.1301 39.5835 24.4011 40.7259 21.9054C41.6332 19.9233 41.989 18.5959 41.9886 17.1945C41.988 15.4512 41.6304 13.9227 40.8481 12.3195C40.3248 11.2467 39.6963 10.3485 38.8657 9.48645C37.3537 7.917 35.5645 6.8763 33.477 6.3519C32.6007 6.13185 31.9818 6.05625 30.942 6.04185C30.438 6.03495 29.9466 6.03675 29.85 6.0456ZM30.006 12.827C28.213 13.1675 26.8458 14.4261 26.3904 16.1553C26.2558 16.6662 26.223 17.5387 26.3188 18.0525C26.58 19.4503 27.4177 20.5897 28.68 21.2632C29.1199 21.498 29.643 21.6579 30.2074 21.7302C31.6353 21.9131 33.0367 21.4001 34.0425 20.3264C34.8303 19.4853 35.2381 18.4423 35.2365 17.2731C35.2345 16.0047 34.815 14.9912 33.9162 14.0832C33.3252 13.4862 32.6295 13.0989 31.761 12.8834C31.3273 12.7757 30.4279 12.7469 30.006 12.827ZM30.2595 15.0756C29.8944 15.1447 29.506 15.3659 29.1825 15.689C28.7127 16.1582 28.524 16.6061 28.524 17.2518C28.524 17.9337 28.707 18.3765 29.1853 18.852C29.7525 19.4158 30.45 19.6215 31.2345 19.4561C31.6627 19.3658 31.9728 19.1928 32.3115 18.8553C32.7709 18.3975 32.9782 17.9145 32.9811 17.2949C32.9841 16.6203 32.8039 16.1829 32.3251 15.7023C31.9788 15.3546 31.6389 15.1608 31.2228 15.0734C30.9801 15.0225 30.5352 15.0234 30.2595 15.0756ZM6.89175 17.2924C6.6675 17.3386 6.5115 17.4257 6.333 17.604C6.14655 17.7905 6.069 17.9356 6.02115 18.1882C5.97885 18.4114 6.0306 18.7676 6.12855 18.9264C6.237 19.1022 6.46395 19.3236 6.6255 19.411C6.78045 19.4949 6.8022 19.4957 9.7455 19.5191C12.2323 19.5387 12.7471 19.5522 12.9435 19.6026C13.7317 19.805 14.376 20.208 14.8354 20.7863C15.0315 21.033 15.2946 21.5283 16.3578 23.653C17.0646 25.0657 17.643 26.2305 17.643 26.2413C17.643 26.2521 15.2079 26.2656 12.2317 26.2712L6.8205 26.2815L6.62205 26.3862C6.2334 26.5913 6.00945 26.9592 6.00975 27.3921C6.01005 27.8408 6.23355 28.1998 6.645 28.4134L6.8205 28.5045L15.693 28.524L24.5655 28.5435L24.858 28.6273C26.1006 28.9831 27.0433 29.9735 27.2922 31.1841C27.3439 31.4361 27.3538 31.8115 27.3531 33.5046C27.3523 35.4265 27.3486 35.5326 27.2758 35.6929C27.1725 35.9208 27.0691 36.0453 26.8611 36.1932C26.5965 36.3814 26.3448 36.4091 25.0194 36.3948L23.8743 36.3825L23.7462 36.028C23.5878 35.5899 23.4973 35.4099 23.248 35.037C22.4839 33.8935 21.3112 33.1876 19.9371 33.0438C18.622 32.9061 17.271 33.3905 16.3216 34.3397C15.834 34.8275 15.4231 35.4924 15.2223 36.1193L15.1317 36.402L10.9956 36.4029C6.92055 36.4037 6.85695 36.4048 6.684 36.4831C6.09495 36.7494 5.82975 37.4817 6.11955 38.0421C6.2133 38.2235 6.47595 38.4672 6.67815 38.5606L6.8595 38.6445L10.9984 38.6554L15.1372 38.6664L15.2244 38.9284C15.5299 39.8482 16.1952 40.7258 16.98 41.2443C17.4033 41.5239 17.6394 41.6412 18.0627 41.7824C19.9953 42.4268 22.1116 41.7063 23.2315 40.023C23.473 39.6601 23.6781 39.2423 23.7883 38.8883L23.8582 38.664H25.017C26.7286 38.664 27.1378 38.6047 27.8014 38.2612C28.7056 37.7931 29.3454 36.9516 29.5572 35.9517C29.6037 35.732 29.6148 35.2749 29.6154 33.543C29.6157 32.208 29.6002 31.3002 29.5738 31.125C29.3095 29.3648 28.3413 27.9306 26.8036 27.0219C26.1577 26.6403 25.3861 26.3913 24.5767 26.3032C24.361 26.2797 23.3373 26.262 22.1977 26.262L20.1975 26.2619L18.6505 23.1713C17.7091 21.2903 17.0071 19.9355 16.8573 19.71C16.2198 18.7515 15.1236 17.9316 13.963 17.5453C13.1586 17.2776 13.1821 17.2793 9.96 17.2685C8.36205 17.2632 6.9813 17.274 6.89175 17.2924ZM19.008 35.3321C18.1794 35.5115 17.4882 36.2099 17.3119 37.0455C17.1478 37.8237 17.3646 38.543 17.9349 39.113C18.9211 40.0988 20.5615 39.9342 21.3639 38.7693C21.6903 38.2953 21.8188 37.5872 21.6829 37.0109C21.4021 35.8196 20.2105 35.0717 19.008 35.3321Z" fill="var(--fill-0, white)"/>
</g>
</svg>
