<svg preserveAspectRatio="none" width="100%" height="100%" overflow="visible" style="display: block;" viewBox="0 0 627 545.218" fill="none" xmlns="http://www.w3.org/2000/svg">
<g id="Group 18">
<g id="Subtract">
<mask id="path-1-inside-1_0_4" fill="white">
<path d="M627 545.218H116C51.9352 545.218 0.000203102 493.283 0 429.218V0H119.188V85.8174C132.428 93.0942 144.264 101.829 154.562 111.964H253.677C271.538 96.3702 293.197 87.2567 313.498 81.9717V79.791C333.107 75.3205 355.056 73.5269 379.066 74.5088L380.529 111.964H507.812V0H627V545.218Z"/>
</mask>
<path d="M627 545.218V555.218H637V545.218H627ZM116 545.218L116 555.218H116V545.218ZM0 429.218H-10V429.218L0 429.218ZM0 0V-10H-10V0H0ZM119.188 0H129.188V-10H119.188V0ZM119.188 85.8174H109.188V91.7322L114.371 94.581L119.188 85.8174ZM154.562 111.964L147.548 119.091L150.467 121.964H154.562V111.964ZM253.677 111.964V121.964H257.428L260.253 119.497L253.677 111.964ZM313.498 81.9717L316.017 91.6491L323.498 89.7016V81.9717H313.498ZM313.498 79.791L311.275 70.0412L303.498 71.8142V79.791H313.498ZM379.066 74.5088L389.059 74.1185L388.699 64.8943L379.475 64.5171L379.066 74.5088ZM380.529 111.964L370.537 112.354L370.912 121.964H380.529V111.964ZM507.812 111.964V121.964H517.812V111.964H507.812ZM507.812 0V-10H497.812V0H507.812ZM627 0H637V-10H627V0ZM627 545.218V535.218H116V545.218V555.218H627V545.218ZM116 545.218L116 535.218C57.4581 535.218 10.0002 487.76 10 429.218L0 429.218L-10 429.218C-9.99978 498.805 46.4123 555.218 116 555.218L116 545.218ZM0 429.218H10V0H0H-10V429.218H0ZM0 0V10H119.188V0V-10H0V0ZM119.188 0H109.188V85.8174H119.188H129.188V0H119.188ZM119.188 85.8174L114.371 94.581C126.851 101.44 137.938 109.634 147.548 119.091L154.562 111.964L161.577 104.836C150.59 94.0237 138.005 84.7486 124.004 77.0537L119.188 85.8174ZM154.562 111.964V121.964H253.677V111.964V101.964H154.562V111.964ZM253.677 111.964L260.253 119.497C276.58 105.243 296.662 96.6881 316.017 91.6491L313.498 81.9717L310.979 72.2943C289.733 77.8252 266.496 87.4973 247.1 104.431L253.677 111.964ZM313.498 81.9717H323.498V79.791H313.498H303.498V81.9717H313.498ZM313.498 79.791L315.721 89.5408C334.33 85.2984 355.378 83.5485 378.658 84.5004L379.066 74.5088L379.475 64.5171C354.734 63.5054 331.885 65.3426 311.275 70.0412L313.498 79.791ZM379.066 74.5088L369.074 74.8991L370.537 112.354L380.529 111.964L390.522 111.574L389.059 74.1185L379.066 74.5088ZM380.529 111.964V121.964H507.812V111.964V101.964H380.529V111.964ZM507.812 111.964H517.812V0H507.812H497.812V111.964H507.812ZM507.812 0V10H627V0V-10H507.812V0ZM627 0H617V545.218H627H637V0H627Z" fill="var(--stroke-0, #9838D0)" mask="url(#path-1-inside-1_0_4)"/>
</g>
</g>
</svg>
