<svg preserveAspectRatio="none" width="100%" height="100%" overflow="visible" style="display: block;" viewBox="0 0 627 545.218" fill="none" xmlns="http://www.w3.org/2000/svg">
<g id="Group 17">
<g id="Subtract">
<mask id="path-1-inside-1_0_44" fill="white">
<path d="M627 545.218H116C51.9352 545.218 0.000203102 493.283 0 429.218V0H165.448C182.993 21.8781 192.549 35.7156 192.692 35.9199L192.908 36.2334L193.16 35.9141C193.291 35.751 204.102 21.8208 221.98 0H373.197L370.787 61.7285L313.805 93.4307V94.5391L283.211 111.965H507.812V0H627V545.218Z"/>
</mask>
<path d="M627 545.218V555.218H637V545.218H627ZM116 545.218L116 555.218H116V545.218ZM0 429.218H-10V429.218L0 429.218ZM0 0V-10H-10V0H0ZM165.448 0L173.25 -6.25622L170.247 -10H165.448V0ZM192.692 35.9199L200.929 30.2492L200.902 30.2103L200.875 30.1716L192.692 35.9199ZM192.908 36.2334L184.672 41.9041L192.36 53.0721L200.759 42.4275L192.908 36.2334ZM193.16 35.9141L185.363 29.6522L185.336 29.686L185.309 29.72L193.16 35.9141ZM221.98 0V-10H217.246L214.245 -6.33776L221.98 0ZM373.197 0L383.19 0.390147L383.595 -10H373.197V0ZM370.787 61.7285L375.649 70.4671L380.56 67.7347L380.78 62.1187L370.787 61.7285ZM313.805 93.4307L308.943 84.692L303.805 87.5507V93.4307H313.805ZM313.805 94.5391L318.754 103.228L323.805 100.352V94.5391H313.805ZM283.211 111.965L278.262 103.276L245.45 121.965H283.211V111.965ZM507.812 111.965V121.965H517.812V111.965H507.812ZM507.812 0V-10H497.812V0H507.812ZM627 0H637V-10H627V0ZM627 545.218V535.218H116V545.218V555.218H627V545.218ZM116 545.218L116 535.218C57.4581 535.218 10.0002 487.76 10 429.218L0 429.218L-10 429.218C-9.99978 498.805 46.4123 555.218 116 555.218L116 545.218ZM0 429.218H10V0H0H-10V429.218H0ZM0 0V10H165.448V0V-10H0V0ZM165.448 0L157.647 6.25622C175.005 27.9013 184.425 41.5475 184.51 41.6682L192.692 35.9199L200.875 30.1716C200.878 30.1761 200.878 30.1752 200.76 30.0066C200.672 29.8801 200.547 29.7008 200.385 29.4702C200.062 29.0091 199.593 28.3451 198.982 27.4892C197.761 25.7774 195.971 23.2989 193.636 20.1413C188.966 13.8267 182.111 4.79373 173.25 -6.25622L165.448 0ZM192.692 35.9199L184.456 41.5907L184.672 41.9041L192.908 36.2334L201.145 30.5627L200.929 30.2492L192.692 35.9199ZM192.908 36.2334L200.759 42.4275L201.011 42.1082L193.16 35.9141L185.309 29.72L185.058 30.0393L192.908 36.2334ZM193.16 35.9141L200.957 42.1759C201.231 41.8344 211.857 28.1336 229.716 6.33776L221.98 0L214.245 -6.33776C196.346 15.5081 185.351 29.6676 185.363 29.6522L193.16 35.9141ZM221.98 0V10H373.197V0V-10H221.98V0ZM373.197 0L363.205 -0.390147L360.795 61.3384L370.787 61.7285L380.78 62.1187L383.19 0.390147L373.197 0ZM370.787 61.7285L365.925 52.9899L308.943 84.692L313.805 93.4307L318.666 102.169L375.649 70.4671L370.787 61.7285ZM313.805 93.4307H303.805V94.5391H313.805H323.805V93.4307H313.805ZM313.805 94.5391L308.855 85.8497L278.262 103.276L283.211 111.965L288.16 120.654L318.754 103.228L313.805 94.5391ZM283.211 111.965V121.965H507.812V111.965V101.965H283.211V111.965ZM507.812 111.965H517.812V0H507.812H497.812V111.965H507.812ZM507.812 0V10H627V0V-10H507.812V0ZM627 0H617V545.218H627H637V0H627Z" fill="var(--stroke-0, #9838D0)" mask="url(#path-1-inside-1_0_44)"/>
</g>
</g>
</svg>
