<svg preserveAspectRatio="none" width="100%" height="100%" overflow="visible" style="display: block;" viewBox="0 0 48 48" fill="none" xmlns="http://www.w3.org/2000/svg">
<g id="Sync-Location Streamline Ultimate">
<path id="Vector" fill-rule="evenodd" clip-rule="evenodd" d="M22.9224 6.02265C21.6184 6.1104 20.3835 6.4443 19.1835 7.0335C18.1714 7.5303 17.3914 8.07525 16.6141 8.82855C15.1161 10.2803 14.1591 11.9936 13.7206 14.0085C13.5126 14.9651 13.4492 16.2078 13.568 16.9995C13.9064 19.2531 15.3638 22.2753 18.0342 26.262C19.1529 27.932 21.087 30.5649 21.9279 31.5625C22.1547 31.8316 22.5838 32.112 22.9518 32.2314C23.3497 32.3607 23.9032 32.3616 24.2925 32.2338C24.6244 32.1249 24.9355 31.9407 25.17 31.7145C25.6645 31.2375 27.9815 28.1099 29.267 26.184C32.204 21.7844 33.6424 18.6215 33.7371 16.356C33.8454 13.7634 32.8116 11.0873 30.9479 9.1362C29.1791 7.28445 26.8207 6.1872 24.2535 6.02145C23.6124 5.9799 23.556 5.98005 22.9224 6.02265ZM22.9089 8.2875C21.5046 8.41215 20.0417 8.9754 18.9029 9.8298C18.5133 10.1222 17.8185 10.7924 17.5152 11.1684C16.5837 12.3233 15.9807 13.7604 15.8064 15.2408C15.744 15.7704 15.7822 16.7066 15.8842 17.1482C16.414 19.4415 18.4059 23.025 21.5571 27.354C22.0323 28.007 23.0735 29.3813 23.526 29.9534L23.6232 30.076L24.0702 29.5049C26.7187 26.1197 28.9155 22.7741 30.1815 20.1975C31.0724 18.3846 31.4278 17.3022 31.4749 16.2585C31.5372 14.8847 31.1336 13.3503 30.3798 12.0956C28.8144 9.4893 25.9308 8.01945 22.9089 8.2875ZM22.7359 10.5674C19.2696 11.1503 17.1774 14.6549 18.3141 17.9745C18.7814 19.3392 19.8186 20.5149 21.1249 21.1605C21.9462 21.5666 22.6746 21.7361 23.6025 21.7374C24.5815 21.7386 25.3948 21.5448 26.2117 21.1153C28.9885 19.6557 30.0511 16.274 28.6 13.514C27.766 11.9279 26.2719 10.8573 24.4821 10.5641C24.0586 10.4946 23.1583 10.4964 22.7359 10.5674ZM22.9906 12.8094C22.4305 12.9093 21.8125 13.2213 21.3766 13.6244C20.677 14.2713 20.3191 15.0152 20.2687 15.927C20.2156 16.8878 20.5203 17.7321 21.1649 18.4107C21.6189 18.8886 22.1608 19.2245 22.7325 19.3821C23.0895 19.4805 23.9154 19.5 24.3176 19.4194C25.5477 19.1731 26.557 18.2084 26.89 16.9605C27.0079 16.5189 27.0079 15.7259 26.8902 15.2835C26.658 14.4108 26.0386 13.6106 25.2544 13.1696C25.1187 13.0932 24.8466 12.9783 24.65 12.9143C24.336 12.812 24.2261 12.7962 23.7465 12.785C23.4462 12.7778 23.1061 12.7889 22.9906 12.8094ZM13.0605 25.9661C12.9318 26.0157 12.6421 26.1486 12.417 26.2616C11.1496 26.897 10.2306 27.5464 9.45 28.3584C8.48535 29.362 7.9947 30.3508 7.89885 31.4845C7.79925 32.6611 8.13225 33.735 8.92065 34.7802C10.4667 36.8298 13.7077 38.4379 17.8826 39.2266C19.0483 39.447 20.0727 39.5722 21.7722 39.7026L22.0599 39.7245L21.8034 39.984C21.4803 40.3107 21.3888 40.5054 21.3882 40.8675C21.3877 41.1671 21.4883 41.4423 21.6681 41.6331C22.0488 42.0373 22.677 42.1123 23.1206 41.8063C23.2289 41.7316 23.8475 41.1386 24.4953 40.4883C25.8533 39.1253 25.8923 39.0706 25.8648 38.5735C25.8558 38.4114 25.8185 38.2278 25.776 38.1375C25.6887 37.9516 23.4204 35.6505 23.1206 35.4437C22.677 35.1377 22.0488 35.2126 21.6681 35.6169C21.4883 35.8077 21.3877 36.0829 21.3882 36.3825C21.3888 36.7287 21.4797 36.9381 21.7474 37.2103C21.8577 37.3224 21.9402 37.4211 21.9307 37.4295C21.903 37.4544 20.9954 37.3831 20.2365 37.2964C17.1864 36.9477 14.4607 36.1258 12.5649 34.9834C11.9866 34.6351 11.6031 34.3395 11.1661 33.906C10.4512 33.1966 10.1396 32.5663 10.1432 31.8376C10.1466 31.1491 10.4906 30.4907 11.2137 29.7884C11.8428 29.1776 12.3937 28.8093 13.5325 28.2392C14.0179 27.9962 14.2321 27.8667 14.3268 27.759C14.7472 27.28 14.7116 26.5869 14.2445 26.1669C13.91 25.8662 13.5 25.7966 13.0605 25.9661ZM33.4119 25.9418C32.9229 26.1165 32.648 26.4983 32.6474 27.003C32.6469 27.3264 32.7654 27.6113 32.9841 27.8128C33.0794 27.9005 33.4096 28.0917 33.789 28.2788C35.4627 29.1044 36.553 30.0666 36.9558 31.0734C37.0752 31.3719 37.0827 31.4192 37.0827 31.878C37.0828 32.3322 37.0746 32.3859 36.9628 32.6635C36.3927 34.0777 34.4607 35.4164 31.6761 36.3263C31.4791 36.3906 31.0185 36.5236 30.6524 36.6219C29.9201 36.8185 29.7777 36.8782 29.5806 37.0713C29.0304 37.6104 29.2065 38.5599 29.9173 38.887C30.2347 39.0331 30.4821 39.0147 31.332 38.782C34.6461 37.8741 37.0429 36.4939 38.3775 34.725C38.7144 34.2783 39.1053 33.4863 39.234 32.9895C39.3827 32.4157 39.4061 31.5868 39.2895 31.02C38.9373 29.3056 37.5723 27.7526 35.349 26.5367C34.2163 25.9173 33.8206 25.7958 33.4119 25.9418Z" fill="var(--fill-0, #9838D0)"/>
</g>
</svg>
