<svg preserveAspectRatio="none" width="100%" height="100%" overflow="visible" style="display: block;" viewBox="0 0 48 48" fill="none" xmlns="http://www.w3.org/2000/svg">
<g id="Calendar-1 Streamline Ultimate">
<path id="Vector" fill-rule="evenodd" clip-rule="evenodd" d="M15.8295 6.0366C15.4829 6.14625 15.267 6.32655 15.1017 6.645L15.0105 6.8205L14.9993 8.64105L14.9882 10.4616L11.9378 10.4775C9.20835 10.4919 8.85675 10.5007 8.595 10.5618C7.88775 10.7266 7.3842 11.0098 6.918 11.5051C6.525 11.9226 6.2871 12.3715 6.087 13.0726L6.0015 13.3725L5.9904 26.0865C5.98245 35.1415 5.99145 38.8959 6.0219 39.132C6.07155 39.5169 6.2496 40.0788 6.411 40.3597C6.8916 41.1967 7.76535 41.7696 8.84985 41.9586C9.1506 42.0111 10.9179 42.018 24.0218 42.018C34.3766 42.018 38.9454 42.0054 39.1584 41.9761C40.6469 41.7717 41.684 40.725 41.9586 39.1501C42.011 38.8501 42.0179 37.3198 42.0173 26.2276C42.0167 18.0582 42.0029 13.5498 41.9775 13.3725C41.913 12.921 41.8304 12.6505 41.6381 12.2611C41.4824 11.9458 41.3997 11.8354 41.0834 11.52C40.6752 11.113 40.3293 10.8909 39.8334 10.7176C39.1877 10.4917 39.2433 10.4952 36.0038 10.4781L33.012 10.4622L33.0008 8.64135L32.9895 6.8205L32.8983 6.645C32.7155 6.2928 32.3882 6.0555 32.0064 5.9982C31.8251 5.97105 31.4846 6.03825 31.332 6.1314C31.1162 6.2631 30.9006 6.5103 30.8246 6.7134C30.7514 6.90945 30.747 7.01925 30.747 8.694V10.467H24H17.253V8.694C17.253 7.01925 17.2487 6.90945 17.1755 6.7134C17.0552 6.3921 16.7355 6.1137 16.3875 6.02745C16.1606 5.97105 16.0298 5.9733 15.8295 6.0366ZM8.93535 12.8197C8.71335 12.8887 8.53605 13.053 8.41305 13.3032L8.3025 13.5285L8.29185 26.2425C8.2824 37.6083 8.28765 38.9733 8.34135 39.1155C8.41755 39.3174 8.5851 39.489 8.82 39.6058L9.0045 39.6975L23.9805 39.7081C37.3803 39.7176 38.9733 39.7123 39.1155 39.6586C39.3174 39.5824 39.489 39.415 39.6059 39.18L39.6975 38.9955L39.7076 26.2866C39.7148 17.1115 39.7055 13.5328 39.6744 13.4166C39.6096 13.1743 39.353 12.9472 39.0318 12.8479C38.7806 12.7704 38.6867 12.768 35.891 12.768H33.009V13.9755C33.009 15.354 32.9894 15.465 32.6922 15.7713C32.139 16.3413 31.2396 16.2085 30.8744 15.5031L30.747 15.2571V14.0125V12.768H24.002H17.2569L17.2452 14.0452L17.2335 15.3225L17.1126 15.537C16.9781 15.7759 16.7022 16.0096 16.4745 16.0779C15.9038 16.2489 15.2756 15.9438 15.0707 15.3961C14.9967 15.1984 14.991 15.0961 14.991 13.9755V12.768L12.0368 12.771C9.8937 12.7732 9.04215 12.7866 8.93535 12.8197ZM20.3481 19.5312C19.9614 19.6251 19.6224 19.971 19.5293 20.3667C19.4885 20.5398 19.4771 21.1963 19.4766 23.4052L19.476 26.223H16.6928C13.9083 26.223 13.6419 26.2342 13.37 26.3634C13.1819 26.4526 12.9266 26.7183 12.8303 26.925C12.7491 27.0993 12.7485 27.1266 12.7485 30.747V34.3935L12.8324 34.5748C12.9395 34.8066 13.1934 35.0605 13.4252 35.1676L13.6065 35.2515H24H34.3935L34.5749 35.1676C34.8066 35.0605 35.0606 34.8066 35.1677 34.5748L35.2515 34.3935V27.3735V20.3535L35.1698 20.178C35.082 19.9897 34.8122 19.6975 34.6494 19.6144C34.3839 19.479 34.2185 19.476 27.3423 19.4793C22.0593 19.4818 20.504 19.4934 20.3481 19.5312ZM21.777 24V26.223H24H26.223V24V21.777H24H21.777V24ZM28.524 24V26.223H30.747H32.97V24V21.777H30.747H28.524V24ZM15.03 30.747V32.97H17.253H19.476V30.747V28.524H17.253H15.03V30.747ZM21.777 30.747V32.97H24H26.223V30.747V28.524H24H21.777V30.747ZM28.524 30.747V32.97H30.747H32.97V30.747V28.524H30.747H28.524V30.747Z" fill="var(--fill-0, #9838D0)"/>
</g>
</svg>
