<svg preserveAspectRatio="none" width="100%" height="100%" overflow="visible" style="display: block;" viewBox="0 0 14 16" fill="none" xmlns="http://www.w3.org/2000/svg">
<g id="user" clip-path="url(#clip0_0_360)">
<path id="Primary" d="M4.5 4C4.5 3.33696 4.76339 2.70107 5.23223 2.23223C5.70107 1.76339 6.33696 1.5 7 1.5C7.66304 1.5 8.29893 1.76339 8.76777 2.23223C9.23661 2.70107 9.5 3.33696 9.5 4C9.5 4.66304 9.23661 5.29893 8.76777 5.76777C8.29893 6.23661 7.66304 6.5 7 6.5C6.33696 6.5 5.70107 6.23661 5.23223 5.76777C4.76339 5.29893 4.5 4.66304 4.5 4ZM11 4C11 2.93913 10.5786 1.92172 9.82843 1.17157C9.07828 0.421427 8.06087 0 7 0C5.93913 0 4.92172 0.421427 4.17157 1.17157C3.42143 1.92172 3 2.93913 3 4C3 5.06087 3.42143 6.07828 4.17157 6.82843C4.92172 7.57857 5.93913 8 7 8C8.06087 8 9.07828 7.57857 9.82843 6.82843C10.5786 6.07828 11 5.06087 11 4ZM1.5 15C1.5 12.7906 3.29063 11 5.5 11H8.5C10.7094 11 12.5 12.7906 12.5 15V15.25C12.5 15.6656 12.8344 16 13.25 16C13.6656 16 14 15.6656 14 15.25V15C14 11.9625 11.5375 9.5 8.5 9.5H5.5C2.4625 9.5 0 11.9625 0 15V15.25C0 15.6656 0.334375 16 0.75 16C1.16563 16 1.5 15.6656 1.5 15.25V15Z" fill="var(--fill-0, #525252)"/>
</g>
<defs>
<clipPath id="clip0_0_360">
<rect width="14" height="16" fill="white"/>
</clipPath>
</defs>
</svg>
