<svg preserveAspectRatio="none" width="100%" height="100%" overflow="visible" style="display: block;" viewBox="0 0 25.5 13.5" fill="none" xmlns="http://www.w3.org/2000/svg">
<g id="placa">
<path id="Rectangle 25" d="M0 1.05497C0 0.481683 0.480519 0.0471097 1.05243 0.103179L24.5544 2.40729C25.0846 2.45928 25.5 2.91638 25.5 3.44789V12.403C25.5 12.9917 24.9944 13.4306 24.4088 13.3502L0.906782 10.1245C0.39298 10.0539 0 9.60494 0 9.08843V1.05497Z" fill="var(--fill-0, #9838D0)"/>
<g id="Vector">
<path d="M13.9446 5.97056L13.7482 5.42854C13.4901 4.81602 12.9288 4.37109 12.3118 4.28882L10.5195 4.04984V6.33085C12.9394 6.87362 13.9452 6.21011 13.9452 5.97064" fill="var(--fill-0, white)"/>
<path d="M16.3696 4.82986C15.7397 4.74587 15.1626 5.02269 14.8594 5.54767C14.8594 5.54767 14.5304 6.25063 14.209 6.5186C13.1714 7.38289 10.5416 6.88469 8.66243 6.63414V3.78832L6.5 3.5V8.08136L12.5732 8.90503V7.14529L13.4494 9.02186L15.094 9.24113L15.9702 7.59823V9.35797L18.0242 9.63182V5.05046L16.3696 4.82986Z" fill="var(--fill-0, white)"/>
<path d="M14.8575 5.54699V5.5456C14.8575 5.5456 14.8575 5.54629 14.8575 5.54699Z" fill="var(--fill-0, white)"/>
</g>
</g>
</svg>
