<svg preserveAspectRatio="none" width="100%" height="100%" overflow="visible" style="display: block;" viewBox="0 0 26.3573 12" fill="none" xmlns="http://www.w3.org/2000/svg">
<g id="placa">
<path id="Rectangle 25" d="M0 1.01116C0 0.454532 0.454063 0.025219 1.0101 0.0561114L25.3692 1.40945C25.9166 1.43986 26.3571 1.90534 26.3571 2.45329V10.9875C26.3571 11.5446 25.9022 11.9741 25.3457 11.9424L0.986572 10.5561C0.439727 10.525 3.33171e-10 10.0598 3.13181e-10 9.51238L0 1.01116Z" fill="var(--fill-0, #9838D0)"/>
<g id="Vector">
<path d="M15.1581 5.1486L14.9489 4.59416C14.674 3.97098 14.0762 3.55329 13.419 3.52408L11.5099 3.43923V5.84985C14.0874 6.19704 15.1588 5.4017 15.1588 5.14863" fill="var(--fill-0, white)"/>
<path d="M17.741 3.71617C17.0701 3.68635 16.4554 4.03289 16.1325 4.61608C16.1325 4.61608 15.782 5.38977 15.4397 5.70305C14.3346 6.71353 11.5334 6.4331 9.53191 6.34414V3.33662L7.22865 3.23425V8.07594L13.6974 8.37814V6.51841L14.6307 8.41962L16.3823 8.49747L17.3156 6.67922V8.53895L19.5033 8.63618V3.79449L17.741 3.71617Z" fill="var(--fill-0, white)"/>
<path d="M16.1304 4.61554V4.61407C16.1304 4.61407 16.1304 4.61481 16.1304 4.61554Z" fill="var(--fill-0, white)"/>
</g>
</g>
</svg>
