<svg preserveAspectRatio="none" width="100%" height="100%" overflow="visible" style="display: block;" viewBox="0 0 30.5 15.2111" fill="none" xmlns="http://www.w3.org/2000/svg">
<g id="placa">
<path id="Rectangle 25" d="M0 2.31209C0 1.77705 0.42072 1.35551 0.954701 1.35551L29.4567 1.35553C30.0252 1.35553 30.5 1.83122 30.5 2.40091V12.8989C30.5 13.434 30.0793 13.8555 29.5453 13.8555L1.04333 13.8555C0.474756 13.8555 0 13.3798 0 12.8101V2.31209Z" fill="var(--fill-0, #9838D0)"/>
<g id="Vector">
<path d="M16.898 6.96364L16.6764 6.40238C16.3853 5.77335 15.7521 5.37067 15.0561 5.37067H13.0342V7.85257C15.764 8.09208 16.8987 7.2242 16.8987 6.96364" fill="var(--fill-0, white)"/>
<path d="M19.6336 5.37066C18.923 5.37066 18.272 5.75558 17.9299 6.37079C17.9299 6.37079 17.5588 7.1834 17.1962 7.5216C16.0258 8.61254 13.0592 8.45199 10.9394 8.45199V5.35553H8.5V10.3404L15.351 10.3555V8.4408L16.3394 10.3555H18.1946L19.183 8.4408V10.3555H21.5V5.37066H19.6336Z" fill="var(--fill-0, white)"/>
<path d="M17.9278 6.37033V6.36882C17.9278 6.36882 17.9278 6.36957 17.9278 6.37033Z" fill="var(--fill-0, white)"/>
</g>
</g>
</svg>
