<svg preserveAspectRatio="none" width="100%" height="100%" overflow="visible" style="display: block;" viewBox="0 0 27.5 13.2222" fill="none" xmlns="http://www.w3.org/2000/svg">
<g id="placa">
<path id="Rectangle 25" d="M1.67394e-09 1.01015C7.52192e-10 0.45392 0.453442 0.0247408 1.00909 0.0550491L26.5111 1.44607C27.0588 1.47594 27.5 1.94162 27.5 2.48997V12.008C27.5 12.5572 27.0576 12.9839 26.509 12.964L1.00708 12.0366C0.452206 12.0164 1.91354e-08 11.5473 1.8215e-08 10.9919L1.67394e-09 1.01015Z" fill="var(--fill-0, #9838D0)"/>
<g id="Vector">
<path d="M15.0031 5.81141L14.8051 5.28679C14.545 4.69711 13.9793 4.30188 13.3575 4.27425L11.5511 4.19396V6.47496C13.99 6.80348 15.0037 6.05091 15.0037 5.81144" fill="var(--fill-0, white)"/>
<path d="M17.4472 4.456C16.8123 4.42779 16.2307 4.7557 15.9251 5.30753C15.9251 5.30753 15.5934 6.03962 15.2695 6.33605C14.2238 7.2922 11.5733 7.02685 9.67941 6.94268V4.09686L7.5 4V8.58136L13.6209 8.86731V7.10757L14.504 8.90656L16.1615 8.98022L17.0446 7.25974V9.01947L19.1147 9.11148V4.53012L17.4472 4.456Z" fill="var(--fill-0, white)"/>
<path d="M15.9231 5.30702V5.30563C15.9231 5.30563 15.9231 5.30632 15.9231 5.30702Z" fill="var(--fill-0, white)"/>
</g>
</g>
</svg>
